<svg width="200" height="145" viewBox="0 0 200 145" fill="none" xmlns="http://www.w3.org/2000/svg">
<rect x="5" y="5" width="5.00002" height="4.99999" fill="#FF0000"/>
<rect y="10" width="5.00002" height="4.99999" fill="#FF0000"/>
<rect y="14.9999" width="5.00002" height="4.99999" fill="#FF0000"/>
<rect y="19.9999" width="5.00002" height="4.99999" fill="#FF0000"/>
<rect y="24.9999" width="5.00002" height="4.99999" fill="#FF0000"/>
<rect y="30" width="5.00002" height="4.99999" fill="#FF0000"/>
<rect x="5" y="35" width="5.00002" height="4.99999" fill="#FF0000"/>
<rect x="9.99927" y="40" width="5.00002" height="4.99999" fill="#FF0000"/>
<rect x="14.9996" y="40" width="5.00002" height="4.99999" fill="#FF0000"/>
<rect x="20.0005" y="40" width="5.00002" height="4.99999" fill="#FF0000"/>
<rect x="25.0001" y="40" width="5.00002" height="4.99999" fill="#FF0000"/>
<rect x="30.0009" y="40" width="5.00002" height="4.99999" fill="#FF0000"/>
<rect x="35.0009" y="34.9996" width="5.00002" height="4.99999" fill="#FF0000"/>
<rect x="40" y="29.9999" width="5.00002" height="4.99999" fill="#FF0000"/>
<rect x="40" y="25" width="5.00002" height="4.99999" fill="#FF0000"/>
<rect x="40" y="19.9999" width="5.00002" height="4.99999" fill="#FF0000"/>
<rect x="40" y="14.9999" width="5.00002" height="4.99999" fill="#FF0000"/>
<rect x="40" y="10" width="5.00002" height="4.99999" fill="#FF0000"/>
<rect x="35" y="5" width="5.00002" height="4.99999" fill="#FF0000"/>
<rect x="10" width="5.00002" height="4.99999" fill="#FF0000"/>
<rect x="15.0005" width="5.00002" height="4.99999" fill="#FF0000"/>
<rect x="20.0012" width="5.00002" height="4.99999" fill="#FF0000"/>
<rect x="25.0007" width="5.00002" height="4.99999" fill="#FF0000"/>
<rect x="30.0017" width="5.00002" height="4.99999" fill="#FF0000"/>
<rect x="160" y="105" width="5.00002" height="4.99999" fill="#98FF98"/>
<rect x="155" y="110" width="5.00002" height="4.99999" fill="#98FF98"/>
<rect x="155" y="115" width="5.00002" height="4.99999" fill="#98FF98"/>
<rect x="155" y="120" width="5.00002" height="4.99999" fill="#98FF98"/>
<rect x="155" y="125" width="5.00002" height="4.99999" fill="#98FF98"/>
<rect x="155" y="130" width="5.00002" height="4.99999" fill="#98FF98"/>
<rect x="160" y="135" width="5.00002" height="4.99999" fill="#98FF98"/>
<rect x="164.999" y="140" width="5.00002" height="4.99999" fill="#98FF98"/>
<rect x="170" y="140" width="5.00002" height="4.99999" fill="#98FF98"/>
<rect x="175" y="140" width="5.00002" height="4.99999" fill="#98FF98"/>
<rect x="180" y="140" width="5.00002" height="4.99999" fill="#98FF98"/>
<rect x="185.001" y="140" width="5.00002" height="4.99999" fill="#98FF98"/>
<rect x="190.001" y="135" width="5.00002" height="4.99999" fill="#98FF98"/>
<rect x="195" y="130" width="5.00002" height="4.99999" fill="#98FF98"/>
<rect x="195" y="125" width="5.00002" height="4.99999" fill="#98FF98"/>
<rect x="195" y="120" width="5.00002" height="4.99999" fill="#98FF98"/>
<rect x="195" y="115" width="5.00002" height="4.99999" fill="#98FF98"/>
<rect x="195" y="110" width="5.00002" height="4.99999" fill="#98FF98"/>
<rect x="190" y="105" width="5.00002" height="4.99999" fill="#98FF98"/>
<rect x="165" y="100" width="5.00002" height="4.99999" fill="#98FF98"/>
<rect x="170" y="100" width="5.00002" height="4.99999" fill="#98FF98"/>
<rect x="175.001" y="100" width="5.00002" height="4.99999" fill="#98FF98"/>
<rect x="180.001" y="100" width="5.00002" height="4.99999" fill="#98FF98"/>
<rect x="185.002" y="100" width="5.00002" height="4.99999" fill="#98FF98"/>
<rect x="143" y="60" width="5.00002" height="4.99999" fill="#6CFF6C"/>
<rect x="138" y="65" width="5.00002" height="4.99999" fill="#6CFF6C"/>
<rect x="138" y="69.9999" width="5.00002" height="4.99999" fill="#6CFF6C"/>
<rect x="138" y="74.9999" width="5.00002" height="4.99999" fill="#6CFF6C"/>
<rect x="138" y="79.9999" width="5.00002" height="4.99999" fill="#6CFF6C"/>
<rect x="138" y="85" width="5.00002" height="4.99999" fill="#6CFF6C"/>
<rect x="143" y="90" width="5.00002" height="4.99999" fill="#6CFF6C"/>
<rect x="147.999" y="95" width="5.00002" height="4.99999" fill="#6CFF6C"/>
<rect x="153" y="95" width="5.00002" height="4.99999" fill="#6CFF6C"/>
<rect x="158" y="95" width="5.00002" height="4.99999" fill="#6CFF6C"/>
<rect x="163" y="95" width="5.00002" height="4.99999" fill="#6CFF6C"/>
<rect x="168.001" y="95" width="5.00002" height="4.99999" fill="#6CFF6C"/>
<rect x="173.001" y="89.9996" width="5.00002" height="4.99999" fill="#6CFF6C"/>
<rect x="178" y="84.9999" width="5.00002" height="4.99999" fill="#6CFF6C"/>
<rect x="178" y="80" width="5.00002" height="4.99999" fill="#6CFF6C"/>
<rect x="178" y="74.9999" width="5.00002" height="4.99999" fill="#6CFF6C"/>
<rect x="178" y="69.9999" width="5.00002" height="4.99999" fill="#6CFF6C"/>
<rect x="178" y="65" width="5.00002" height="4.99999" fill="#6CFF6C"/>
<rect x="173" y="60" width="5.00002" height="4.99999" fill="#6CFF6C"/>
<rect x="148" y="55" width="5.00002" height="4.99999" fill="#6CFF6C"/>
<rect x="153" y="55" width="5.00002" height="4.99999" fill="#6CFF6C"/>
<rect x="158.001" y="55" width="5.00002" height="4.99999" fill="#6CFF6C"/>
<rect x="163.001" y="55" width="5.00002" height="4.99999" fill="#6CFF6C"/>
<rect x="168.002" y="55" width="5.00002" height="4.99999" fill="#6CFF6C"/>
<rect x="105" y="27" width="5.00002" height="4.99999" fill="#53FF53"/>
<rect x="100" y="32" width="5.00002" height="4.99999" fill="#53FF53"/>
<rect x="100" y="36.9999" width="5.00002" height="4.99999" fill="#53FF53"/>
<rect x="100" y="41.9999" width="5.00002" height="4.99999" fill="#53FF53"/>
<rect x="100" y="46.9999" width="5.00002" height="4.99999" fill="#53FF53"/>
<rect x="100" y="52" width="5.00002" height="4.99999" fill="#53FF53"/>
<rect x="105" y="57" width="5.00002" height="4.99999" fill="#53FF53"/>
<rect x="109.999" y="62" width="5.00002" height="4.99999" fill="#53FF53"/>
<rect x="115" y="62" width="5.00002" height="4.99999" fill="#53FF53"/>
<rect x="120" y="62" width="5.00002" height="4.99999" fill="#53FF53"/>
<rect x="125" y="62" width="5.00002" height="4.99999" fill="#53FF53"/>
<rect x="130.001" y="62" width="5.00002" height="4.99999" fill="#53FF53"/>
<rect x="135.001" y="56.9996" width="5.00002" height="4.99999" fill="#53FF53"/>
<rect x="140" y="51.9999" width="5.00002" height="4.99999" fill="#53FF53"/>
<rect x="140" y="47" width="5.00002" height="4.99999" fill="#53FF53"/>
<rect x="140" y="41.9999" width="5.00002" height="4.99999" fill="#53FF53"/>
<rect x="140" y="36.9999" width="5.00002" height="4.99999" fill="#53FF53"/>
<rect x="140" y="32" width="5.00002" height="4.99999" fill="#53FF53"/>
<rect x="135" y="27" width="5.00002" height="4.99999" fill="#53FF53"/>
<rect x="110" y="22" width="5.00002" height="4.99999" fill="#53FF53"/>
<rect x="115" y="22" width="5.00002" height="4.99999" fill="#53FF53"/>
<rect x="120.001" y="22" width="5.00002" height="4.99999" fill="#53FF53"/>
<rect x="125.001" y="22" width="5.00002" height="4.99999" fill="#53FF53"/>
<rect x="130.002" y="22" width="5.00002" height="4.99999" fill="#53FF53"/>
<rect x="72" y="63" width="5.00002" height="4.99999" fill="#37FF37"/>
<rect x="67" y="68" width="5.00002" height="4.99999" fill="#37FF37"/>
<rect x="67" y="72.9999" width="5.00002" height="4.99999" fill="#37FF37"/>
<rect x="67" y="77.9999" width="5.00002" height="4.99999" fill="#37FF37"/>
<rect x="67" y="82.9999" width="5.00002" height="4.99999" fill="#37FF37"/>
<rect x="67" y="88" width="5.00002" height="4.99999" fill="#37FF37"/>
<rect x="72" y="93" width="5.00002" height="4.99999" fill="#37FF37"/>
<rect x="76.9993" y="98" width="5.00002" height="4.99999" fill="#37FF37"/>
<rect x="81.9996" y="98" width="5.00002" height="4.99999" fill="#37FF37"/>
<rect x="87.0005" y="98" width="5.00002" height="4.99999" fill="#37FF37"/>
<rect x="92.0001" y="98" width="5.00002" height="4.99999" fill="#37FF37"/>
<rect x="97.0009" y="98" width="5.00002" height="4.99999" fill="#37FF37"/>
<rect x="102.001" y="92.9996" width="5.00002" height="4.99999" fill="#37FF37"/>
<rect x="107" y="87.9999" width="5.00002" height="4.99999" fill="#37FF37"/>
<rect x="107" y="83" width="5.00002" height="4.99999" fill="#37FF37"/>
<rect x="107" y="77.9999" width="5.00002" height="4.99999" fill="#37FF37"/>
<rect x="107" y="72.9999" width="5.00002" height="4.99999" fill="#37FF37"/>
<rect x="107" y="68" width="5.00002" height="4.99999" fill="#37FF37"/>
<rect x="102" y="63" width="5.00002" height="4.99999" fill="#37FF37"/>
<rect x="77" y="58" width="5.00002" height="4.99999" fill="#37FF37"/>
<rect x="82.0005" y="58" width="5.00002" height="4.99999" fill="#37FF37"/>
<rect x="87.0012" y="58" width="5.00002" height="4.99999" fill="#37FF37"/>
<rect x="92.0007" y="58" width="5.00002" height="4.99999" fill="#37FF37"/>
<rect x="97.0017" y="58" width="5.00002" height="4.99999" fill="#37FF37"/>
<rect x="45" y="105" width="5.00002" height="4.99999" fill="#16FF16"/>
<rect x="40" y="110" width="5.00002" height="4.99999" fill="#16FF16"/>
<rect x="40" y="115" width="5.00002" height="4.99999" fill="#16FF16"/>
<rect x="40" y="120" width="5.00002" height="4.99999" fill="#16FF16"/>
<rect x="40" y="125" width="5.00002" height="4.99999" fill="#16FF16"/>
<rect x="40" y="130" width="5.00002" height="4.99999" fill="#16FF16"/>
<rect x="45" y="135" width="5.00002" height="4.99999" fill="#16FF16"/>
<rect x="49.9993" y="140" width="5.00002" height="4.99999" fill="#16FF16"/>
<rect x="54.9996" y="140" width="5.00002" height="4.99999" fill="#16FF16"/>
<rect x="60.0005" y="140" width="5.00002" height="4.99999" fill="#16FF16"/>
<rect x="65.0001" y="140" width="5.00002" height="4.99999" fill="#16FF16"/>
<rect x="70.0009" y="140" width="5.00002" height="4.99999" fill="#16FF16"/>
<rect x="75.0009" y="135" width="5.00002" height="4.99999" fill="#16FF16"/>
<rect x="80" y="130" width="5.00002" height="4.99999" fill="#16FF16"/>
<rect x="80" y="125" width="5.00002" height="4.99999" fill="#16FF16"/>
<rect x="80" y="120" width="5.00002" height="4.99999" fill="#16FF16"/>
<rect x="80" y="115" width="5.00002" height="4.99999" fill="#16FF16"/>
<rect x="80" y="110" width="5.00002" height="4.99999" fill="#16FF16"/>
<rect x="75" y="105" width="5.00002" height="4.99999" fill="#16FF16"/>
<rect x="50" y="100" width="5.00002" height="4.99999" fill="#16FF16"/>
<rect x="55.0005" y="100" width="5.00002" height="4.99999" fill="#16FF16"/>
<rect x="60.0012" y="100" width="5.00002" height="4.99999" fill="#16FF16"/>
<rect x="65.0007" y="100" width="5.00002" height="4.99999" fill="#16FF16"/>
<rect x="70.0017" y="100" width="5.00002" height="4.99999" fill="#16FF16"/>
<rect x="25" y="53" width="5.00002" height="4.99999" fill="#00FF00"/>
<rect x="20" y="58" width="5.00002" height="4.99999" fill="#00FF00"/>
<rect x="20" y="62.9999" width="5.00002" height="4.99999" fill="#00FF00"/>
<rect x="20" y="67.9999" width="5.00002" height="4.99999" fill="#00FF00"/>
<rect x="20" y="72.9999" width="5.00002" height="4.99999" fill="#00FF00"/>
<rect x="20" y="78" width="5.00002" height="4.99999" fill="#00FF00"/>
<rect x="25" y="83" width="5.00002" height="4.99999" fill="#00FF00"/>
<rect x="29.9993" y="88" width="5.00002" height="4.99999" fill="#00FF00"/>
<rect x="34.9996" y="88" width="5.00002" height="4.99999" fill="#00FF00"/>
<rect x="40.0005" y="88" width="5.00002" height="4.99999" fill="#00FF00"/>
<rect x="45.0001" y="88" width="5.00002" height="4.99999" fill="#00FF00"/>
<rect x="50.0009" y="88" width="5.00002" height="4.99999" fill="#00FF00"/>
<rect x="55.0009" y="82.9996" width="5.00002" height="4.99999" fill="#00FF00"/>
<rect x="60" y="77.9999" width="5.00002" height="4.99999" fill="#00FF00"/>
<rect x="60" y="73" width="5.00002" height="4.99999" fill="#00FF00"/>
<rect x="60" y="67.9999" width="5.00002" height="4.99999" fill="#00FF00"/>
<rect x="60" y="62.9999" width="5.00002" height="4.99999" fill="#00FF00"/>
<rect x="60" y="58" width="5.00002" height="4.99999" fill="#00FF00"/>
<rect x="55" y="53" width="5.00002" height="4.99999" fill="#00FF00"/>
<rect x="30" y="48" width="5.00002" height="4.99999" fill="#00FF00"/>
<rect x="35.0005" y="48" width="5.00002" height="4.99999" fill="#00FF00"/>
<rect x="40.0012" y="48" width="5.00002" height="4.99999" fill="#00FF00"/>
<rect x="45.0007" y="48" width="5.00002" height="4.99999" fill="#00FF00"/>
<rect x="50.0017" y="48" width="5.00002" height="4.99999" fill="#00FF00"/>
</svg>
