<svg width="326" height="326" viewBox="0 0 326 326" fill="none" xmlns="http://www.w3.org/2000/svg">
<circle cx="163" cy="163" r="160.5" stroke="black" stroke-width="5"/>
<path d="M205 122.5C217.5 102.5 217.5 69 190 65" stroke="black" stroke-width="10"/>
<path d="M203 121C196.5 129.5 204 133.5 211.5 128" stroke="black" stroke-width="5"/>
<path d="M210 126C241.5 103 230 63 190 60.5" stroke="black" stroke-width="10"/>
<path d="M205 126.5C236.5 103.5 225 63.5 185 61" stroke="black" stroke-width="10"/>
<path d="M193.499 238.5C72.9996 284.5 94 58.5001 190 64.9997" stroke="black" stroke-width="10"/>
<path d="M154 248.5C77.4998 248.5 82.4996 110 148 72" stroke="black" stroke-width="15"/>
<path d="M189 247.5C41 300 62.9997 48.9999 190.5 60.5" stroke="black" stroke-width="10"/>
<path d="M230.5 199.5C227 220.5 208 241 189 247.5" stroke="black" stroke-width="10"/>
<path d="M193.5 238.5C220 223.5 227.5 206 230.5 200" stroke="black" stroke-width="10"/>
<path d="M233 200C235 186 231.5 192.5 228 199.5" stroke="black" stroke-width="5"/>
<circle cx="206" cy="126" r="3.5" fill="black" stroke="black"/>
</svg>
