<svg width="140" height="115" viewBox="0 0 140 115" fill="none" xmlns="http://www.w3.org/2000/svg">
<rect x="5" y="5" width="130" height="65" fill="url(#paint0_linear_385_1288)"/>
<rect x="5" y="70" width="130" height="15" fill="#6D6D6D"/>
<rect x="60" y="90" width="20" height="10" fill="#6D6D6D"/>
<rect x="55" y="100" width="30" height="5" fill="#6D6D6D"/>
<rect x="50" y="105" width="40" height="5" fill="#6D6D6D"/>
<rect x="125" y="80" width="5" height="5" fill="#1E1E1E"/>
<rect x="115" y="80" width="5" height="5" fill="#1E1E1E"/>
<rect x="125" y="75" width="5" height="5" fill="#1E1E1E"/>
<rect x="105" y="80" width="5" height="5" fill="#1E1E1E"/>
<rect x="10" y="75" width="5" height="5" fill="#FF0000"/>
<rect y="15" width="5" height="5" fill="black"/>
<rect y="10" width="5" height="5" fill="black"/>
<rect y="5" width="5" height="5" fill="black"/>
<rect y="25" width="5" height="5" fill="black"/>
<rect y="30" width="5" height="5" fill="black"/>
<rect y="35" width="5" height="5" fill="black"/>
<rect y="40" width="5" height="5" fill="black"/>
<rect y="45" width="5" height="5" fill="black"/>
<rect y="50" width="5" height="5" fill="black"/>
<rect y="55" width="5" height="5" fill="black"/>
<rect y="60" width="5" height="5" fill="black"/>
<rect y="65" width="5" height="5" fill="black"/>
<rect y="70" width="5" height="5" fill="black"/>
<rect y="75" width="5" height="5" fill="black"/>
<rect y="80" width="5" height="5" fill="black"/>
<rect x="135" y="60" width="5" height="5" fill="black"/>
<rect x="135" y="65" width="5" height="5" fill="black"/>
<rect x="135" y="70" width="5" height="5" fill="black"/>
<rect x="135" y="75" width="5" height="5" fill="black"/>
<rect x="135" y="80" width="5" height="5" fill="black"/>
<rect x="135" y="25" width="5" height="5" fill="black"/>
<rect x="135" y="20" width="5" height="5" fill="black"/>
<rect y="20" width="5" height="5" fill="black"/>
<rect x="135" y="30" width="5" height="5" fill="black"/>
<rect x="135" y="35" width="5" height="5" fill="black"/>
<rect x="135" y="40" width="5" height="5" fill="black"/>
<rect x="135" y="45" width="5" height="5" fill="black"/>
<rect x="135" y="50" width="5" height="5" fill="black"/>
<rect x="135" y="55" width="5" height="5" fill="black"/>
<rect x="5" width="5" height="5" fill="black"/>
<rect x="10" width="115" height="5" fill="black"/>
<rect x="125" width="5" height="5" fill="black"/>
<rect x="130" width="5" height="5" fill="black"/>
<rect x="25" y="85" width="5" height="5" fill="black"/>
<rect x="20" y="85" width="5" height="5" fill="black"/>
<rect x="10" y="85" width="5" height="5" fill="black"/>
<rect x="5" y="85" width="5" height="5" fill="black"/>
<rect x="15" y="85" width="5" height="5" fill="black"/>
<rect x="30" y="85" width="5" height="5" fill="black"/>
<rect x="35" y="85" width="5" height="5" fill="black"/>
<rect x="40" y="85" width="5" height="5" fill="black"/>
<rect x="45" y="85" width="5" height="5" fill="black"/>
<rect x="50" y="85" width="5" height="5" fill="black"/>
<rect x="55" y="85" width="5" height="5" fill="black"/>
<rect x="60" y="85" width="5" height="5" fill="black"/>
<rect x="65" y="85" width="5" height="5" fill="black"/>
<rect x="70" y="85" width="5" height="5" fill="black"/>
<rect x="55" y="90" width="5" height="5" fill="black"/>
<rect x="80" y="90" width="5" height="5" fill="black"/>
<rect x="80" y="95" width="5" height="5" fill="black"/>
<rect x="85" y="100" width="5" height="5" fill="black"/>
<rect x="90" y="105" width="5" height="5" fill="black"/>
<rect x="90" y="105" width="5" height="5" fill="black"/>
<rect x="50" y="100" width="5" height="5" fill="black"/>
<rect x="45" y="105" width="5" height="5" fill="black"/>
<rect x="55" y="95" width="5" height="5" fill="black"/>
<rect x="75" y="85" width="5" height="5" fill="black"/>
<rect x="80" y="85" width="5" height="5" fill="black"/>
<rect x="85" y="85" width="5" height="5" fill="black"/>
<rect x="90" y="85" width="5" height="5" fill="black"/>
<rect x="45" y="110" width="5" height="5" fill="black"/>
<rect x="50" y="110" width="5" height="5" fill="black"/>
<rect x="55" y="110" width="5" height="5" fill="black"/>
<rect x="60" y="110" width="5" height="5" fill="black"/>
<rect x="65" y="110" width="5" height="5" fill="black"/>
<rect x="70" y="110" width="5" height="5" fill="black"/>
<rect x="75" y="110" width="5" height="5" fill="black"/>
<rect x="80" y="110" width="5" height="5" fill="black"/>
<rect x="85" y="110" width="5" height="5" fill="black"/>
<rect x="90" y="110" width="5" height="5" fill="black"/>
<rect x="95" y="85" width="5" height="5" fill="black"/>
<rect x="100" y="85" width="5" height="5" fill="black"/>
<rect x="105" y="85" width="5" height="5" fill="black"/>
<rect x="110" y="85" width="5" height="5" fill="black"/>
<rect x="115" y="85" width="5" height="5" fill="black"/>
<rect x="120" y="85" width="5" height="5" fill="black"/>
<rect x="125" y="85" width="5" height="5" fill="black"/>
<rect x="130" y="85" width="5" height="5" fill="black"/>
<rect x="25" y="65" width="5" height="5" fill="black"/>
<rect x="20" y="65" width="5" height="5" fill="black"/>
<rect x="10" y="65" width="5" height="5" fill="black"/>
<rect x="5" y="65" width="5" height="5" fill="black"/>
<rect x="15" y="65" width="5" height="5" fill="black"/>
<rect x="30" y="65" width="5" height="5" fill="black"/>
<rect x="35" y="65" width="5" height="5" fill="black"/>
<rect x="40" y="65" width="5" height="5" fill="black"/>
<rect x="45" y="65" width="5" height="5" fill="black"/>
<rect x="50" y="65" width="5" height="5" fill="black"/>
<rect x="55" y="65" width="5" height="5" fill="black"/>
<rect x="60" y="65" width="5" height="5" fill="black"/>
<rect x="65" y="65" width="5" height="5" fill="black"/>
<rect x="70" y="65" width="5" height="5" fill="black"/>
<rect x="75" y="65" width="5" height="5" fill="black"/>
<rect x="80" y="65" width="5" height="5" fill="black"/>
<rect x="85" y="65" width="5" height="5" fill="black"/>
<rect x="90" y="65" width="5" height="5" fill="black"/>
<rect x="95" y="65" width="5" height="5" fill="black"/>
<rect x="100" y="65" width="5" height="5" fill="black"/>
<rect x="105" y="65" width="5" height="5" fill="black"/>
<rect x="110" y="65" width="5" height="5" fill="black"/>
<rect x="115" y="65" width="5" height="5" fill="black"/>
<rect x="120" y="65" width="5" height="5" fill="black"/>
<rect x="125" y="65" width="5" height="5" fill="black"/>
<rect x="130" y="65" width="5" height="5" fill="black"/>
<rect x="135" y="15" width="5" height="5" fill="black"/>
<rect x="135" y="10" width="5" height="5" fill="black"/>
<rect x="135" y="5" width="5" height="5" fill="black"/>
<rect x="9.40942" y="14.5544" width="30.3496" height="15.1748" transform="rotate(-13.6168 9.40942 14.5544)" fill="#00B3FF"/>
<rect x="12.9819" y="29.3027" width="30.3496" height="3.50188" transform="rotate(-13.6168 12.9819 29.3027)" fill="#6D6D6D"/>
<rect x="26.5605" y="30.8177" width="4.66918" height="2.33459" transform="rotate(-13.6168 26.5605 30.8177)" fill="#6D6D6D"/>
<rect x="25.9758" y="33.3615" width="7.00376" height="1.16729" transform="rotate(-13.6168 25.9758 33.3615)" fill="#6D6D6D"/>
<rect x="25.1162" y="34.7708" width="9.33835" height="1.16729" transform="rotate(-13.6168 25.1162 34.7708)" fill="#6D6D6D"/>
<rect x="40.7593" y="24.9762" width="1.16729" height="1.16729" transform="rotate(-13.6168 40.7593 24.9762)" fill="#1E1E1E"/>
<rect x="38.4902" y="25.5258" width="1.16729" height="1.16729" transform="rotate(-13.6168 38.4902 25.5258)" fill="#1E1E1E"/>
<rect x="40.4846" y="23.8417" width="1.16729" height="1.16729" transform="rotate(-13.6168 40.4846 23.8417)" fill="#1E1E1E"/>
<rect x="36.2212" y="26.0754" width="1.16729" height="1.16729" transform="rotate(-13.6168 36.2212 26.0754)" fill="#1E1E1E"/>
<rect x="14.3914" y="30.1624" width="1.16729" height="1.16729" transform="rotate(-13.6168 14.3914 30.1624)" fill="#FF0000"/>
<rect x="8.82446" y="17.0982" width="1.16729" height="1.16729" transform="rotate(-13.6168 8.82446 17.0982)" fill="black"/>
<rect x="8.54956" y="15.9637" width="1.16729" height="1.16729" transform="rotate(-13.6168 8.54956 15.9637)" fill="black"/>
<rect x="8.2749" y="14.8292" width="1.16729" height="1.16729" transform="rotate(-13.6168 8.2749 14.8292)" fill="black"/>
<rect x="9.37402" y="19.3672" width="1.16729" height="1.16729" transform="rotate(-13.6168 9.37402 19.3672)" fill="black"/>
<rect x="9.64868" y="20.5016" width="1.16729" height="1.16729" transform="rotate(-13.6168 9.64868 20.5016)" fill="black"/>
<rect x="9.92358" y="21.6361" width="1.16729" height="1.16729" transform="rotate(-13.6168 9.92358 21.6361)" fill="black"/>
<rect x="10.1985" y="22.7706" width="1.16729" height="1.16729" transform="rotate(-13.6168 10.1985 22.7706)" fill="black"/>
<rect x="10.4731" y="23.9051" width="1.16729" height="1.16729" transform="rotate(-13.6168 10.4731 23.9051)" fill="black"/>
<rect x="10.748" y="25.0396" width="1.16729" height="1.16729" transform="rotate(-13.6168 10.748 25.0396)" fill="black"/>
<rect x="11.0229" y="26.174" width="1.16729" height="1.16729" transform="rotate(-13.6168 11.0229 26.174)" fill="black"/>
<rect x="11.2979" y="27.3085" width="1.16729" height="1.16729" transform="rotate(-13.6168 11.2979 27.3085)" fill="black"/>
<rect x="11.5728" y="28.443" width="1.16729" height="1.16729" transform="rotate(-13.6168 11.5728 28.443)" fill="black"/>
<rect x="11.8474" y="29.5775" width="1.16729" height="1.16729" transform="rotate(-13.6168 11.8474 29.5775)" fill="black"/>
<rect x="12.1223" y="30.712" width="1.16729" height="1.16729" transform="rotate(-13.6168 12.1223 30.712)" fill="black"/>
<rect x="12.397" y="31.8465" width="1.16729" height="1.16729" transform="rotate(-13.6168 12.397 31.8465)" fill="black"/>
<rect x="41.929" y="19.8886" width="1.16729" height="1.16729" transform="rotate(-13.6168 41.929 19.8886)" fill="black"/>
<rect x="42.2036" y="21.0231" width="1.16729" height="1.16729" transform="rotate(-13.6168 42.2036 21.0231)" fill="black"/>
<rect x="42.4785" y="22.1576" width="1.16729" height="1.16729" transform="rotate(-13.6168 42.4785 22.1576)" fill="black"/>
<rect x="42.7534" y="23.2921" width="1.16729" height="1.16729" transform="rotate(-13.6168 42.7534 23.2921)" fill="black"/>
<rect x="43.0281" y="24.4265" width="1.16729" height="1.16729" transform="rotate(-13.6168 43.0281 24.4265)" fill="black"/>
<rect x="40.0051" y="11.9472" width="1.16729" height="1.16729" transform="rotate(-13.6168 40.0051 11.9472)" fill="black"/>
<rect x="39.7302" y="10.8127" width="1.16729" height="1.16729" transform="rotate(-13.6168 39.7302 10.8127)" fill="black"/>
<rect x="9.09912" y="18.2327" width="1.16729" height="1.16729" transform="rotate(-13.6168 9.09912 18.2327)" fill="black"/>
<rect x="40.2798" y="13.0817" width="1.16729" height="1.16729" transform="rotate(-13.6168 40.2798 13.0817)" fill="black"/>
<rect x="40.5547" y="14.2162" width="1.16729" height="1.16729" transform="rotate(-13.6168 40.5547 14.2162)" fill="black"/>
<rect x="40.8296" y="15.3507" width="1.16729" height="1.16729" transform="rotate(-13.6168 40.8296 15.3507)" fill="black"/>
<rect x="41.1042" y="16.4852" width="1.16729" height="1.16729" transform="rotate(-13.6168 41.1042 16.4852)" fill="black"/>
<rect x="41.3792" y="17.6197" width="1.16729" height="1.16729" transform="rotate(-13.6168 41.3792 17.6197)" fill="black"/>
<rect x="41.6541" y="18.7542" width="1.16729" height="1.16729" transform="rotate(-13.6168 41.6541 18.7542)" fill="black"/>
<rect x="9.13452" y="13.4199" width="1.16729" height="1.16729" transform="rotate(-13.6168 9.13452 13.4199)" fill="black"/>
<rect x="10.269" y="13.1451" width="26.8478" height="1.16729" transform="rotate(-13.6168 10.269 13.1451)" fill="black"/>
<rect x="36.3621" y="6.82443" width="1.16729" height="1.16729" transform="rotate(-13.6168 36.3621 6.82443)" fill="black"/>
<rect x="37.4966" y="6.54962" width="1.16729" height="1.16729" transform="rotate(-13.6168 37.4966 6.54962)" fill="black"/>
<rect x="18.3442" y="31.6069" width="1.16729" height="1.16729" transform="rotate(-13.6168 18.3442 31.6069)" fill="black"/>
<rect x="17.2097" y="31.8817" width="1.16729" height="1.16729" transform="rotate(-13.6168 17.2097 31.8817)" fill="black"/>
<rect x="14.9409" y="32.4313" width="1.16729" height="1.16729" transform="rotate(-13.6168 14.9409 32.4313)" fill="black"/>
<rect x="13.8064" y="32.7061" width="1.16729" height="1.16729" transform="rotate(-13.6168 13.8064 32.7061)" fill="black"/>
<rect x="16.0752" y="32.1565" width="1.16729" height="1.16729" transform="rotate(-13.6168 16.0752 32.1565)" fill="black"/>
<rect x="19.4788" y="31.3321" width="1.16729" height="1.16729" transform="rotate(-13.6168 19.4788 31.3321)" fill="black"/>
<rect x="20.6133" y="31.0573" width="1.16729" height="1.16729" transform="rotate(-13.6168 20.6133 31.0573)" fill="black"/>
<rect x="21.7478" y="30.7825" width="1.16729" height="1.16729" transform="rotate(-13.6168 21.7478 30.7825)" fill="black"/>
<rect x="22.8821" y="30.5076" width="1.16729" height="1.16729" transform="rotate(-13.6168 22.8821 30.5076)" fill="black"/>
<rect x="24.0166" y="30.2328" width="1.16729" height="1.16729" transform="rotate(-13.6168 24.0166 30.2328)" fill="black"/>
<rect x="25.1511" y="29.958" width="1.16729" height="1.16729" transform="rotate(-13.6168 25.1511 29.958)" fill="black"/>
<rect x="26.2856" y="29.6832" width="1.16729" height="1.16729" transform="rotate(-13.6168 26.2856 29.6832)" fill="black"/>
<rect x="27.4199" y="29.4084" width="1.16729" height="1.16729" transform="rotate(-13.6168 27.4199 29.4084)" fill="black"/>
<rect x="28.5544" y="29.1336" width="1.16729" height="1.16729" transform="rotate(-13.6168 28.5544 29.1336)" fill="black"/>
<rect x="25.426" y="31.0925" width="1.16729" height="1.16729" transform="rotate(-13.6168 25.426 31.0925)" fill="black"/>
<rect x="31.0984" y="29.7185" width="1.16729" height="1.16729" transform="rotate(-13.6168 31.0984 29.7185)" fill="black"/>
<rect x="31.373" y="30.8529" width="1.16729" height="1.16729" transform="rotate(-13.6168 31.373 30.8529)" fill="black"/>
<rect x="32.7825" y="31.7126" width="1.16729" height="1.16729" transform="rotate(-13.6168 32.7825 31.7126)" fill="black"/>
<rect x="34.1917" y="32.5723" width="1.16729" height="1.16729" transform="rotate(-13.6168 34.1917 32.5723)" fill="black"/>
<rect x="34.1917" y="32.5723" width="1.16729" height="1.16729" transform="rotate(-13.6168 34.1917 32.5723)" fill="black"/>
<rect x="24.8411" y="33.6363" width="1.16729" height="1.16729" transform="rotate(-13.6168 24.8411 33.6363)" fill="black"/>
<rect x="23.9814" y="35.0456" width="1.16729" height="1.16729" transform="rotate(-13.6168 23.9814 35.0456)" fill="black"/>
<rect x="25.7009" y="32.227" width="1.16729" height="1.16729" transform="rotate(-13.6168 25.7009 32.227)" fill="black"/>
<rect x="29.689" y="28.8588" width="1.16729" height="1.16729" transform="rotate(-13.6168 29.689 28.8588)" fill="black"/>
<rect x="30.8235" y="28.584" width="1.16729" height="1.16729" transform="rotate(-13.6168 30.8235 28.584)" fill="black"/>
<rect x="31.958" y="28.3091" width="1.16729" height="1.16729" transform="rotate(-13.6168 31.958 28.3091)" fill="black"/>
<rect x="33.0925" y="28.0344" width="1.16729" height="1.16729" transform="rotate(-13.6168 33.0925 28.0344)" fill="black"/>
<rect x="24.2561" y="36.1801" width="1.16729" height="1.16729" transform="rotate(-13.6168 24.2561 36.1801)" fill="black"/>
<rect x="25.3906" y="35.9052" width="1.16729" height="1.16729" transform="rotate(-13.6168 25.3906 35.9052)" fill="black"/>
<rect x="26.5251" y="35.6304" width="1.16729" height="1.16729" transform="rotate(-13.6168 26.5251 35.6304)" fill="black"/>
<rect x="27.6597" y="35.3557" width="1.16729" height="1.16729" transform="rotate(-13.6168 27.6597 35.3557)" fill="black"/>
<rect x="28.7942" y="35.0808" width="1.16729" height="1.16729" transform="rotate(-13.6168 28.7942 35.0808)" fill="black"/>
<rect x="29.9287" y="34.806" width="1.16729" height="1.16729" transform="rotate(-13.6168 29.9287 34.806)" fill="black"/>
<rect x="31.063" y="34.5312" width="1.16729" height="1.16729" transform="rotate(-13.6168 31.063 34.5312)" fill="black"/>
<rect x="32.1975" y="34.2564" width="1.16729" height="1.16729" transform="rotate(-13.6168 32.1975 34.2564)" fill="black"/>
<rect x="33.332" y="33.9816" width="1.16729" height="1.16729" transform="rotate(-13.6168 33.332 33.9816)" fill="black"/>
<rect x="34.4666" y="33.7068" width="1.16729" height="1.16729" transform="rotate(-13.6168 34.4666 33.7068)" fill="black"/>
<rect x="34.2271" y="27.7595" width="1.16729" height="1.16729" transform="rotate(-13.6168 34.2271 27.7595)" fill="black"/>
<rect x="35.3616" y="27.4847" width="1.16729" height="1.16729" transform="rotate(-13.6168 35.3616 27.4847)" fill="black"/>
<rect x="36.4958" y="27.2099" width="1.16729" height="1.16729" transform="rotate(-13.6168 36.4958 27.2099)" fill="black"/>
<rect x="37.6304" y="26.9351" width="1.16729" height="1.16729" transform="rotate(-13.6168 37.6304 26.9351)" fill="black"/>
<rect x="38.7649" y="26.6603" width="1.16729" height="1.16729" transform="rotate(-13.6168 38.7649 26.6603)" fill="black"/>
<rect x="39.8994" y="26.3855" width="1.16729" height="1.16729" transform="rotate(-13.6168 39.8994 26.3855)" fill="black"/>
<rect x="41.0339" y="26.1107" width="1.16729" height="1.16729" transform="rotate(-13.6168 41.0339 26.1107)" fill="black"/>
<rect x="42.1685" y="25.8359" width="1.16729" height="1.16729" transform="rotate(-13.6168 42.1685 25.8359)" fill="black"/>
<rect x="17.2449" y="27.0689" width="1.16729" height="1.16729" transform="rotate(-13.6168 17.2449 27.0689)" fill="black"/>
<rect x="16.1104" y="27.3438" width="1.16729" height="1.16729" transform="rotate(-13.6168 16.1104 27.3438)" fill="black"/>
<rect x="13.8413" y="27.8934" width="1.16729" height="1.16729" transform="rotate(-13.6168 13.8413 27.8934)" fill="black"/>
<rect x="12.707" y="28.1682" width="1.16729" height="1.16729" transform="rotate(-13.6168 12.707 28.1682)" fill="black"/>
<rect x="14.9758" y="27.6186" width="1.16729" height="1.16729" transform="rotate(-13.6168 14.9758 27.6186)" fill="black"/>
<rect x="18.3794" y="26.7942" width="1.16729" height="1.16729" transform="rotate(-13.6168 18.3794 26.7942)" fill="black"/>
<rect x="19.5139" y="26.5193" width="1.16729" height="1.16729" transform="rotate(-13.6168 19.5139 26.5193)" fill="black"/>
<rect x="20.6484" y="26.2445" width="1.16729" height="1.16729" transform="rotate(-13.6168 20.6484 26.2445)" fill="black"/>
<rect x="21.783" y="25.9697" width="1.16729" height="1.16729" transform="rotate(-13.6168 21.783 25.9697)" fill="black"/>
<rect x="22.9175" y="25.6949" width="1.16729" height="1.16729" transform="rotate(-13.6168 22.9175 25.6949)" fill="black"/>
<rect x="24.0518" y="25.4201" width="1.16729" height="1.16729" transform="rotate(-13.6168 24.0518 25.4201)" fill="black"/>
<rect x="25.1863" y="25.1453" width="1.16729" height="1.16729" transform="rotate(-13.6168 25.1863 25.1453)" fill="black"/>
<rect x="26.3208" y="24.8705" width="1.16729" height="1.16729" transform="rotate(-13.6168 26.3208 24.8705)" fill="black"/>
<rect x="27.4553" y="24.5957" width="1.16729" height="1.16729" transform="rotate(-13.6168 27.4553 24.5957)" fill="black"/>
<rect x="28.5898" y="24.3208" width="1.16729" height="1.16729" transform="rotate(-13.6168 28.5898 24.3208)" fill="black"/>
<rect x="29.7244" y="24.046" width="1.16729" height="1.16729" transform="rotate(-13.6168 29.7244 24.046)" fill="black"/>
<rect x="30.8589" y="23.7712" width="1.16729" height="1.16729" transform="rotate(-13.6168 30.8589 23.7712)" fill="black"/>
<rect x="31.9934" y="23.4964" width="1.16729" height="1.16729" transform="rotate(-13.6168 31.9934 23.4964)" fill="black"/>
<rect x="33.1277" y="23.2216" width="1.16729" height="1.16729" transform="rotate(-13.6168 33.1277 23.2216)" fill="black"/>
<rect x="34.2622" y="22.9468" width="1.16729" height="1.16729" transform="rotate(-13.6168 34.2622 22.9468)" fill="black"/>
<rect x="35.3967" y="22.672" width="1.16729" height="1.16729" transform="rotate(-13.6168 35.3967 22.672)" fill="black"/>
<rect x="36.5312" y="22.3972" width="1.16729" height="1.16729" transform="rotate(-13.6168 36.5312 22.3972)" fill="black"/>
<rect x="37.6658" y="22.1223" width="1.16729" height="1.16729" transform="rotate(-13.6168 37.6658 22.1223)" fill="black"/>
<rect x="38.8003" y="21.8475" width="1.16729" height="1.16729" transform="rotate(-13.6168 38.8003 21.8475)" fill="black"/>
<rect x="39.9346" y="21.5728" width="1.16729" height="1.16729" transform="rotate(-13.6168 39.9346 21.5728)" fill="black"/>
<rect x="41.0691" y="21.2979" width="1.16729" height="1.16729" transform="rotate(-13.6168 41.0691 21.2979)" fill="black"/>
<rect x="39.4556" y="9.67828" width="1.16729" height="1.16729" transform="rotate(-13.6168 39.4556 9.67828)" fill="black"/>
<rect x="39.1807" y="8.54379" width="1.16729" height="1.16729" transform="rotate(-13.6168 39.1807 8.54379)" fill="black"/>
<rect x="38.9058" y="7.4093" width="1.16729" height="1.16729" transform="rotate(-13.6168 38.9058 7.4093)" fill="black"/>
<rect x="55.8254" y="14.3076" width="34.125" height="39" transform="rotate(2.38245 55.8254 14.3076)" fill="#335BDF"/>
<rect x="86.9788" y="27.8018" width="1.21875" height="1.21875" transform="rotate(2.38245 86.9788 27.8018)" fill="#FFFD57"/>
<path d="M86.8774 30.2372L88.0951 30.2878L87.9938 32.7232L86.7761 32.6726L86.8774 30.2372Z" fill="#FFFD57"/>
<path d="M86.7256 33.8903L87.9433 33.9409L87.8926 35.1586L86.6749 35.108L86.7256 33.8903Z" fill="#FFFD57"/>
<path d="M85.5078 33.8396L86.7255 33.8903L86.6748 35.108L85.4571 35.0573L85.5078 33.8396Z" fill="#FFFD57"/>
<path d="M84.2903 33.7889L85.508 33.8396L85.4573 35.0573L84.2396 35.0066L84.2903 33.7889Z" fill="#FFFD57"/>
<rect x="85.7612" y="27.7511" width="1.21875" height="1.21875" transform="rotate(2.38245 85.7612 27.7511)" fill="#FFFD57"/>
<rect x="84.5435" y="27.7005" width="1.21875" height="1.21875" transform="rotate(2.38245 84.5435 27.7005)" fill="#FFFD57"/>
<rect x="83.2751" y="28.8675" width="1.21875" height="1.21875" transform="rotate(2.38245 83.2751 28.8675)" fill="#FFFD57"/>
<rect x="84.4929" y="28.9182" width="1.21875" height="1.21875" transform="rotate(2.38245 84.4929 28.9182)" fill="#FFFD57"/>
<rect x="83.2246" y="30.0852" width="1.21875" height="1.21875" transform="rotate(2.38245 83.2246 30.0852)" fill="#FFFD57"/>
<rect x="83.1738" y="31.3029" width="1.21875" height="1.21875" transform="rotate(2.38245 83.1738 31.3029)" fill="#FFFD57"/>
<rect x="83.1233" y="32.5206" width="1.21875" height="1.21875" transform="rotate(2.38245 83.1233 32.5206)" fill="#FFFD57"/>
<rect x="75.7664" y="33.4343" width="1.21875" height="1.21875" transform="rotate(2.38245 75.7664 33.4343)" fill="#FFFD57"/>
<rect x="75.7156" y="34.652" width="1.21875" height="1.21875" transform="rotate(2.38245 75.7156 34.652)" fill="#FFFD57"/>
<rect x="69.5764" y="35.6164" width="1.21875" height="1.21875" transform="rotate(2.38245 69.5764 35.6164)" fill="#FFFD57"/>
<rect x="70.7437" y="36.8847" width="1.21875" height="1.21875" transform="rotate(2.38245 70.7437 36.8847)" fill="#FFFD57"/>
<rect x="74.5994" y="32.166" width="1.21875" height="1.21875" transform="rotate(2.38245 74.5994 32.166)" fill="#FFFD57"/>
<rect x="74.8528" y="26.0775" width="1.21875" height="1.21875" transform="rotate(2.38245 74.8528 26.0775)" fill="#FFFD57"/>
<rect x="76.1716" y="23.6927" width="1.21875" height="1.21875" transform="rotate(2.38245 76.1716 23.6927)" fill="#FFFD57"/>
<rect x="74.9541" y="23.6421" width="1.21875" height="1.21875" transform="rotate(2.38245 74.9541 23.6421)" fill="#FFFD57"/>
<rect x="66.3794" y="24.5051" width="2.4375" height="2.4375" transform="rotate(2.38245 66.3794 24.5051)" fill="#FFFD57"/>
<rect x="57.5515" y="31.4567" width="1.21875" height="1.21875" transform="rotate(2.38245 57.5515 31.4567)" fill="#FFFD57"/>
<rect x="57.8049" y="25.3682" width="1.21875" height="1.21875" transform="rotate(2.38245 57.8049 25.3682)" fill="#FFFD57"/>
<rect x="55.9285" y="41.1476" width="1.21875" height="1.21875" transform="rotate(2.38245 55.9285 41.1476)" fill="#FFFD57"/>
<rect x="57.0957" y="42.416" width="1.21875" height="1.21875" transform="rotate(2.38245 57.0957 42.416)" fill="#FFFD57"/>
<rect x="76.0703" y="26.1281" width="1.21875" height="1.21875" transform="rotate(2.38245 76.0703 26.1281)" fill="#FFFD57"/>
<rect x="74.802" y="27.2952" width="1.21875" height="1.21875" transform="rotate(2.38245 74.802 27.2952)" fill="#FFFD57"/>
<rect x="66.9385" y="40.3858" width="1.21875" height="1.21875" transform="rotate(2.38245 66.9385 40.3858)" fill="#FFFD57"/>
<rect x="63.2854" y="40.2339" width="1.21875" height="1.21875" transform="rotate(2.38245 63.2854 40.2339)" fill="#FFFD57"/>
<rect x="63.3359" y="39.0162" width="1.21875" height="1.21875" transform="rotate(2.38245 63.3359 39.0162)" fill="#FFFD57"/>
<rect x="64.4524" y="41.5022" width="1.21875" height="1.21875" transform="rotate(2.38245 64.4524 41.5022)" fill="#FFFD57"/>
<rect x="65.6702" y="41.5529" width="1.21875" height="1.21875" transform="rotate(2.38245 65.6702 41.5529)" fill="#FFFD57"/>
<rect x="64.6042" y="37.8491" width="2.4375" height="1.21875" transform="rotate(2.38245 64.6042 37.8491)" fill="#FFFD57"/>
<rect x="66.9893" y="39.1682" width="1.21875" height="1.21875" transform="rotate(2.38245 66.9893 39.1682)" fill="#FFFD57"/>
<rect x="72.1638" y="32.0646" width="1.21875" height="1.21875" transform="rotate(2.38245 72.1638 32.0646)" fill="#FFFD57"/>
<rect x="70.9968" y="30.7963" width="1.21875" height="1.21875" transform="rotate(2.38245 70.9968 30.7963)" fill="#FFFD57"/>
<rect x="79.4702" y="32.3686" width="1.21875" height="1.21875" transform="rotate(2.38245 79.4702 32.3686)" fill="#FFFD57"/>
<rect x="79.5208" y="31.1509" width="1.21875" height="1.21875" transform="rotate(2.38245 79.5208 31.1509)" fill="#FFFD57"/>
<rect x="78.303" y="31.1003" width="1.21875" height="1.21875" transform="rotate(2.38245 78.303 31.1003)" fill="#FFFD57"/>
<rect x="78.2524" y="32.3179" width="1.21875" height="1.21875" transform="rotate(2.38245 78.2524 32.3179)" fill="#FFFD57"/>
<rect x="87.0295" y="26.5841" width="1.21875" height="1.21875" transform="rotate(2.38245 87.0295 26.5841)" fill="#50ACEB"/>
<rect x="85.8118" y="26.5334" width="1.21875" height="1.21875" transform="rotate(2.38245 85.8118 26.5334)" fill="#50ACEB"/>
<rect x="84.5942" y="26.4828" width="1.21875" height="1.21875" transform="rotate(2.38245 84.5942 26.4828)" fill="#50ACEB"/>
<rect x="83.3259" y="27.6498" width="1.21875" height="1.21875" transform="rotate(2.38245 83.3259 27.6498)" fill="#50ACEB"/>
<rect x="82.0574" y="28.8168" width="1.21875" height="1.21875" transform="rotate(2.38245 82.0574 28.8168)" fill="#50ACEB"/>
<rect x="82.0068" y="30.0345" width="1.21875" height="1.21875" transform="rotate(2.38245 82.0068 30.0345)" fill="#50ACEB"/>
<rect x="81.9561" y="31.2522" width="1.21875" height="1.21875" transform="rotate(2.38245 81.9561 31.2522)" fill="#50ACEB"/>
<rect x="81.9055" y="32.4699" width="1.21875" height="1.21875" transform="rotate(2.38245 81.9055 32.4699)" fill="#50ACEB"/>
<rect x="80.6877" y="32.4193" width="1.21875" height="1.21875" transform="rotate(2.38245 80.6877 32.4193)" fill="#50ACEB"/>
<rect x="79.4194" y="33.5863" width="1.21875" height="1.21875" transform="rotate(2.38245 79.4194 33.5863)" fill="#50ACEB"/>
<rect x="78.2017" y="33.5356" width="1.21875" height="1.21875" transform="rotate(2.38245 78.2017 33.5356)" fill="#50ACEB"/>
<path d="M73.2803 34.5507L74.498 34.6014L74.4473 35.819L73.2296 35.7684L73.2803 34.5507Z" fill="#50ACEB"/>
<rect x="73.3816" y="32.1153" width="1.21875" height="1.21875" transform="rotate(2.38245 73.3816 32.1153)" fill="#50ACEB"/>
<rect x="73.3308" y="33.333" width="1.21875" height="1.21875" transform="rotate(2.38245 73.3308 33.333)" fill="#50ACEB"/>
<rect x="72.2146" y="30.8469" width="1.21875" height="1.21875" transform="rotate(2.38245 72.2146 30.8469)" fill="#50ACEB"/>
<rect x="69.8298" y="29.5279" width="1.21875" height="1.21875" transform="rotate(2.38245 69.8298 29.5279)" fill="#50ACEB"/>
<rect x="71.0981" y="28.3609" width="2.4375" height="1.21875" transform="rotate(2.38245 71.0981 28.3609)" fill="#50ACEB"/>
<rect x="74.7515" y="28.5128" width="2.4375" height="1.21875" transform="rotate(2.38245 74.7515 28.5128)" fill="#50ACEB"/>
<rect x="73.6348" y="26.0268" width="1.21875" height="2.4375" transform="rotate(2.38245 73.6348 26.0268)" fill="#50ACEB"/>
<rect x="68.8147" y="24.6064" width="1.21875" height="2.4375" transform="rotate(2.38245 68.8147 24.6064)" fill="#50ACEB"/>
<rect x="66.2781" y="26.9405" width="2.4375" height="1.21875" transform="rotate(2.38245 66.2781 26.9405)" fill="#50ACEB"/>
<rect x="66.4302" y="23.2874" width="2.4375" height="1.21875" transform="rotate(2.38245 66.4302 23.2874)" fill="#50ACEB"/>
<rect x="74.9033" y="24.8598" width="2.4375" height="1.21875" transform="rotate(2.38245 74.9033 24.8598)" fill="#50ACEB"/>
<rect x="66.1768" y="29.3759" width="2.4375" height="1.21875" transform="rotate(2.38245 66.1768 29.3759)" fill="#50ACEB"/>
<rect x="64.9084" y="30.5429" width="1.21875" height="1.21875" transform="rotate(2.38245 64.9084 30.5429)" fill="#50ACEB"/>
<rect x="64.8071" y="32.9783" width="1.21875" height="1.21875" transform="rotate(2.38245 64.8071 32.9783)" fill="#50ACEB"/>
<rect x="65.9741" y="34.2467" width="1.21875" height="1.21875" transform="rotate(2.38245 65.9741 34.2467)" fill="#50ACEB"/>
<rect x="63.5388" y="34.1454" width="1.21875" height="1.21875" transform="rotate(2.38245 63.5388 34.1454)" fill="#50ACEB"/>
<rect x="64.7058" y="35.4137" width="1.21875" height="1.21875" transform="rotate(2.38245 64.7058 35.4137)" fill="#50ACEB"/>
<rect x="64.655" y="36.6314" width="2.4375" height="1.21875" transform="rotate(2.38245 64.655 36.6314)" fill="#50ACEB"/>
<rect x="63.3867" y="37.7985" width="1.21875" height="1.21875" transform="rotate(2.38245 63.3867 37.7985)" fill="#50ACEB"/>
<rect x="67.0398" y="37.9504" width="1.21875" height="1.21875" transform="rotate(2.38245 67.0398 37.9504)" fill="#50ACEB"/>
<rect x="63.2346" y="41.4515" width="1.21875" height="1.21875" transform="rotate(2.38245 63.2346 41.4515)" fill="#50ACEB"/>
<rect x="66.8879" y="41.6035" width="1.21875" height="1.21875" transform="rotate(2.38245 66.8879 41.6035)" fill="#50ACEB"/>
<rect x="68.2068" y="39.2188" width="1.21875" height="2.4375" transform="rotate(2.38245 68.2068 39.2188)" fill="#50ACEB"/>
<rect x="65.6196" y="42.7706" width="1.21875" height="1.21875" transform="rotate(2.38245 65.6196 42.7706)" fill="#50ACEB"/>
<rect x="62.1184" y="38.9655" width="1.21875" height="2.4375" transform="rotate(2.38245 62.1184 38.9655)" fill="#50ACEB"/>
<rect x="62.625" y="26.7885" width="1.21875" height="1.21875" transform="rotate(2.38245 62.625 26.7885)" fill="#50ACEB"/>
<rect x="63.792" y="28.0569" width="1.21875" height="2.4375" transform="rotate(2.38245 63.792 28.0569)" fill="#50ACEB"/>
<rect x="61.2551" y="30.391" width="2.4375" height="1.21875" transform="rotate(2.38245 61.2551 30.391)" fill="#50ACEB"/>
<rect x="65.1616" y="24.4545" width="1.21875" height="2.4375" transform="rotate(2.38245 65.1616 24.4545)" fill="#50ACEB"/>
<rect x="56.5872" y="25.3175" width="1.21875" height="1.21875" transform="rotate(2.38245 56.5872 25.3175)" fill="#50ACEB"/>
<rect x="59.0227" y="25.4189" width="1.21875" height="1.21875" transform="rotate(2.38245 59.0227 25.4189)" fill="#50ACEB"/>
<rect x="57.7036" y="27.8036" width="1.21875" height="1.21875" transform="rotate(2.38245 57.7036 27.8036)" fill="#50ACEB"/>
<rect x="57.9062" y="22.9328" width="1.21875" height="1.21875" transform="rotate(2.38245 57.9062 22.9328)" fill="#50ACEB"/>
<rect x="56.6377" y="24.0998" width="3.65625" height="1.21875" transform="rotate(2.38245 56.6377 24.0998)" fill="#50ACEB"/>
<rect x="58.8706" y="29.0719" width="1.21875" height="1.21875" transform="rotate(2.38245 58.8706 29.0719)" fill="#50ACEB"/>
<rect x="57.197" y="39.9805" width="1.21875" height="1.21875" transform="rotate(2.38245 57.197 39.9805)" fill="#50ACEB"/>
<rect x="56.9944" y="44.8513" width="1.21875" height="1.21875" transform="rotate(2.38245 56.9944 44.8513)" fill="#50ACEB"/>
<rect x="55.8271" y="43.583" width="1.21875" height="1.21875" transform="rotate(2.38245 55.8271 43.583)" fill="#50ACEB"/>
<rect x="57.501" y="32.6743" width="2.4375" height="1.21875" transform="rotate(2.38245 57.501 32.6743)" fill="#50ACEB"/>
<rect x="56.0806" y="37.4945" width="2.4375" height="1.21875" transform="rotate(2.38245 56.0806 37.4945)" fill="#50ACEB"/>
<rect x="56.3845" y="30.1883" width="1.21875" height="2.4375" transform="rotate(2.38245 56.3845 30.1883)" fill="#50ACEB"/>
<rect x="56.5364" y="26.5352" width="3.65625" height="1.21875" transform="rotate(2.38245 56.5364 26.5352)" fill="#50ACEB"/>
<rect x="77.2881" y="26.1788" width="1.21875" height="2.4375" transform="rotate(2.38245 77.2881 26.1788)" fill="#50ACEB"/>
<rect x="77.0347" y="32.2673" width="1.21875" height="1.21875" transform="rotate(2.38245 77.0347 32.2673)" fill="#50ACEB"/>
<rect x="77.0854" y="31.0496" width="1.21875" height="1.21875" transform="rotate(2.38245 77.0854 31.0496)" fill="#50ACEB"/>
<rect x="78.3538" y="29.8825" width="1.21875" height="1.21875" transform="rotate(2.38245 78.3538 29.8825)" fill="#50ACEB"/>
<rect x="79.5715" y="29.9332" width="1.21875" height="1.21875" transform="rotate(2.38245 79.5715 29.9332)" fill="#50ACEB"/>
<rect x="80.7385" y="31.2016" width="1.21875" height="1.21875" transform="rotate(2.38245 80.7385 31.2016)" fill="#50ACEB"/>
<rect x="83.0725" y="33.7383" width="1.21875" height="1.21875" transform="rotate(2.38245 83.0725 33.7383)" fill="#50ACEB"/>
<rect x="84.2395" y="35.0067" width="1.21875" height="1.21875" transform="rotate(2.38245 84.2395 35.0067)" fill="#50ACEB"/>
<rect x="85.4573" y="35.0573" width="1.21875" height="1.21875" transform="rotate(2.38245 85.4573 35.0573)" fill="#50ACEB"/>
<rect x="80.4346" y="38.5078" width="1.21875" height="1.21875" transform="rotate(2.38245 80.4346 38.5078)" fill="#50ACEB"/>
<rect x="80.4851" y="37.29" width="1.21875" height="1.21875" transform="rotate(2.38245 80.4851 37.29)" fill="#50ACEB"/>
<rect x="79.2676" y="37.2394" width="1.21875" height="1.21875" transform="rotate(2.38245 79.2676 37.2394)" fill="#50ACEB"/>
<rect x="79.3181" y="36.0217" width="1.21875" height="1.21875" transform="rotate(2.38245 79.3181 36.0217)" fill="#50ACEB"/>
<rect x="78.1003" y="35.971" width="1.21875" height="1.21875" transform="rotate(2.38245 78.1003 35.971)" fill="#50ACEB"/>
<rect x="76.8826" y="35.9204" width="1.21875" height="1.21875" transform="rotate(2.38245 76.8826 35.9204)" fill="#50ACEB"/>
<rect x="75.6143" y="37.0874" width="1.21875" height="1.21875" transform="rotate(2.38245 75.6143 37.0874)" fill="#50ACEB"/>
<rect x="74.3459" y="38.2544" width="1.21875" height="1.21875" transform="rotate(2.38245 74.3459 38.2544)" fill="#50ACEB"/>
<rect x="72.012" y="35.7177" width="1.21875" height="1.21875" transform="rotate(2.38245 72.012 35.7177)" fill="#50ACEB"/>
<rect x="70.6929" y="38.1024" width="1.21875" height="1.21875" transform="rotate(2.38245 70.6929 38.1024)" fill="#50ACEB"/>
<rect x="69.5259" y="36.8341" width="1.21875" height="1.21875" transform="rotate(2.38245 69.5259 36.8341)" fill="#50ACEB"/>
<rect x="68.4094" y="34.348" width="1.21875" height="2.4375" transform="rotate(2.38245 68.4094 34.348)" fill="#50ACEB"/>
<rect x="71.8599" y="39.3708" width="2.4375" height="1.21875" transform="rotate(2.38245 71.8599 39.3708)" fill="#50ACEB"/>
<rect x="81.6016" y="39.7761" width="1.21875" height="1.21875" transform="rotate(2.38245 81.6016 39.7761)" fill="#50ACEB"/>
<rect x="80.3333" y="40.9431" width="1.21875" height="1.21875" transform="rotate(2.38245 80.3333 40.9431)" fill="#50ACEB"/>
<rect x="82.7686" y="41.0445" width="1.21875" height="1.21875" transform="rotate(2.38245 82.7686 41.0445)" fill="#50ACEB"/>
<rect x="81.5002" y="42.2115" width="1.21875" height="1.21875" transform="rotate(2.38245 81.5002 42.2115)" fill="#50ACEB"/>
<rect x="85.1025" y="43.5812" width="1.21875" height="1.21875" transform="rotate(2.38245 85.1025 43.5812)" fill="#50ACEB"/>
<rect x="80.1812" y="44.5962" width="4.875" height="1.21875" transform="rotate(2.38245 80.1812 44.5962)" fill="#50ACEB"/>
<rect x="78.4258" y="45.743" width="4.14375" height="1.21875" transform="rotate(2.38245 78.4258 45.743)" fill="#50ACEB"/>
<rect x="75.209" y="46.8289" width="4.875" height="1.21875" transform="rotate(2.38245 75.209 46.8289)" fill="#50ACEB"/>
<rect x="86.6748" y="35.108" width="1.21875" height="1.21875" transform="rotate(2.38245 86.6748 35.108)" fill="#50ACEB"/>
<rect x="82.1082" y="27.5992" width="1.21875" height="1.21875" transform="rotate(2.38245 82.1082 27.5992)" fill="white"/>
<rect x="80.8904" y="27.5485" width="1.21875" height="1.21875" transform="rotate(2.38245 80.8904 27.5485)" fill="white"/>
<rect x="79.6221" y="28.7155" width="1.21875" height="1.21875" transform="rotate(2.38245 79.6221 28.7155)" fill="white"/>
<rect x="75.8171" y="32.2166" width="1.21875" height="1.21875" transform="rotate(2.38245 75.8171 32.2166)" fill="white"/>
<rect x="74.6501" y="30.9483" width="1.21875" height="1.21875" transform="rotate(2.38245 74.6501 30.9483)" fill="white"/>
<rect x="71.0476" y="29.5786" width="3.65625" height="1.21875" transform="rotate(2.38245 71.0476 29.5786)" fill="white"/>
<rect x="74.4473" y="35.819" width="1.21875" height="1.21875" transform="rotate(2.38245 74.4473 35.819)" fill="white"/>
<rect x="70.6423" y="39.3202" width="1.21875" height="1.21875" transform="rotate(2.38245 70.6423 39.3202)" fill="white"/>
<rect x="69.4751" y="38.0518" width="1.21875" height="1.21875" transform="rotate(2.38245 69.4751 38.0518)" fill="white"/>
<rect x="69.6272" y="34.3987" width="1.21875" height="1.21875" transform="rotate(2.38245 69.6272 34.3987)" fill="white"/>
<rect x="70.7942" y="35.6671" width="1.21875" height="1.21875" transform="rotate(2.38245 70.7942 35.6671)" fill="white"/>
<rect x="72.1133" y="33.2823" width="1.21875" height="2.4375" transform="rotate(2.38245 72.1133 33.2823)" fill="white"/>
<rect x="68.4602" y="33.1303" width="1.21875" height="1.21875" transform="rotate(2.38245 68.4602 33.1303)" fill="white"/>
<rect x="61.1538" y="32.8264" width="1.21875" height="1.21875" transform="rotate(2.38245 61.1538 32.8264)" fill="white"/>
<rect x="56.4351" y="28.9706" width="1.21875" height="1.21875" transform="rotate(2.38245 56.4351 28.9706)" fill="white"/>
<rect x="57.6023" y="30.239" width="1.21875" height="1.21875" transform="rotate(2.38245 57.6023 30.239)" fill="white"/>
<rect x="58.7693" y="31.5073" width="1.21875" height="1.21875" transform="rotate(2.38245 58.7693 31.5073)" fill="white"/>
<rect x="57.2476" y="38.7628" width="1.21875" height="1.21875" transform="rotate(2.38245 57.2476 38.7628)" fill="white"/>
<rect x="55.9792" y="39.9299" width="1.21875" height="1.21875" transform="rotate(2.38245 55.9792 39.9299)" fill="white"/>
<rect x="55.8779" y="42.3653" width="1.21875" height="1.21875" transform="rotate(2.38245 55.8779 42.3653)" fill="white"/>
<rect x="57.0449" y="43.6336" width="1.21875" height="1.21875" transform="rotate(2.38245 57.0449 43.6336)" fill="white"/>
<rect x="56.2832" y="32.6237" width="1.21875" height="2.4375" transform="rotate(2.38245 56.2832 32.6237)" fill="white"/>
<rect x="63.5894" y="32.9277" width="1.21875" height="1.21875" transform="rotate(2.38245 63.5894 32.9277)" fill="white"/>
<rect x="64.8577" y="31.7607" width="1.21875" height="1.21875" transform="rotate(2.38245 64.8577 31.7607)" fill="white"/>
<rect x="64.7563" y="34.196" width="1.21875" height="1.21875" transform="rotate(2.38245 64.7563 34.196)" fill="white"/>
<rect x="62.321" y="34.0947" width="1.21875" height="2.4375" transform="rotate(2.38245 62.321 34.0947)" fill="white"/>
<rect x="69.6777" y="33.181" width="1.21875" height="1.21875" transform="rotate(2.38245 69.6777 33.181)" fill="white"/>
<rect x="70.9463" y="32.0139" width="1.21875" height="1.21875" transform="rotate(2.38245 70.9463 32.0139)" fill="white"/>
<rect x="66.1262" y="30.5936" width="4.875" height="1.21875" transform="rotate(2.38245 66.1262 30.5936)" fill="white"/>
<rect x="68.3081" y="36.7834" width="1.21875" height="1.21875" transform="rotate(2.38245 68.3081 36.7834)" fill="white"/>
<rect x="67.1919" y="34.2974" width="1.21875" height="2.4375" transform="rotate(2.38245 67.1919 34.2974)" fill="white"/>
<rect x="71.9612" y="36.9354" width="3.65625" height="1.21875" transform="rotate(2.38245 71.9612 36.9354)" fill="white"/>
<rect x="86.6243" y="36.3257" width="1.21875" height="1.21875" transform="rotate(2.38245 86.6243 36.3257)" fill="white"/>
<rect x="84.1382" y="37.442" width="1.21875" height="1.21875" transform="rotate(2.38245 84.1382 37.442)" fill="white"/>
<rect x="81.7029" y="37.3407" width="1.21875" height="1.21875" transform="rotate(2.38245 81.7029 37.3407)" fill="white"/>
<rect x="79.2168" y="38.4571" width="1.21875" height="1.21875" transform="rotate(2.38245 79.2168 38.4571)" fill="white"/>
<rect x="79.1663" y="39.6748" width="1.21875" height="1.21875" transform="rotate(2.38245 79.1663 39.6748)" fill="white"/>
<rect x="77.9482" y="39.6241" width="1.21875" height="1.21875" transform="rotate(2.38245 77.9482 39.6241)" fill="white"/>
<rect x="79.0649" y="42.1102" width="1.21875" height="1.21875" transform="rotate(2.38245 79.0649 42.1102)" fill="white"/>
<rect x="77.8469" y="42.0595" width="1.21875" height="1.21875" transform="rotate(2.38245 77.8469 42.0595)" fill="white"/>
<rect x="76.6294" y="42.0089" width="1.21875" height="1.21875" transform="rotate(2.38245 76.6294 42.0089)" fill="white"/>
<rect x="75.4116" y="41.9582" width="1.21875" height="1.21875" transform="rotate(2.38245 75.4116 41.9582)" fill="white"/>
<rect x="75.4116" y="41.9582" width="1.21875" height="1.21875" transform="rotate(2.38245 75.4116 41.9582)" fill="white"/>
<rect x="75.3611" y="43.1759" width="1.21875" height="1.21875" transform="rotate(2.38245 75.3611 43.1759)" fill="white"/>
<rect x="74.1433" y="43.1252" width="1.21875" height="1.21875" transform="rotate(2.38245 74.1433 43.1252)" fill="white"/>
<rect x="72.9255" y="43.0746" width="1.21875" height="1.21875" transform="rotate(2.38245 72.9255 43.0746)" fill="white"/>
<rect x="71.708" y="43.0239" width="1.21875" height="1.21875" transform="rotate(2.38245 71.708 43.0239)" fill="white"/>
<rect x="70.4397" y="44.1909" width="1.21875" height="1.21875" transform="rotate(2.38245 70.4397 44.1909)" fill="white"/>
<rect x="69.1711" y="45.3579" width="1.21875" height="1.21875" transform="rotate(2.38245 69.1711 45.3579)" fill="white"/>
<rect x="67.9536" y="45.3073" width="1.21875" height="1.21875" transform="rotate(2.38245 67.9536 45.3073)" fill="white"/>
<rect x="80.5359" y="36.0724" width="1.21875" height="1.21875" transform="rotate(2.38245 80.5359 36.0724)" fill="white"/>
<rect x="79.3689" y="34.804" width="1.21875" height="1.21875" transform="rotate(2.38245 79.3689 34.804)" fill="white"/>
<rect x="78.1509" y="34.7533" width="1.21875" height="1.21875" transform="rotate(2.38245 78.1509 34.7533)" fill="white"/>
<rect x="83.3765" y="26.4321" width="1.21875" height="1.21875" transform="rotate(2.38245 83.3765 26.4321)" fill="white"/>
<rect x="84.6448" y="25.2651" width="1.21875" height="1.21875" transform="rotate(2.38245 84.6448 25.2651)" fill="white"/>
<rect x="85.8625" y="25.3157" width="2.4375" height="1.21875" transform="rotate(2.38245 85.8625 25.3157)" fill="white"/>
<rect x="86.2173" y="16.7918" width="2.4375" height="1.21875" transform="rotate(2.38245 86.2173 16.7918)" fill="white"/>
<rect x="84.949" y="17.9589" width="1.21875" height="1.21875" transform="rotate(2.38245 84.949 17.9589)" fill="white"/>
<rect x="83.6807" y="19.1259" width="1.21875" height="2.4375" transform="rotate(2.38245 83.6807 19.1259)" fill="white"/>
<rect x="82.3613" y="21.5107" width="1.21875" height="1.21875" transform="rotate(2.38245 82.3613 21.5107)" fill="white"/>
<rect x="77.3386" y="24.9611" width="1.21875" height="1.21875" transform="rotate(2.38245 77.3386 24.9611)" fill="white"/>
<rect x="56.9417" y="16.7936" width="1.21875" height="1.21875" transform="rotate(2.38245 56.9417 16.7936)" fill="white"/>
<rect x="58.1089" y="18.062" width="1.21875" height="1.21875" transform="rotate(2.38245 58.1089 18.062)" fill="white"/>
<rect x="66.4807" y="22.0697" width="1.70625" height="1.21875" transform="rotate(2.38245 66.4807 22.0697)" fill="white"/>
<rect x="63.5076" y="23.1658" width="2.925" height="1.21875" transform="rotate(2.38245 63.5076 23.1658)" fill="white"/>
<rect x="60.291" y="24.2518" width="3.4125" height="1.21875" transform="rotate(2.38245 60.291 24.2518)" fill="white"/>
<rect x="62.929" y="19.4824" width="1.95" height="1.21875" transform="rotate(2.38245 62.929 19.4824)" fill="white"/>
<rect x="64.0044" y="17.0875" width="1.21875" height="2.4375" transform="rotate(2.38245 64.0044 17.0875)" fill="white"/>
<rect x="67.2212" y="16.0015" width="1.21875" height="2.4375" transform="rotate(2.38245 67.2212 16.0015)" fill="white"/>
<rect x="68.439" y="16.0522" width="2.4375" height="1.21875" transform="rotate(2.38245 68.439 16.0522)" fill="white"/>
<rect x="59.2759" y="19.3304" width="2.19375" height="1.21875" transform="rotate(2.38245 59.2759 19.3304)" fill="white"/>
<rect x="61.4172" y="20.6393" width="2.19375" height="1.21875" transform="rotate(2.38245 61.4172 20.6393)" fill="white"/>
<rect x="79.8755" y="22.627" width="2.4375" height="1.21875" transform="rotate(2.38245 79.8755 22.627)" fill="white"/>
<rect x="77.3894" y="23.7434" width="2.4375" height="1.21875" transform="rotate(2.38245 77.3894 23.7434)" fill="white"/>
<rect x="72.4678" y="24.7584" width="2.4375" height="1.21875" transform="rotate(2.38245 72.4678 24.7584)" fill="white"/>
<rect x="69.9817" y="25.8748" width="2.4375" height="1.21875" transform="rotate(2.38245 69.9817 25.8748)" fill="white"/>
<rect x="86.4722" y="39.9788" width="1.21875" height="1.21875" transform="rotate(2.38245 86.4722 39.9788)" fill="black"/>
<rect x="86.4216" y="41.1964" width="1.21875" height="1.21875" transform="rotate(2.38245 86.4216 41.1964)" fill="black"/>
<rect x="86.3708" y="42.4142" width="1.21875" height="1.21875" transform="rotate(2.38245 86.3708 42.4142)" fill="black"/>
<rect x="85.1533" y="42.3635" width="1.21875" height="1.21875" transform="rotate(2.38245 85.1533 42.3635)" fill="black"/>
<rect x="85.2039" y="41.1458" width="1.21875" height="1.21875" transform="rotate(2.38245 85.2039 41.1458)" fill="black"/>
<rect x="83.9355" y="42.3128" width="1.21875" height="1.21875" transform="rotate(2.38245 83.9355 42.3128)" fill="black"/>
<rect x="76.5281" y="44.4442" width="1.21875" height="1.21875" transform="rotate(2.38245 76.5281 44.4442)" fill="black"/>
<rect x="57.9587" y="50.9905" width="9.75" height="1.21875" transform="rotate(2.38245 57.9587 50.9905)" fill="black"/>
<rect x="56.7917" y="49.7221" width="10.9688" height="1.21875" transform="rotate(2.38245 56.7917 49.7221)" fill="black"/>
<rect x="58.364" y="41.2489" width="4.875" height="7.3125" transform="rotate(2.38245 58.364 41.2489)" fill="black"/>
<rect x="56.8423" y="48.5044" width="9.75" height="1.21875" transform="rotate(2.38245 56.8423 48.5044)" fill="black"/>
<rect x="56.9436" y="46.069" width="9.75" height="1.21875" transform="rotate(2.38245 56.9436 46.069)" fill="black"/>
<rect x="63.5698" y="45.1249" width="1.95" height="1.21875" transform="rotate(2.38245 63.5698 45.1249)" fill="black"/>
<rect x="58.364" y="41.2489" width="4.875" height="4.875" transform="rotate(2.38245 58.364 41.2489)" fill="black"/>
<rect x="58.668" y="33.9427" width="3.65625" height="7.3125" transform="rotate(2.38245 58.668 33.9427)" fill="black"/>
<rect x="60.1895" y="26.6872" width="1.21875" height="7.3125" transform="rotate(2.38245 60.1895 26.6872)" fill="black"/>
<rect x="61.4578" y="25.5202" width="1.21875" height="2.4375" transform="rotate(2.38245 61.4578 25.5202)" fill="black"/>
<rect x="63.6206" y="43.9072" width="0.73125" height="1.21875" transform="rotate(2.38245 63.6206 43.9072)" fill="black"/>
<rect x="64.4016" y="42.7199" width="1.21875" height="1.21875" transform="rotate(2.38245 64.4016 42.7199)" fill="black"/>
<rect x="56.8931" y="47.2867" width="10.9688" height="1.21875" transform="rotate(2.38245 56.8931 47.2867)" fill="black"/>
<rect x="56.9436" y="46.069" width="9.75" height="3.65625" transform="rotate(2.38245 56.9436 46.069)" fill="black"/>
<rect x="58.1614" y="46.1197" width="8.53125" height="6.09375" transform="rotate(2.38245 58.1614 46.1197)" fill="black"/>
<rect x="76.5786" y="43.2266" width="8.53125" height="1.21875" transform="rotate(2.38245 76.5786 43.2266)" fill="black"/>
<rect x="80.0798" y="47.0316" width="7.3125" height="1.21875" transform="rotate(2.38245 80.0798 47.0316)" fill="#3C8F58"/>
<rect x="83.6824" y="48.4013" width="3.65625" height="1.21875" transform="rotate(2.38245 83.6824 48.4013)" fill="#3C8F58"/>
<rect x="84.8494" y="49.6697" width="2.4375" height="1.21875" transform="rotate(2.38245 84.8494 49.6697)" fill="#3C8F58"/>
<rect x="75.1077" y="49.2644" width="6.09375" height="1.21875" transform="rotate(2.38245 75.1077 49.2644)" fill="#3C8F58"/>
<rect x="71.4041" y="50.3301" width="4.875" height="1.21875" transform="rotate(2.38245 71.4041 50.3301)" fill="#3C8F58"/>
<rect x="69.019" y="49.011" width="1.95" height="1.21875" transform="rotate(2.38245 69.019 49.011)" fill="#3C8F58"/>
<rect x="75.1584" y="48.0467" width="6.09375" height="1.21875" transform="rotate(2.38245 75.1584 48.0467)" fill="#3C8F58"/>
<rect x="77.4924" y="50.5834" width="1.21875" height="1.21875" transform="rotate(2.38245 77.4924 50.5834)" fill="#3C8F58"/>
<rect x="55.5232" y="50.8892" width="1.21875" height="1.21875" transform="rotate(2.38245 55.5232 50.8892)" fill="#3C8F58"/>
<rect x="56.741" y="50.9398" width="1.21875" height="1.21875" transform="rotate(2.38245 56.741 50.9398)" fill="#3C8F58"/>
<rect x="55.574" y="49.6714" width="1.21875" height="1.21875" transform="rotate(2.38245 55.574 49.6714)" fill="#3C8F58"/>
<rect x="55.6245" y="48.4538" width="1.21875" height="1.21875" transform="rotate(2.38245 55.6245 48.4538)" fill="#3C8F58"/>
<rect x="81.2468" y="48.3" width="2.4375" height="1.21875" transform="rotate(2.38245 81.2468 48.3)" fill="#7B7B7B"/>
<rect x="78.7102" y="50.634" width="1.21875" height="1.21875" transform="rotate(2.38245 78.7102 50.634)" fill="#7B7B7B"/>
<rect x="81.196" y="49.5177" width="3.65625" height="1.21875" transform="rotate(2.38245 81.196 49.5177)" fill="#7B7B7B"/>
<rect x="76.2747" y="50.5327" width="1.21875" height="1.21875" transform="rotate(2.38245 76.2747 50.5327)" fill="#7B7B7B"/>
<rect x="66.584" y="48.9097" width="1.21875" height="1.21875" transform="rotate(2.38245 66.584 48.9097)" fill="#7B7B7B"/>
<rect x="67.8015" y="48.9604" width="1.21875" height="1.21875" transform="rotate(2.38245 67.8015 48.9604)" fill="#7B7B7B"/>
<rect x="73.8901" y="49.2137" width="1.21875" height="1.21875" transform="rotate(2.38245 73.8901 49.2137)" fill="#7B7B7B"/>
<rect x="73.5549" y="45.5403" width="1.70625" height="2.4375" transform="rotate(2.38245 73.5549 45.5403)" fill="#7B7B7B"/>
<rect x="72.6724" y="49.163" width="1.21875" height="1.21875" transform="rotate(2.38245 72.6724 49.163)" fill="#7B7B7B"/>
<rect x="70.9675" y="49.0921" width="1.70625" height="1.21875" transform="rotate(2.38245 70.9675 49.0921)" fill="#7B7B7B"/>
<rect x="71.5054" y="47.8947" width="3.65625" height="1.21875" transform="rotate(2.38245 71.5054 47.8947)" fill="#7B7B7B"/>
<rect x="67.7507" y="50.1781" width="3.65625" height="1.21875" transform="rotate(2.38245 67.7507 50.1781)" fill="#7B7B7B"/>
<rect x="67.7002" y="51.3958" width="13.4062" height="1.21875" transform="rotate(2.38245 67.7002 51.3958)" fill="#7B7B7B"/>
<rect x="67.7002" y="51.3958" width="13.4062" height="1.21875" transform="rotate(2.38245 67.7002 51.3958)" fill="#7B7B7B"/>
<rect x="79.9277" y="50.6847" width="7.3125" height="1.21875" transform="rotate(2.38245 79.9277 50.6847)" fill="#3C8F58"/>
<rect x="81.0947" y="51.9531" width="6.09375" height="1.21875" transform="rotate(2.38245 81.0947 51.9531)" fill="#3C8F58"/>
<path d="M82.8699 38.6091L84.0876 38.6597L84.0369 39.8774L82.8192 39.8268L82.8699 38.6091Z" fill="#FFFD57"/>
<path d="M84.0876 38.6597L85.3053 38.7104L85.2547 39.9281L84.037 39.8774L84.0876 38.6597Z" fill="#FFFD57"/>
<path d="M81.5508 40.9938L82.7685 41.0445L82.7178 42.2622L81.5001 42.2115L81.5508 40.9938Z" fill="#FFFD57"/>
<rect x="85.7104" y="28.9688" width="2.4375" height="1.21875" transform="rotate(2.38245 85.7104 28.9688)" fill="#F7C23E"/>
<rect x="85.6599" y="30.1865" width="1.21875" height="2.4375" transform="rotate(2.38245 85.6599 30.1865)" fill="#F7C23E"/>
<rect x="84.4421" y="30.1359" width="1.21875" height="2.4375" transform="rotate(2.38245 84.4421 30.1359)" fill="#F7C23E"/>
<rect x="84.3408" y="32.5713" width="1.21875" height="1.21875" transform="rotate(2.38245 84.3408 32.5713)" fill="#F7C23E"/>
<rect x="75.665" y="35.8697" width="1.21875" height="1.21875" transform="rotate(2.38245 75.665 35.8697)" fill="#F7C23E"/>
<rect x="76.0198" y="27.3458" width="1.21875" height="1.21875" transform="rotate(2.38245 76.0198 27.3458)" fill="#F7C23E"/>
<rect x="80.0273" y="18.9739" width="1.21875" height="1.21875" transform="rotate(2.38245 80.0273 18.9739)" fill="#FFFD57"/>
<rect x="81.2451" y="19.0246" width="1.21875" height="1.21875" transform="rotate(2.38245 81.2451 19.0246)" fill="#FFFD57"/>
<rect x="79.9768" y="20.1916" width="1.21875" height="1.21875" transform="rotate(2.38245 79.9768 20.1916)" fill="#FFFD57"/>
<rect x="79.926" y="21.4093" width="2.4375" height="1.21875" transform="rotate(2.38245 79.926 21.4093)" fill="#50ACEB"/>
<rect x="78.8096" y="18.9233" width="1.21875" height="2.4375" transform="rotate(2.38245 78.8096 18.9233)" fill="#50ACEB"/>
<rect x="80.0781" y="17.7563" width="2.4375" height="1.21875" transform="rotate(2.38245 80.0781 17.7563)" fill="#50ACEB"/>
<rect x="82.4626" y="19.0753" width="1.21875" height="2.4375" transform="rotate(2.38245 82.4626 19.0753)" fill="#50ACEB"/>
<rect x="74.3752" y="19.9586" width="1.21875" height="2.4375" transform="rotate(2.38245 74.3752 19.9586)" fill="#50ACEB"/>
<rect x="75.2988" y="21.2168" width="1.21875" height="2.4375" transform="rotate(2.38245 75.2988 21.2168)" fill="#50ACEB"/>
<rect x="81.1943" y="20.2423" width="1.21875" height="1.21875" transform="rotate(2.38245 81.1943 20.2423)" fill="#F7C23E"/>
<rect x="72.0918" y="16.2042" width="1.21875" height="1.21875" transform="rotate(2.38245 72.0918 16.2042)" fill="#FFFD57"/>
<rect x="73.3096" y="16.2548" width="1.21875" height="1.21875" transform="rotate(2.38245 73.3096 16.2548)" fill="#FFFD57"/>
<rect x="72.0413" y="17.4219" width="1.21875" height="1.21875" transform="rotate(2.38245 72.0413 17.4219)" fill="#FFFD57"/>
<rect x="71.9905" y="18.6396" width="2.4375" height="1.21875" transform="rotate(2.38245 71.9905 18.6396)" fill="#50ACEB"/>
<rect x="69.5046" y="19.7559" width="2.4375" height="1.21875" transform="rotate(2.38245 69.5046 19.7559)" fill="#50ACEB"/>
<rect x="68.2363" y="20.923" width="1.21875" height="1.21875" transform="rotate(2.38245 68.2363 20.923)" fill="#50ACEB"/>
<rect x="64.7761" y="21.9988" width="1.70625" height="1.21875" transform="rotate(2.38245 64.7761 21.9988)" fill="#50ACEB"/>
<rect x="70.8743" y="16.1535" width="1.21875" height="2.4375" transform="rotate(2.38245 70.8743 16.1535)" fill="#50ACEB"/>
<rect x="72.1426" y="14.9865" width="2.4375" height="1.21875" transform="rotate(2.38245 72.1426 14.9865)" fill="#50ACEB"/>
<rect x="74.5273" y="16.3055" width="1.21875" height="2.4375" transform="rotate(2.38245 74.5273 16.3055)" fill="#50ACEB"/>
<rect x="73.259" y="17.4725" width="1.21875" height="1.21875" transform="rotate(2.38245 73.259 17.4725)" fill="#F7C23E"/>
<rect x="61.6704" y="14.5508" width="1.21875" height="1.21875" transform="rotate(2.38245 61.6704 14.5508)" fill="#FFFD57"/>
<rect x="62.8882" y="14.6014" width="1.21875" height="1.21875" transform="rotate(2.38245 62.8882 14.6014)" fill="#FFFD57"/>
<rect x="61.6199" y="15.7685" width="1.21875" height="1.21875" transform="rotate(2.38245 61.6199 15.7685)" fill="#FFFD57"/>
<rect x="61.5691" y="16.9862" width="2.4375" height="1.21875" transform="rotate(2.38245 61.5691 16.9862)" fill="#50ACEB"/>
<rect x="60.4526" y="14.5001" width="1.21875" height="2.4375" transform="rotate(2.38245 60.4526 14.5001)" fill="#50ACEB"/>
<rect x="64.1057" y="14.6521" width="1.21875" height="2.4375" transform="rotate(2.38245 64.1057 14.6521)" fill="#50ACEB"/>
<rect x="62.8374" y="15.8191" width="1.21875" height="1.21875" transform="rotate(2.38245 62.8374 15.8191)" fill="#F7C23E"/>
<rect x="61.3564" y="27.9556" width="2.4375" height="2.4375" transform="rotate(2.38245 61.3564 27.9556)" fill="#F7C23E"/>
<rect x="64.5537" y="39.0668" width="2.4375" height="2.4375" transform="rotate(2.38245 64.5537 39.0668)" fill="#F7C23E"/>
<path d="M86.5735 37.5434L87.7912 37.594L87.7405 38.8117L86.5228 38.7611L86.5735 37.5434Z" fill="#FFFD57"/>
<path d="M85.356 37.4927L86.5737 37.5434L86.523 38.7611L85.3053 38.7104L85.356 37.4927Z" fill="#FFFD57"/>
<rect x="85.5586" y="32.6219" width="2.4375" height="1.21875" transform="rotate(2.38245 85.5586 32.6219)" fill="#F7C23E"/>
<rect x="55.8254" y="14.3076" width="34.125" height="1.21875" transform="rotate(2.38245 55.8254 14.3076)" fill="black"/>
<rect x="54.2549" y="52.0562" width="34.125" height="1.21875" transform="rotate(2.38245 54.2549 52.0562)" fill="black"/>
<rect x="54.2549" y="52.0562" width="36.5625" height="1.21875" transform="rotate(-87.6175 54.2549 52.0562)" fill="black"/>
<rect x="87.1328" y="53.4241" width="36.5625" height="1.21875" transform="rotate(-87.6175 87.1328 53.4241)" fill="black"/>
<rect x="100.15" y="23.9692" width="0.871349" height="0.871347" transform="rotate(18.5178 100.15 23.9692)" fill="#FF0000"/>
<rect x="99.0471" y="24.5187" width="0.871349" height="0.871347" transform="rotate(18.5178 99.0471 24.5187)" fill="#FF0000"/>
<rect x="98.7705" y="25.3449" width="0.871349" height="0.871347" transform="rotate(18.5178 98.7705 25.3449)" fill="#FF0000"/>
<rect x="98.4939" y="26.1712" width="0.871349" height="0.871347" transform="rotate(18.5178 98.4939 26.1712)" fill="#FF0000"/>
<rect x="98.217" y="26.9974" width="0.871349" height="0.871347" transform="rotate(18.5178 98.217 26.9974)" fill="#FF0000"/>
<rect x="97.9402" y="27.8237" width="0.871349" height="0.871347" transform="rotate(18.5178 97.9402 27.8237)" fill="#FF0000"/>
<rect x="98.4897" y="28.9266" width="0.871349" height="0.871347" transform="rotate(18.5178 98.4897 28.9266)" fill="#FF0000"/>
<rect x="99.0391" y="30.0296" width="0.871349" height="0.871347" transform="rotate(18.5178 99.0391 30.0296)" fill="#FF0000"/>
<rect x="99.8655" y="30.3063" width="0.871349" height="0.871347" transform="rotate(18.5178 99.8655 30.3063)" fill="#FF0000"/>
<rect x="100.692" y="30.5831" width="0.871349" height="0.871347" transform="rotate(18.5178 100.692 30.5831)" fill="#FF0000"/>
<rect x="101.518" y="30.8598" width="0.871349" height="0.871347" transform="rotate(18.5178 101.518 30.8598)" fill="#FF0000"/>
<rect x="102.344" y="31.1366" width="0.871349" height="0.871347" transform="rotate(18.5178 102.344 31.1366)" fill="#FF0000"/>
<rect x="103.447" y="30.5871" width="0.871349" height="0.871347" transform="rotate(18.5178 103.447 30.5871)" fill="#FF0000"/>
<rect x="104.55" y="30.0375" width="0.871349" height="0.871347" transform="rotate(18.5178 104.55 30.0375)" fill="#FF0000"/>
<rect x="104.827" y="29.2113" width="0.871349" height="0.871347" transform="rotate(18.5178 104.827 29.2113)" fill="#FF0000"/>
<rect x="105.104" y="28.3851" width="0.871349" height="0.871347" transform="rotate(18.5178 105.104 28.3851)" fill="#FF0000"/>
<rect x="105.38" y="27.5588" width="0.871349" height="0.871347" transform="rotate(18.5178 105.38 27.5588)" fill="#FF0000"/>
<rect x="105.657" y="26.7326" width="0.871349" height="0.871347" transform="rotate(18.5178 105.657 26.7326)" fill="#FF0000"/>
<rect x="105.107" y="25.6297" width="0.871349" height="0.871347" transform="rotate(18.5178 105.107 25.6297)" fill="#FF0000"/>
<rect x="101.253" y="23.4197" width="0.871349" height="0.871347" transform="rotate(18.5178 101.253 23.4197)" fill="#FF0000"/>
<rect x="102.08" y="23.6965" width="0.871349" height="0.871347" transform="rotate(18.5178 102.08 23.6965)" fill="#FF0000"/>
<rect x="102.906" y="23.9733" width="0.871349" height="0.871347" transform="rotate(18.5178 102.906 23.9733)" fill="#FF0000"/>
<rect x="103.732" y="24.25" width="0.871349" height="0.871347" transform="rotate(18.5178 103.732 24.25)" fill="#FF0000"/>
<rect x="104.558" y="24.5268" width="0.871349" height="0.871347" transform="rotate(18.5178 104.558 24.5268)" fill="#FF0000"/>
<rect x="120.229" y="49.0728" width="0.871349" height="0.871347" transform="rotate(18.5178 120.229 49.0728)" fill="#98FF98"/>
<rect x="119.125" y="49.6224" width="0.871349" height="0.871347" transform="rotate(18.5178 119.125 49.6224)" fill="#98FF98"/>
<rect x="118.849" y="50.4485" width="0.871349" height="0.871347" transform="rotate(18.5178 118.849 50.4485)" fill="#98FF98"/>
<rect x="118.572" y="51.2748" width="0.871349" height="0.871347" transform="rotate(18.5178 118.572 51.2748)" fill="#98FF98"/>
<rect x="118.295" y="52.101" width="0.871349" height="0.871347" transform="rotate(18.5178 118.295 52.101)" fill="#98FF98"/>
<rect x="118.019" y="52.9273" width="0.871349" height="0.871347" transform="rotate(18.5178 118.019 52.9273)" fill="#98FF98"/>
<rect x="118.568" y="54.0302" width="0.871349" height="0.871347" transform="rotate(18.5178 118.568 54.0302)" fill="#98FF98"/>
<rect x="119.117" y="55.1331" width="0.871349" height="0.871347" transform="rotate(18.5178 119.117 55.1331)" fill="#98FF98"/>
<rect x="119.944" y="55.4099" width="0.871349" height="0.871347" transform="rotate(18.5178 119.944 55.4099)" fill="#98FF98"/>
<rect x="120.77" y="55.6867" width="0.871349" height="0.871347" transform="rotate(18.5178 120.77 55.6867)" fill="#98FF98"/>
<rect x="121.596" y="55.9634" width="0.871349" height="0.871347" transform="rotate(18.5178 121.596 55.9634)" fill="#98FF98"/>
<rect x="122.423" y="56.2402" width="0.871349" height="0.871347" transform="rotate(18.5178 122.423 56.2402)" fill="#98FF98"/>
<rect x="123.526" y="55.6906" width="0.871349" height="0.871347" transform="rotate(18.5178 123.526 55.6906)" fill="#98FF98"/>
<rect x="124.628" y="55.1411" width="0.871349" height="0.871347" transform="rotate(18.5178 124.628 55.1411)" fill="#98FF98"/>
<rect x="124.905" y="54.3149" width="0.871349" height="0.871347" transform="rotate(18.5178 124.905 54.3149)" fill="#98FF98"/>
<rect x="125.182" y="53.4887" width="0.871349" height="0.871347" transform="rotate(18.5178 125.182 53.4887)" fill="#98FF98"/>
<rect x="125.459" y="52.6625" width="0.871349" height="0.871347" transform="rotate(18.5178 125.459 52.6625)" fill="#98FF98"/>
<rect x="125.736" y="51.8362" width="0.871349" height="0.871347" transform="rotate(18.5178 125.736 51.8362)" fill="#98FF98"/>
<rect x="125.186" y="50.7332" width="0.871349" height="0.871347" transform="rotate(18.5178 125.186 50.7332)" fill="#98FF98"/>
<rect x="121.331" y="48.5233" width="0.871349" height="0.871347" transform="rotate(18.5178 121.331 48.5233)" fill="#98FF98"/>
<rect x="122.158" y="48.8001" width="0.871349" height="0.871347" transform="rotate(18.5178 122.158 48.8001)" fill="#98FF98"/>
<rect x="122.984" y="49.0769" width="0.871349" height="0.871347" transform="rotate(18.5178 122.984 49.0769)" fill="#98FF98"/>
<rect x="123.81" y="49.3536" width="0.871349" height="0.871347" transform="rotate(18.5178 123.81 49.3536)" fill="#98FF98"/>
<rect x="124.637" y="49.6304" width="0.871349" height="0.871347" transform="rotate(18.5178 124.637 49.6304)" fill="#98FF98"/>
<rect x="119.91" y="40.6958" width="0.871349" height="0.871347" transform="rotate(18.5178 119.91 40.6958)" fill="#6CFF6C"/>
<rect x="118.807" y="41.2453" width="0.871349" height="0.871347" transform="rotate(18.5178 118.807 41.2453)" fill="#6CFF6C"/>
<rect x="118.53" y="42.0715" width="0.871349" height="0.871347" transform="rotate(18.5178 118.53 42.0715)" fill="#6CFF6C"/>
<rect x="118.253" y="42.8977" width="0.871349" height="0.871347" transform="rotate(18.5178 118.253 42.8977)" fill="#6CFF6C"/>
<rect x="117.977" y="43.7239" width="0.871349" height="0.871347" transform="rotate(18.5178 117.977 43.7239)" fill="#6CFF6C"/>
<rect x="117.7" y="44.5502" width="0.871349" height="0.871347" transform="rotate(18.5178 117.7 44.5502)" fill="#6CFF6C"/>
<rect x="118.25" y="45.6532" width="0.871349" height="0.871347" transform="rotate(18.5178 118.25 45.6532)" fill="#6CFF6C"/>
<rect x="118.799" y="46.7561" width="0.871349" height="0.871347" transform="rotate(18.5178 118.799 46.7561)" fill="#6CFF6C"/>
<rect x="119.625" y="47.0329" width="0.871349" height="0.871347" transform="rotate(18.5178 119.625 47.0329)" fill="#6CFF6C"/>
<rect x="120.452" y="47.3097" width="0.871349" height="0.871347" transform="rotate(18.5178 120.452 47.3097)" fill="#6CFF6C"/>
<rect x="121.278" y="47.5864" width="0.871349" height="0.871347" transform="rotate(18.5178 121.278 47.5864)" fill="#6CFF6C"/>
<rect x="122.104" y="47.8632" width="0.871349" height="0.871347" transform="rotate(18.5178 122.104 47.8632)" fill="#6CFF6C"/>
<rect x="123.207" y="47.3136" width="0.871349" height="0.871347" transform="rotate(18.5178 123.207 47.3136)" fill="#6CFF6C"/>
<rect x="124.31" y="46.7641" width="0.871349" height="0.871347" transform="rotate(18.5178 124.31 46.7641)" fill="#6CFF6C"/>
<rect x="124.586" y="45.9379" width="0.871349" height="0.871347" transform="rotate(18.5178 124.586 45.9379)" fill="#6CFF6C"/>
<rect x="124.863" y="45.1116" width="0.871349" height="0.871347" transform="rotate(18.5178 124.863 45.1116)" fill="#6CFF6C"/>
<rect x="125.14" y="44.2854" width="0.871349" height="0.871347" transform="rotate(18.5178 125.14 44.2854)" fill="#6CFF6C"/>
<rect x="125.417" y="43.4592" width="0.871349" height="0.871347" transform="rotate(18.5178 125.417 43.4592)" fill="#6CFF6C"/>
<rect x="124.867" y="42.3562" width="0.871349" height="0.871347" transform="rotate(18.5178 124.867 42.3562)" fill="#6CFF6C"/>
<rect x="121.013" y="40.1463" width="0.871349" height="0.871347" transform="rotate(18.5178 121.013 40.1463)" fill="#6CFF6C"/>
<rect x="121.839" y="40.4231" width="0.871349" height="0.871347" transform="rotate(18.5178 121.839 40.4231)" fill="#6CFF6C"/>
<rect x="122.666" y="40.6998" width="0.871349" height="0.871347" transform="rotate(18.5178 122.666 40.6998)" fill="#6CFF6C"/>
<rect x="123.492" y="40.9765" width="0.871349" height="0.871347" transform="rotate(18.5178 123.492 40.9765)" fill="#6CFF6C"/>
<rect x="124.318" y="41.2533" width="0.871349" height="0.871347" transform="rotate(18.5178 124.318 41.2533)" fill="#6CFF6C"/>
<rect x="115.457" y="33.1395" width="0.871349" height="0.871347" transform="rotate(18.5178 115.457 33.1395)" fill="#53FF53"/>
<rect x="114.354" y="33.6889" width="0.871349" height="0.871347" transform="rotate(18.5178 114.354 33.6889)" fill="#53FF53"/>
<rect x="114.077" y="34.5152" width="0.871349" height="0.871347" transform="rotate(18.5178 114.077 34.5152)" fill="#53FF53"/>
<rect x="113.801" y="35.3414" width="0.871349" height="0.871347" transform="rotate(18.5178 113.801 35.3414)" fill="#53FF53"/>
<rect x="113.524" y="36.1676" width="0.871349" height="0.871347" transform="rotate(18.5178 113.524 36.1676)" fill="#53FF53"/>
<rect x="113.247" y="36.9939" width="0.871349" height="0.871347" transform="rotate(18.5178 113.247 36.9939)" fill="#53FF53"/>
<rect x="113.797" y="38.0969" width="0.871349" height="0.871347" transform="rotate(18.5178 113.797 38.0969)" fill="#53FF53"/>
<rect x="114.346" y="39.1998" width="0.871349" height="0.871347" transform="rotate(18.5178 114.346 39.1998)" fill="#53FF53"/>
<rect x="115.172" y="39.4766" width="0.871349" height="0.871347" transform="rotate(18.5178 115.172 39.4766)" fill="#53FF53"/>
<rect x="115.999" y="39.7534" width="0.871349" height="0.871347" transform="rotate(18.5178 115.999 39.7534)" fill="#53FF53"/>
<rect x="116.825" y="40.0301" width="0.871349" height="0.871347" transform="rotate(18.5178 116.825 40.0301)" fill="#53FF53"/>
<rect x="117.651" y="40.3069" width="0.871349" height="0.871347" transform="rotate(18.5178 117.651 40.3069)" fill="#53FF53"/>
<rect x="118.754" y="39.7573" width="0.871349" height="0.871347" transform="rotate(18.5178 118.754 39.7573)" fill="#53FF53"/>
<rect x="119.857" y="39.2078" width="0.871349" height="0.871347" transform="rotate(18.5178 119.857 39.2078)" fill="#53FF53"/>
<rect x="120.134" y="38.3816" width="0.871349" height="0.871347" transform="rotate(18.5178 120.134 38.3816)" fill="#53FF53"/>
<rect x="120.411" y="37.5553" width="0.871349" height="0.871347" transform="rotate(18.5178 120.411 37.5553)" fill="#53FF53"/>
<rect x="120.688" y="36.7291" width="0.871349" height="0.871347" transform="rotate(18.5178 120.688 36.7291)" fill="#53FF53"/>
<rect x="120.964" y="35.9029" width="0.871349" height="0.871347" transform="rotate(18.5178 120.964 35.9029)" fill="#53FF53"/>
<rect x="120.415" y="34.7999" width="0.871349" height="0.871347" transform="rotate(18.5178 120.415 34.7999)" fill="#53FF53"/>
<rect x="116.56" y="32.59" width="0.871349" height="0.871347" transform="rotate(18.5178 116.56 32.59)" fill="#53FF53"/>
<rect x="117.386" y="32.8668" width="0.871349" height="0.871347" transform="rotate(18.5178 117.386 32.8668)" fill="#53FF53"/>
<rect x="118.213" y="33.1435" width="0.871349" height="0.871347" transform="rotate(18.5178 118.213 33.1435)" fill="#53FF53"/>
<rect x="119.039" y="33.4202" width="0.871349" height="0.871347" transform="rotate(18.5178 119.039 33.4202)" fill="#53FF53"/>
<rect x="119.865" y="33.697" width="0.871349" height="0.871347" transform="rotate(18.5178 119.865 33.697)" fill="#53FF53"/>
<rect x="108.011" y="37.2618" width="0.871349" height="0.871347" transform="rotate(18.5178 108.011 37.2618)" fill="#37FF37"/>
<rect x="106.908" y="37.8113" width="0.871349" height="0.871347" transform="rotate(18.5178 106.908 37.8113)" fill="#37FF37"/>
<rect x="106.632" y="38.6375" width="0.871349" height="0.871347" transform="rotate(18.5178 106.632 38.6375)" fill="#37FF37"/>
<rect x="106.355" y="39.4638" width="0.871349" height="0.871347" transform="rotate(18.5178 106.355 39.4638)" fill="#37FF37"/>
<rect x="106.078" y="40.29" width="0.871349" height="0.871347" transform="rotate(18.5178 106.078 40.29)" fill="#37FF37"/>
<rect x="105.802" y="41.1163" width="0.871349" height="0.871347" transform="rotate(18.5178 105.802 41.1163)" fill="#37FF37"/>
<rect x="106.351" y="42.2192" width="0.871349" height="0.871347" transform="rotate(18.5178 106.351 42.2192)" fill="#37FF37"/>
<rect x="106.9" y="43.3222" width="0.871349" height="0.871347" transform="rotate(18.5178 106.9 43.3222)" fill="#37FF37"/>
<rect x="107.727" y="43.5989" width="0.871349" height="0.871347" transform="rotate(18.5178 107.727 43.5989)" fill="#37FF37"/>
<rect x="108.553" y="43.8757" width="0.871349" height="0.871347" transform="rotate(18.5178 108.553 43.8757)" fill="#37FF37"/>
<rect x="109.379" y="44.1524" width="0.871349" height="0.871347" transform="rotate(18.5178 109.379 44.1524)" fill="#37FF37"/>
<rect x="110.206" y="44.4292" width="0.871349" height="0.871347" transform="rotate(18.5178 110.206 44.4292)" fill="#37FF37"/>
<rect x="111.309" y="43.8796" width="0.871349" height="0.871347" transform="rotate(18.5178 111.309 43.8796)" fill="#37FF37"/>
<rect x="112.411" y="43.3301" width="0.871349" height="0.871347" transform="rotate(18.5178 112.411 43.3301)" fill="#37FF37"/>
<rect x="112.688" y="42.5039" width="0.871349" height="0.871347" transform="rotate(18.5178 112.688 42.5039)" fill="#37FF37"/>
<rect x="112.965" y="41.6777" width="0.871349" height="0.871347" transform="rotate(18.5178 112.965 41.6777)" fill="#37FF37"/>
<rect x="113.242" y="40.8515" width="0.871349" height="0.871347" transform="rotate(18.5178 113.242 40.8515)" fill="#37FF37"/>
<rect x="113.519" y="40.0252" width="0.871349" height="0.871347" transform="rotate(18.5178 113.519 40.0252)" fill="#37FF37"/>
<rect x="112.969" y="38.9223" width="0.871349" height="0.871347" transform="rotate(18.5178 112.969 38.9223)" fill="#37FF37"/>
<rect x="109.114" y="36.7123" width="0.871349" height="0.871347" transform="rotate(18.5178 109.114 36.7123)" fill="#37FF37"/>
<rect x="109.941" y="36.9891" width="0.871349" height="0.871347" transform="rotate(18.5178 109.941 36.9891)" fill="#37FF37"/>
<rect x="110.767" y="37.2659" width="0.871349" height="0.871347" transform="rotate(18.5178 110.767 37.2659)" fill="#37FF37"/>
<rect x="111.593" y="37.5426" width="0.871349" height="0.871347" transform="rotate(18.5178 111.593 37.5426)" fill="#37FF37"/>
<rect x="112.42" y="37.8194" width="0.871349" height="0.871347" transform="rotate(18.5178 112.42 37.8194)" fill="#37FF37"/>
<rect x="101.225" y="42.7078" width="0.871349" height="0.871347" transform="rotate(18.5178 101.225 42.7078)" fill="#16FF16"/>
<rect x="100.122" y="43.2573" width="0.871349" height="0.871347" transform="rotate(18.5178 100.122 43.2573)" fill="#16FF16"/>
<rect x="99.8452" y="44.0835" width="0.871349" height="0.871347" transform="rotate(18.5178 99.8452 44.0835)" fill="#16FF16"/>
<rect x="99.5686" y="44.9097" width="0.871349" height="0.871347" transform="rotate(18.5178 99.5686 44.9097)" fill="#16FF16"/>
<rect x="99.292" y="45.736" width="0.871349" height="0.871347" transform="rotate(18.5178 99.292 45.736)" fill="#16FF16"/>
<rect x="99.0151" y="46.5622" width="0.871349" height="0.871347" transform="rotate(18.5178 99.0151 46.5622)" fill="#16FF16"/>
<rect x="99.5647" y="47.6652" width="0.871349" height="0.871347" transform="rotate(18.5178 99.5647 47.6652)" fill="#16FF16"/>
<rect x="100.114" y="48.7681" width="0.871349" height="0.871347" transform="rotate(18.5178 100.114 48.7681)" fill="#16FF16"/>
<rect x="100.94" y="49.0449" width="0.871349" height="0.871347" transform="rotate(18.5178 100.94 49.0449)" fill="#16FF16"/>
<rect x="101.767" y="49.3217" width="0.871349" height="0.871347" transform="rotate(18.5178 101.767 49.3217)" fill="#16FF16"/>
<rect x="102.593" y="49.5984" width="0.871349" height="0.871347" transform="rotate(18.5178 102.593 49.5984)" fill="#16FF16"/>
<rect x="103.419" y="49.8752" width="0.871349" height="0.871347" transform="rotate(18.5178 103.419 49.8752)" fill="#16FF16"/>
<rect x="104.522" y="49.3256" width="0.871349" height="0.871347" transform="rotate(18.5178 104.522 49.3256)" fill="#16FF16"/>
<rect x="105.625" y="48.7761" width="0.871349" height="0.871347" transform="rotate(18.5178 105.625 48.7761)" fill="#16FF16"/>
<rect x="105.902" y="47.9499" width="0.871349" height="0.871347" transform="rotate(18.5178 105.902 47.9499)" fill="#16FF16"/>
<rect x="106.179" y="47.1236" width="0.871349" height="0.871347" transform="rotate(18.5178 106.179 47.1236)" fill="#16FF16"/>
<rect x="106.455" y="46.2974" width="0.871349" height="0.871347" transform="rotate(18.5178 106.455 46.2974)" fill="#16FF16"/>
<rect x="106.732" y="45.4712" width="0.871349" height="0.871347" transform="rotate(18.5178 106.732 45.4712)" fill="#16FF16"/>
<rect x="106.182" y="44.3682" width="0.871349" height="0.871347" transform="rotate(18.5178 106.182 44.3682)" fill="#16FF16"/>
<rect x="102.328" y="42.1582" width="0.871349" height="0.871347" transform="rotate(18.5178 102.328 42.1582)" fill="#16FF16"/>
<rect x="103.154" y="42.4351" width="0.871349" height="0.871347" transform="rotate(18.5178 103.154 42.4351)" fill="#16FF16"/>
<rect x="103.981" y="42.7118" width="0.871349" height="0.871347" transform="rotate(18.5178 103.981 42.7118)" fill="#16FF16"/>
<rect x="104.807" y="42.9886" width="0.871349" height="0.871347" transform="rotate(18.5178 104.807 42.9886)" fill="#16FF16"/>
<rect x="105.633" y="43.2653" width="0.871349" height="0.871347" transform="rotate(18.5178 105.633 43.2653)" fill="#16FF16"/>
<rect x="100.799" y="33.0081" width="0.871349" height="0.871347" transform="rotate(18.5178 100.799 33.0081)" fill="#00FF00"/>
<rect x="99.6956" y="33.5575" width="0.871349" height="0.871347" transform="rotate(18.5178 99.6956 33.5575)" fill="#00FF00"/>
<rect x="99.4187" y="34.3838" width="0.871349" height="0.871347" transform="rotate(18.5178 99.4187 34.3838)" fill="#00FF00"/>
<rect x="99.1418" y="35.21" width="0.871349" height="0.871347" transform="rotate(18.5178 99.1418 35.21)" fill="#00FF00"/>
<rect x="98.8652" y="36.0362" width="0.871349" height="0.871347" transform="rotate(18.5178 98.8652 36.0362)" fill="#00FF00"/>
<rect x="98.5884" y="36.8625" width="0.871349" height="0.871347" transform="rotate(18.5178 98.5884 36.8625)" fill="#00FF00"/>
<rect x="99.1379" y="37.9655" width="0.871349" height="0.871347" transform="rotate(18.5178 99.1379 37.9655)" fill="#00FF00"/>
<rect x="99.6873" y="39.0684" width="0.871349" height="0.871347" transform="rotate(18.5178 99.6873 39.0684)" fill="#00FF00"/>
<rect x="100.513" y="39.3452" width="0.871349" height="0.871347" transform="rotate(18.5178 100.513 39.3452)" fill="#00FF00"/>
<rect x="101.34" y="39.6219" width="0.871349" height="0.871347" transform="rotate(18.5178 101.34 39.6219)" fill="#00FF00"/>
<rect x="102.166" y="39.8986" width="0.871349" height="0.871347" transform="rotate(18.5178 102.166 39.8986)" fill="#00FF00"/>
<rect x="102.993" y="40.1754" width="0.871349" height="0.871347" transform="rotate(18.5178 102.993 40.1754)" fill="#00FF00"/>
<rect x="104.096" y="39.6259" width="0.871349" height="0.871347" transform="rotate(18.5178 104.096 39.6259)" fill="#00FF00"/>
<rect x="105.198" y="39.0764" width="0.871349" height="0.871347" transform="rotate(18.5178 105.198 39.0764)" fill="#00FF00"/>
<rect x="105.475" y="38.2502" width="0.871349" height="0.871347" transform="rotate(18.5178 105.475 38.2502)" fill="#00FF00"/>
<rect x="105.752" y="37.4239" width="0.871349" height="0.871347" transform="rotate(18.5178 105.752 37.4239)" fill="#00FF00"/>
<rect x="106.029" y="36.5977" width="0.871349" height="0.871347" transform="rotate(18.5178 106.029 36.5977)" fill="#00FF00"/>
<rect x="106.305" y="35.7715" width="0.871349" height="0.871347" transform="rotate(18.5178 106.305 35.7715)" fill="#00FF00"/>
<rect x="105.756" y="34.6685" width="0.871349" height="0.871347" transform="rotate(18.5178 105.756 34.6685)" fill="#00FF00"/>
<rect x="101.901" y="32.4586" width="0.871349" height="0.871347" transform="rotate(18.5178 101.901 32.4586)" fill="#00FF00"/>
<rect x="102.728" y="32.7354" width="0.871349" height="0.871347" transform="rotate(18.5178 102.728 32.7354)" fill="#00FF00"/>
<rect x="103.554" y="33.0121" width="0.871349" height="0.871347" transform="rotate(18.5178 103.554 33.0121)" fill="#00FF00"/>
<rect x="104.38" y="33.2888" width="0.871349" height="0.871347" transform="rotate(18.5178 104.38 33.2888)" fill="#00FF00"/>
<rect x="105.207" y="33.5656" width="0.871349" height="0.871347" transform="rotate(18.5178 105.207 33.5656)" fill="#00FF00"/>
<defs>
<linearGradient id="paint0_linear_385_1288" x1="70.1555" y1="5" x2="69.8445" y2="70" gradientUnits="userSpaceOnUse">
<stop stop-color="#BF00FF"/>
<stop offset="0.9999" stop-color="#4D00FF"/>
</linearGradient>
</defs>
</svg>
