<svg width="140" height="160" viewBox="0 0 140 160" fill="none" xmlns="http://www.w3.org/2000/svg">
<rect x="5" y="50" width="130" height="65" fill="#00B3FF"/>
<rect x="5" y="115" width="130" height="15" fill="#6D6D6D"/>
<rect x="60" y="135" width="20" height="10" fill="#6D6D6D"/>
<rect x="55" y="145" width="30" height="5" fill="#6D6D6D"/>
<rect x="50" y="150" width="40" height="5" fill="#6D6D6D"/>
<rect x="125" y="125" width="5" height="5" fill="#1E1E1E"/>
<rect x="115" y="125" width="5" height="5" fill="#1E1E1E"/>
<rect x="125" y="120" width="5" height="5" fill="#1E1E1E"/>
<rect x="105" y="125" width="5" height="5" fill="#1E1E1E"/>
<rect x="10" y="120" width="5" height="5" fill="#FF0000"/>
<rect x="20" y="5" width="100" height="80" fill="white"/>
<rect y="60" width="5" height="5" fill="black"/>
<rect y="55" width="5" height="5" fill="black"/>
<rect y="50" width="5" height="5" fill="black"/>
<rect y="70" width="5" height="5" fill="black"/>
<rect y="75" width="5" height="5" fill="black"/>
<rect y="80" width="5" height="5" fill="black"/>
<rect y="85" width="5" height="5" fill="black"/>
<rect y="90" width="5" height="5" fill="black"/>
<rect y="95" width="5" height="5" fill="black"/>
<rect y="100" width="5" height="5" fill="black"/>
<rect y="105" width="5" height="5" fill="black"/>
<rect y="110" width="5" height="5" fill="black"/>
<rect y="115" width="5" height="5" fill="black"/>
<rect y="120" width="5" height="5" fill="black"/>
<rect y="125" width="5" height="5" fill="black"/>
<rect x="135" y="105" width="5" height="5" fill="black"/>
<rect x="135" y="110" width="5" height="5" fill="black"/>
<rect x="135" y="115" width="5" height="5" fill="black"/>
<rect x="135" y="120" width="5" height="5" fill="black"/>
<rect x="135" y="125" width="5" height="5" fill="black"/>
<rect x="135" y="70" width="5" height="5" fill="black"/>
<rect x="135" y="65" width="5" height="5" fill="black"/>
<rect y="65" width="5" height="5" fill="black"/>
<rect x="135" y="75" width="5" height="5" fill="black"/>
<rect x="135" y="80" width="5" height="5" fill="black"/>
<rect x="135" y="85" width="5" height="5" fill="black"/>
<rect x="135" y="90" width="5" height="5" fill="black"/>
<rect x="135" y="95" width="5" height="5" fill="black"/>
<rect x="135" y="100" width="5" height="5" fill="black"/>
<rect x="15" y="45" width="5" height="5" fill="#6D6D6D"/>
<rect x="5" y="45" width="5" height="5" fill="black"/>
<rect x="10" y="45" width="5" height="5" fill="black"/>
<rect x="120" y="45" width="5" height="5" fill="#6D6D6D"/>
<rect x="125" y="45" width="5" height="5" fill="black"/>
<rect x="130" y="45" width="5" height="5" fill="black"/>
<rect x="25" y="130" width="5" height="5" fill="black"/>
<rect x="20" y="130" width="5" height="5" fill="black"/>
<rect x="10" y="130" width="5" height="5" fill="black"/>
<rect x="5" y="130" width="5" height="5" fill="black"/>
<rect x="15" y="130" width="5" height="5" fill="black"/>
<rect x="30" y="130" width="5" height="5" fill="black"/>
<rect x="35" y="130" width="5" height="5" fill="black"/>
<rect x="40" y="130" width="5" height="5" fill="black"/>
<rect x="45" y="130" width="5" height="5" fill="black"/>
<rect x="50" y="130" width="5" height="5" fill="black"/>
<rect x="55" y="130" width="5" height="5" fill="black"/>
<rect x="60" y="130" width="5" height="5" fill="black"/>
<rect x="65" y="130" width="5" height="5" fill="black"/>
<rect x="70" y="130" width="5" height="5" fill="black"/>
<rect x="55" y="135" width="5" height="5" fill="black"/>
<rect x="80" y="135" width="5" height="5" fill="black"/>
<rect x="80" y="140" width="5" height="5" fill="black"/>
<rect x="85" y="145" width="5" height="5" fill="black"/>
<rect x="90" y="150" width="5" height="5" fill="black"/>
<rect x="90" y="150" width="5" height="5" fill="black"/>
<rect x="50" y="145" width="5" height="5" fill="black"/>
<rect x="45" y="150" width="5" height="5" fill="black"/>
<rect x="55" y="140" width="5" height="5" fill="black"/>
<rect x="75" y="130" width="5" height="5" fill="black"/>
<rect x="80" y="130" width="5" height="5" fill="black"/>
<rect x="85" y="130" width="5" height="5" fill="black"/>
<rect x="90" y="130" width="5" height="5" fill="black"/>
<rect x="45" y="155" width="5" height="5" fill="black"/>
<rect x="50" y="155" width="5" height="5" fill="black"/>
<rect x="55" y="155" width="5" height="5" fill="black"/>
<rect x="60" y="155" width="5" height="5" fill="black"/>
<rect x="65" y="155" width="5" height="5" fill="black"/>
<rect x="70" y="155" width="5" height="5" fill="black"/>
<rect x="75" y="155" width="5" height="5" fill="black"/>
<rect x="80" y="155" width="5" height="5" fill="black"/>
<rect x="85" y="155" width="5" height="5" fill="black"/>
<rect x="90" y="155" width="5" height="5" fill="black"/>
<rect x="95" y="130" width="5" height="5" fill="black"/>
<rect x="100" y="130" width="5" height="5" fill="black"/>
<rect x="105" y="130" width="5" height="5" fill="black"/>
<rect x="110" y="130" width="5" height="5" fill="black"/>
<rect x="115" y="130" width="5" height="5" fill="black"/>
<rect x="120" y="130" width="5" height="5" fill="black"/>
<rect x="125" y="130" width="5" height="5" fill="black"/>
<rect x="130" y="130" width="5" height="5" fill="black"/>
<rect x="25" y="110" width="5" height="5" fill="black"/>
<rect x="20" y="110" width="5" height="5" fill="black"/>
<rect x="10" y="110" width="5" height="5" fill="black"/>
<rect x="5" y="110" width="5" height="5" fill="black"/>
<rect x="15" y="110" width="5" height="5" fill="black"/>
<rect x="30" y="110" width="5" height="5" fill="black"/>
<rect x="35" y="110" width="5" height="5" fill="black"/>
<rect x="40" y="110" width="5" height="5" fill="black"/>
<rect x="45" y="110" width="5" height="5" fill="black"/>
<rect x="50" y="110" width="5" height="5" fill="black"/>
<rect x="55" y="110" width="5" height="5" fill="black"/>
<rect x="60" y="110" width="5" height="5" fill="black"/>
<rect x="65" y="110" width="5" height="5" fill="black"/>
<rect x="70" y="110" width="5" height="5" fill="black"/>
<rect x="75" y="110" width="5" height="5" fill="black"/>
<rect x="80" y="110" width="5" height="5" fill="black"/>
<rect x="85" y="110" width="5" height="5" fill="black"/>
<rect x="90" y="110" width="5" height="5" fill="black"/>
<rect x="95" y="110" width="5" height="5" fill="black"/>
<rect x="100" y="110" width="5" height="5" fill="black"/>
<rect x="105" y="110" width="5" height="5" fill="black"/>
<rect x="110" y="110" width="5" height="5" fill="black"/>
<rect x="115" y="110" width="5" height="5" fill="black"/>
<rect x="120" y="110" width="5" height="5" fill="black"/>
<rect x="125" y="110" width="5" height="5" fill="black"/>
<rect x="130" y="110" width="5" height="5" fill="black"/>
<rect x="135" y="60" width="5" height="5" fill="black"/>
<rect x="135" y="55" width="5" height="5" fill="black"/>
<rect x="135" y="50" width="5" height="5" fill="black"/>
<rect x="85" width="5" height="5" fill="#6D6D6D"/>
<rect x="80" width="5" height="5" fill="#6D6D6D"/>
<rect x="70" width="5" height="5" fill="#6D6D6D"/>
<rect x="15" y="15" width="5" height="5" fill="#6D6D6D"/>
<rect x="15" y="10" width="5" height="5" fill="#6D6D6D"/>
<rect x="15" y="5" width="5" height="5" fill="#6D6D6D"/>
<rect x="15" width="5" height="5" fill="#6D6D6D"/>
<rect x="20" width="5" height="5" fill="#6D6D6D"/>
<rect x="65" width="5" height="5" fill="#6D6D6D"/>
<rect x="15" y="25" width="5" height="5" fill="#6D6D6D"/>
<rect x="15" y="30" width="5" height="5" fill="#6D6D6D"/>
<rect x="15" y="35" width="5" height="5" fill="#6D6D6D"/>
<rect x="15" y="40" width="5" height="5" fill="#6D6D6D"/>
<rect x="15" y="50" width="5" height="5" fill="#6D6D6D"/>
<rect x="15" y="55" width="5" height="5" fill="#6D6D6D"/>
<rect x="15" y="60" width="5" height="5" fill="#6D6D6D"/>
<rect x="15" y="65" width="5" height="5" fill="#6D6D6D"/>
<rect x="15" y="70" width="5" height="5" fill="#6D6D6D"/>
<rect x="15" y="75" width="5" height="5" fill="#6D6D6D"/>
<rect x="15" y="80" width="5" height="5" fill="#6D6D6D"/>
<rect x="120" y="60" width="5" height="5" fill="#6D6D6D"/>
<rect x="120" y="65" width="5" height="5" fill="#6D6D6D"/>
<rect x="120" y="70" width="5" height="5" fill="#6D6D6D"/>
<rect x="120" y="75" width="5" height="5" fill="#6D6D6D"/>
<rect x="120" y="80" width="5" height="5" fill="#6D6D6D"/>
<rect x="120" y="25" width="5" height="5" fill="#6D6D6D"/>
<rect x="120" y="20" width="5" height="5" fill="#6D6D6D"/>
<rect x="15" y="20" width="5" height="5" fill="#6D6D6D"/>
<rect x="120" y="30" width="5" height="5" fill="#6D6D6D"/>
<rect x="120" y="35" width="5" height="5" fill="#6D6D6D"/>
<rect x="120" y="40" width="5" height="5" fill="#6D6D6D"/>
<rect x="120" y="50" width="5" height="5" fill="#6D6D6D"/>
<rect x="120" y="55" width="5" height="5" fill="#6D6D6D"/>
<rect x="75" width="5" height="5" fill="#6D6D6D"/>
<rect x="90" width="5" height="5" fill="#6D6D6D"/>
<rect x="110" width="5" height="5" fill="#6D6D6D"/>
<rect x="105" width="5" height="5" fill="#6D6D6D"/>
<rect x="95" width="5" height="5" fill="#6D6D6D"/>
<rect x="100" width="5" height="5" fill="#6D6D6D"/>
<rect x="115" width="5" height="5" fill="#6D6D6D"/>
<rect x="120" width="5" height="5" fill="#6D6D6D"/>
<rect x="40" width="5" height="5" fill="#6D6D6D"/>
<rect x="35" width="5" height="5" fill="#6D6D6D"/>
<rect x="25" width="5" height="5" fill="#6D6D6D"/>
<rect x="30" width="5" height="5" fill="#6D6D6D"/>
<rect x="45" width="5" height="5" fill="#6D6D6D"/>
<rect x="50" width="5" height="5" fill="#6D6D6D"/>
<rect x="55" width="5" height="5" fill="#6D6D6D"/>
<rect x="60" width="5" height="5" fill="#6D6D6D"/>
<rect x="45" y="85" width="5" height="5" fill="#6D6D6D"/>
<rect x="40" y="85" width="5" height="5" fill="#6D6D6D"/>
<rect x="30" y="85" width="5" height="5" fill="#6D6D6D"/>
<rect x="25" y="85" width="5" height="5" fill="#6D6D6D"/>
<rect x="15" y="85" width="5" height="5" fill="#6D6D6D"/>
<rect x="20" y="85" width="5" height="5" fill="#6D6D6D"/>
<rect x="35" y="85" width="5" height="5" fill="#6D6D6D"/>
<rect x="50" y="85" width="5" height="5" fill="#6D6D6D"/>
<rect x="55" y="85" width="5" height="5" fill="#6D6D6D"/>
<rect x="60" y="85" width="5" height="5" fill="#6D6D6D"/>
<rect x="65" y="85" width="5" height="5" fill="#6D6D6D"/>
<rect x="70" y="85" width="5" height="5" fill="#6D6D6D"/>
<rect x="75" y="85" width="5" height="5" fill="#6D6D6D"/>
<rect x="80" y="85" width="5" height="5" fill="#6D6D6D"/>
<rect x="85" y="85" width="5" height="5" fill="#6D6D6D"/>
<rect x="90" y="85" width="5" height="5" fill="#6D6D6D"/>
<rect x="95" y="85" width="5" height="5" fill="#6D6D6D"/>
<rect x="100" y="85" width="5" height="5" fill="#6D6D6D"/>
<rect x="105" y="85" width="5" height="5" fill="#6D6D6D"/>
<rect x="110" y="85" width="5" height="5" fill="#6D6D6D"/>
<rect x="115" y="85" width="5" height="5" fill="#6D6D6D"/>
<rect x="120" y="85" width="5" height="5" fill="#6D6D6D"/>
<rect x="120" y="15" width="5" height="5" fill="#6D6D6D"/>
<rect x="120" y="10" width="5" height="5" fill="#6D6D6D"/>
<rect x="120" y="5" width="5" height="5" fill="#6D6D6D"/>
<rect x="42.875" y="33.75" width="48.75" height="24.375" fill="#00B3FF"/>
<rect x="42.875" y="58.125" width="48.75" height="5.625" fill="#6D6D6D"/>
<rect x="63.5" y="65.625" width="7.5" height="3.75" fill="#6D6D6D"/>
<rect x="61.625" y="69.375" width="11.25" height="1.875" fill="#6D6D6D"/>
<rect x="59.75" y="71.25" width="15" height="1.875" fill="#6D6D6D"/>
<rect x="87.875" y="61.875" width="1.875" height="1.875" fill="#1E1E1E"/>
<rect x="84.125" y="61.875" width="1.875" height="1.875" fill="#1E1E1E"/>
<rect x="87.875" y="60" width="1.875" height="1.875" fill="#1E1E1E"/>
<rect x="80.375" y="61.875" width="1.875" height="1.875" fill="#1E1E1E"/>
<rect x="44.75" y="60" width="1.875" height="1.875" fill="#FF0000"/>
<rect x="48.5" y="16.875" width="37.5" height="30" fill="white"/>
<rect x="41" y="37.5" width="1.875" height="1.875" fill="black"/>
<rect x="41" y="35.625" width="1.875" height="1.875" fill="black"/>
<rect x="41" y="33.75" width="1.875" height="1.875" fill="black"/>
<rect x="41" y="41.25" width="1.875" height="1.875" fill="black"/>
<rect x="41" y="43.125" width="1.875" height="1.875" fill="black"/>
<rect x="41" y="45" width="1.875" height="1.875" fill="black"/>
<rect x="41" y="46.875" width="1.875" height="1.875" fill="black"/>
<rect x="41" y="48.75" width="1.875" height="1.875" fill="black"/>
<rect x="41" y="50.625" width="1.875" height="1.875" fill="black"/>
<rect x="41" y="52.5" width="1.875" height="1.875" fill="black"/>
<rect x="41" y="54.375" width="1.875" height="1.875" fill="black"/>
<rect x="41" y="56.25" width="1.875" height="1.875" fill="black"/>
<rect x="41" y="58.125" width="1.875" height="1.875" fill="black"/>
<rect x="41" y="60" width="1.875" height="1.875" fill="black"/>
<rect x="41" y="61.875" width="1.875" height="1.875" fill="black"/>
<rect x="91.625" y="54.375" width="1.875" height="1.875" fill="black"/>
<rect x="91.625" y="56.25" width="1.875" height="1.875" fill="black"/>
<rect x="91.625" y="58.125" width="1.875" height="1.875" fill="black"/>
<rect x="91.625" y="60" width="1.875" height="1.875" fill="black"/>
<rect x="91.625" y="61.875" width="1.875" height="1.875" fill="black"/>
<rect x="91.625" y="41.25" width="1.875" height="1.875" fill="black"/>
<rect x="91.625" y="39.375" width="1.875" height="1.875" fill="black"/>
<rect x="41" y="39.375" width="1.875" height="1.875" fill="black"/>
<rect x="91.625" y="43.125" width="1.875" height="1.875" fill="black"/>
<rect x="91.625" y="45" width="1.875" height="1.875" fill="black"/>
<rect x="91.625" y="46.875" width="1.875" height="1.875" fill="black"/>
<rect x="91.625" y="48.75" width="1.875" height="1.875" fill="black"/>
<rect x="91.625" y="50.625" width="1.875" height="1.875" fill="black"/>
<rect x="91.625" y="52.5" width="1.875" height="1.875" fill="black"/>
<rect x="46.625" y="31.875" width="1.875" height="1.875" fill="#6D6D6D"/>
<rect x="42.875" y="31.875" width="1.875" height="1.875" fill="black"/>
<rect x="44.75" y="31.875" width="1.875" height="1.875" fill="black"/>
<rect x="86" y="31.875" width="1.875" height="1.875" fill="#6D6D6D"/>
<rect x="87.875" y="31.875" width="1.875" height="1.875" fill="black"/>
<rect x="89.75" y="31.875" width="1.875" height="1.875" fill="black"/>
<rect x="50.375" y="63.75" width="1.875" height="1.875" fill="black"/>
<rect x="48.5" y="63.75" width="1.875" height="1.875" fill="black"/>
<rect x="44.75" y="63.75" width="1.875" height="1.875" fill="black"/>
<rect x="42.875" y="63.75" width="1.875" height="1.875" fill="black"/>
<rect x="46.625" y="63.75" width="1.875" height="1.875" fill="black"/>
<rect x="52.25" y="63.75" width="1.875" height="1.875" fill="black"/>
<rect x="54.125" y="63.75" width="1.875" height="1.875" fill="black"/>
<rect x="56" y="63.75" width="1.875" height="1.875" fill="black"/>
<rect x="57.875" y="63.75" width="1.875" height="1.875" fill="black"/>
<rect x="59.75" y="63.75" width="1.875" height="1.875" fill="black"/>
<rect x="61.625" y="63.75" width="1.875" height="1.875" fill="black"/>
<rect x="63.5" y="63.75" width="1.875" height="1.875" fill="black"/>
<rect x="65.375" y="63.75" width="1.875" height="1.875" fill="black"/>
<rect x="67.25" y="63.75" width="1.875" height="1.875" fill="black"/>
<rect x="61.625" y="65.625" width="1.875" height="1.875" fill="black"/>
<rect x="71" y="65.625" width="1.875" height="1.875" fill="black"/>
<rect x="71" y="67.5" width="1.875" height="1.875" fill="black"/>
<rect x="72.875" y="69.375" width="1.875" height="1.875" fill="black"/>
<rect x="74.75" y="71.25" width="1.875" height="1.875" fill="black"/>
<rect x="74.75" y="71.25" width="1.875" height="1.875" fill="black"/>
<rect x="59.75" y="69.375" width="1.875" height="1.875" fill="black"/>
<rect x="57.875" y="71.25" width="1.875" height="1.875" fill="black"/>
<rect x="61.625" y="67.5" width="1.875" height="1.875" fill="black"/>
<rect x="69.125" y="63.75" width="1.875" height="1.875" fill="black"/>
<rect x="71" y="63.75" width="1.875" height="1.875" fill="black"/>
<rect x="72.875" y="63.75" width="1.875" height="1.875" fill="black"/>
<rect x="74.75" y="63.75" width="1.875" height="1.875" fill="black"/>
<rect x="57.875" y="73.125" width="1.875" height="1.875" fill="black"/>
<rect x="59.75" y="73.125" width="1.875" height="1.875" fill="black"/>
<rect x="61.625" y="73.125" width="1.875" height="1.875" fill="black"/>
<rect x="63.5" y="73.125" width="1.875" height="1.875" fill="black"/>
<rect x="65.375" y="73.125" width="1.875" height="1.875" fill="black"/>
<rect x="67.25" y="73.125" width="1.875" height="1.875" fill="black"/>
<rect x="69.125" y="73.125" width="1.875" height="1.875" fill="black"/>
<rect x="71" y="73.125" width="1.875" height="1.875" fill="black"/>
<rect x="72.875" y="73.125" width="1.875" height="1.875" fill="black"/>
<rect x="74.75" y="73.125" width="1.875" height="1.875" fill="black"/>
<rect x="76.625" y="63.75" width="1.875" height="1.875" fill="black"/>
<rect x="78.5" y="63.75" width="1.875" height="1.875" fill="black"/>
<rect x="80.375" y="63.75" width="1.875" height="1.875" fill="black"/>
<rect x="82.25" y="63.75" width="1.875" height="1.875" fill="black"/>
<rect x="84.125" y="63.75" width="1.875" height="1.875" fill="black"/>
<rect x="86" y="63.75" width="1.875" height="1.875" fill="black"/>
<rect x="87.875" y="63.75" width="1.875" height="1.875" fill="black"/>
<rect x="89.75" y="63.75" width="1.875" height="1.875" fill="black"/>
<rect x="50.375" y="56.25" width="1.875" height="1.875" fill="black"/>
<rect x="48.5" y="56.25" width="1.875" height="1.875" fill="black"/>
<rect x="44.75" y="56.25" width="1.875" height="1.875" fill="black"/>
<rect x="42.875" y="56.25" width="1.875" height="1.875" fill="black"/>
<rect x="46.625" y="56.25" width="1.875" height="1.875" fill="black"/>
<rect x="52.25" y="56.25" width="1.875" height="1.875" fill="black"/>
<rect x="54.125" y="56.25" width="1.875" height="1.875" fill="black"/>
<rect x="56" y="56.25" width="1.875" height="1.875" fill="black"/>
<rect x="57.875" y="56.25" width="1.875" height="1.875" fill="black"/>
<rect x="59.75" y="56.25" width="1.875" height="1.875" fill="black"/>
<rect x="61.625" y="56.25" width="1.875" height="1.875" fill="black"/>
<rect x="63.5" y="56.25" width="1.875" height="1.875" fill="black"/>
<rect x="65.375" y="56.25" width="1.875" height="1.875" fill="black"/>
<rect x="67.25" y="56.25" width="1.875" height="1.875" fill="black"/>
<rect x="69.125" y="56.25" width="1.875" height="1.875" fill="black"/>
<rect x="71" y="56.25" width="1.875" height="1.875" fill="black"/>
<rect x="72.875" y="56.25" width="1.875" height="1.875" fill="black"/>
<rect x="74.75" y="56.25" width="1.875" height="1.875" fill="black"/>
<rect x="76.625" y="56.25" width="1.875" height="1.875" fill="black"/>
<rect x="78.5" y="56.25" width="1.875" height="1.875" fill="black"/>
<rect x="80.375" y="56.25" width="1.875" height="1.875" fill="black"/>
<rect x="82.25" y="56.25" width="1.875" height="1.875" fill="black"/>
<rect x="84.125" y="56.25" width="1.875" height="1.875" fill="black"/>
<rect x="86" y="56.25" width="1.875" height="1.875" fill="black"/>
<rect x="87.875" y="56.25" width="1.875" height="1.875" fill="black"/>
<rect x="89.75" y="56.25" width="1.875" height="1.875" fill="black"/>
<rect x="91.625" y="37.5" width="1.875" height="1.875" fill="black"/>
<rect x="91.625" y="35.625" width="1.875" height="1.875" fill="black"/>
<rect x="91.625" y="33.75" width="1.875" height="1.875" fill="black"/>
<rect x="72.875" y="15" width="1.875" height="1.875" fill="#6D6D6D"/>
<rect x="71" y="15" width="1.875" height="1.875" fill="#6D6D6D"/>
<rect x="67.25" y="15" width="1.875" height="1.875" fill="#6D6D6D"/>
<rect x="46.625" y="20.625" width="1.875" height="1.875" fill="#6D6D6D"/>
<rect x="46.625" y="18.75" width="1.875" height="1.875" fill="#6D6D6D"/>
<rect x="46.625" y="16.875" width="1.875" height="1.875" fill="#6D6D6D"/>
<rect x="46.625" y="15" width="1.875" height="1.875" fill="#6D6D6D"/>
<rect x="48.5" y="15" width="1.875" height="1.875" fill="#6D6D6D"/>
<rect x="65.375" y="15" width="1.875" height="1.875" fill="#6D6D6D"/>
<rect x="46.625" y="24.375" width="1.875" height="1.875" fill="#6D6D6D"/>
<rect x="46.625" y="26.25" width="1.875" height="1.875" fill="#6D6D6D"/>
<rect x="46.625" y="28.125" width="1.875" height="1.875" fill="#6D6D6D"/>
<rect x="46.625" y="30" width="1.875" height="1.875" fill="#6D6D6D"/>
<rect x="46.625" y="33.75" width="1.875" height="1.875" fill="#6D6D6D"/>
<rect x="46.625" y="35.625" width="1.875" height="1.875" fill="#6D6D6D"/>
<rect x="46.625" y="37.5" width="1.875" height="1.875" fill="#6D6D6D"/>
<rect x="46.625" y="39.375" width="1.875" height="1.875" fill="#6D6D6D"/>
<rect x="46.625" y="41.25" width="1.875" height="1.875" fill="#6D6D6D"/>
<rect x="46.625" y="43.125" width="1.875" height="1.875" fill="#6D6D6D"/>
<rect x="46.625" y="45" width="1.875" height="1.875" fill="#6D6D6D"/>
<rect x="86" y="37.5" width="1.875" height="1.875" fill="#6D6D6D"/>
<rect x="86" y="39.375" width="1.875" height="1.875" fill="#6D6D6D"/>
<rect x="86" y="41.25" width="1.875" height="1.875" fill="#6D6D6D"/>
<rect x="86" y="43.125" width="1.875" height="1.875" fill="#6D6D6D"/>
<rect x="86" y="45" width="1.875" height="1.875" fill="#6D6D6D"/>
<rect x="86" y="24.375" width="1.875" height="1.875" fill="#6D6D6D"/>
<rect x="86" y="22.5" width="1.875" height="1.875" fill="#6D6D6D"/>
<rect x="46.625" y="22.5" width="1.875" height="1.875" fill="#6D6D6D"/>
<rect x="86" y="26.25" width="1.875" height="1.875" fill="#6D6D6D"/>
<rect x="86" y="28.125" width="1.875" height="1.875" fill="#6D6D6D"/>
<rect x="86" y="30" width="1.875" height="1.875" fill="#6D6D6D"/>
<rect x="86" y="33.75" width="1.875" height="1.875" fill="#6D6D6D"/>
<rect x="86" y="35.625" width="1.875" height="1.875" fill="#6D6D6D"/>
<rect x="69.125" y="15" width="1.875" height="1.875" fill="#6D6D6D"/>
<rect x="74.75" y="15" width="1.875" height="1.875" fill="#6D6D6D"/>
<rect x="82.25" y="15" width="1.875" height="1.875" fill="#6D6D6D"/>
<rect x="80.375" y="15" width="1.875" height="1.875" fill="#6D6D6D"/>
<rect x="76.625" y="15" width="1.875" height="1.875" fill="#6D6D6D"/>
<rect x="78.5" y="15" width="1.875" height="1.875" fill="#6D6D6D"/>
<rect x="84.125" y="15" width="1.875" height="1.875" fill="#6D6D6D"/>
<rect x="86" y="15" width="1.875" height="1.875" fill="#6D6D6D"/>
<rect x="56" y="15" width="1.875" height="1.875" fill="#6D6D6D"/>
<rect x="54.125" y="15" width="1.875" height="1.875" fill="#6D6D6D"/>
<rect x="50.375" y="15" width="1.875" height="1.875" fill="#6D6D6D"/>
<rect x="52.25" y="15" width="1.875" height="1.875" fill="#6D6D6D"/>
<rect x="57.875" y="15" width="1.875" height="1.875" fill="#6D6D6D"/>
<rect x="59.75" y="15" width="1.875" height="1.875" fill="#6D6D6D"/>
<rect x="61.625" y="15" width="1.875" height="1.875" fill="#6D6D6D"/>
<rect x="63.5" y="15" width="1.875" height="1.875" fill="#6D6D6D"/>
<rect x="57.875" y="46.875" width="1.875" height="1.875" fill="#6D6D6D"/>
<rect x="56" y="46.875" width="1.875" height="1.875" fill="#6D6D6D"/>
<rect x="52.25" y="46.875" width="1.875" height="1.875" fill="#6D6D6D"/>
<rect x="50.375" y="46.875" width="1.875" height="1.875" fill="#6D6D6D"/>
<rect x="46.625" y="46.875" width="1.875" height="1.875" fill="#6D6D6D"/>
<rect x="48.5" y="46.875" width="1.875" height="1.875" fill="#6D6D6D"/>
<rect x="54.125" y="46.875" width="1.875" height="1.875" fill="#6D6D6D"/>
<rect x="59.75" y="46.875" width="1.875" height="1.875" fill="#6D6D6D"/>
<rect x="61.625" y="46.875" width="1.875" height="1.875" fill="#6D6D6D"/>
<rect x="63.5" y="46.875" width="1.875" height="1.875" fill="#6D6D6D"/>
<rect x="65.375" y="46.875" width="1.875" height="1.875" fill="#6D6D6D"/>
<rect x="67.25" y="46.875" width="1.875" height="1.875" fill="#6D6D6D"/>
<rect x="69.125" y="46.875" width="1.875" height="1.875" fill="#6D6D6D"/>
<rect x="71" y="46.875" width="1.875" height="1.875" fill="#6D6D6D"/>
<rect x="72.875" y="46.875" width="1.875" height="1.875" fill="#6D6D6D"/>
<rect x="74.75" y="46.875" width="1.875" height="1.875" fill="#6D6D6D"/>
<rect x="76.625" y="46.875" width="1.875" height="1.875" fill="#6D6D6D"/>
<rect x="78.5" y="46.875" width="1.875" height="1.875" fill="#6D6D6D"/>
<rect x="80.375" y="46.875" width="1.875" height="1.875" fill="#6D6D6D"/>
<rect x="82.25" y="46.875" width="1.875" height="1.875" fill="#6D6D6D"/>
<rect x="84.125" y="46.875" width="1.875" height="1.875" fill="#6D6D6D"/>
<rect x="86" y="46.875" width="1.875" height="1.875" fill="#6D6D6D"/>
<rect x="86" y="20.625" width="1.875" height="1.875" fill="#6D6D6D"/>
<rect x="86" y="18.75" width="1.875" height="1.875" fill="#6D6D6D"/>
<rect x="86" y="16.875" width="1.875" height="1.875" fill="#6D6D6D"/>
<rect x="79.25" y="46.875" width="1.875" height="1.875" fill="#1E1E1E"/>
<rect x="79.25" y="45" width="1.875" height="1.875" fill="#1E1E1E"/>
<rect x="83" y="48.75" width="1.875" height="1.875" fill="#1E1E1E"/>
<rect x="81.875" y="47.625" width="1.875" height="1.875" fill="#1E1E1E"/>
<rect x="81.125" y="45" width="1.875" height="1.875" fill="#1E1E1E"/>
<rect x="102" y="85" width="5" height="5" fill="#1E1E1E"/>
<rect x="102" y="80" width="5" height="5" fill="#1E1E1E"/>
<rect x="112" y="90" width="5" height="5" fill="#1E1E1E"/>
<rect x="109" y="87" width="5" height="5" fill="#1E1E1E"/>
<rect x="107" y="80" width="5" height="5" fill="#1E1E1E"/>
</svg>
