<svg width="140" height="160" viewBox="0 0 140 160" fill="none" xmlns="http://www.w3.org/2000/svg">
<rect width="140" height="160" fill="#335BDF"/>
<rect x="130" y="50" width="5" height="5" fill="#FFFD57"/>
<path d="M130 60H135V70H130V60Z" fill="#FFFD57"/>
<path d="M130 75H135V80H130V75Z" fill="#FFFD57"/>
<path d="M125 75H130V80H125V75Z" fill="#FFFD57"/>
<path d="M120 75H125V80H120V75Z" fill="#FFFD57"/>
<rect x="125" y="50" width="5" height="5" fill="#FFFD57"/>
<rect x="120" y="50" width="5" height="5" fill="#FFFD57"/>
<rect x="115" y="55" width="5" height="5" fill="#FFFD57"/>
<rect x="120" y="55" width="5" height="5" fill="#FFFD57"/>
<rect x="115" y="60" width="5" height="5" fill="#FFFD57"/>
<rect x="115" y="65" width="5" height="5" fill="#FFFD57"/>
<rect x="115" y="70" width="5" height="5" fill="#FFFD57"/>
<rect x="85" y="75" width="5" height="5" fill="#FFFD57"/>
<rect x="85" y="80" width="5" height="5" fill="#FFFD57"/>
<rect x="60" y="85" width="5" height="5" fill="#FFFD57"/>
<rect x="65" y="90" width="5" height="5" fill="#FFFD57"/>
<rect x="80" y="70" width="5" height="5" fill="#FFFD57"/>
<rect x="80" y="45" width="5" height="5" fill="#FFFD57"/>
<rect x="85" y="35" width="5" height="5" fill="#FFFD57"/>
<rect x="80" y="35" width="5" height="5" fill="#FFFD57"/>
<rect x="45" y="40" width="10" height="10" fill="#FFFD57"/>
<rect x="10" y="70" width="5" height="5" fill="#FFFD57"/>
<rect x="10" y="45" width="5" height="5" fill="#FFFD57"/>
<rect x="5" y="110" width="5" height="5" fill="#FFFD57"/>
<rect x="10" y="115" width="5" height="5" fill="#FFFD57"/>
<rect x="85" y="45" width="5" height="5" fill="#FFFD57"/>
<rect x="80" y="50" width="5" height="5" fill="#FFFD57"/>
<rect x="50" y="105" width="5" height="5" fill="#FFFD57"/>
<rect x="35" y="105" width="5" height="5" fill="#FFFD57"/>
<rect x="35" y="100" width="5" height="5" fill="#FFFD57"/>
<rect x="40" y="110" width="5" height="5" fill="#FFFD57"/>
<rect x="45" y="110" width="5" height="5" fill="#FFFD57"/>
<rect x="40" y="95" width="10" height="5" fill="#FFFD57"/>
<rect x="50" y="100" width="5" height="5" fill="#FFFD57"/>
<rect x="70" y="70" width="5" height="5" fill="#FFFD57"/>
<rect x="65" y="65" width="5" height="5" fill="#FFFD57"/>
<rect x="100" y="70" width="5" height="5" fill="#FFFD57"/>
<rect x="100" y="65" width="5" height="5" fill="#FFFD57"/>
<rect x="95" y="65" width="5" height="5" fill="#FFFD57"/>
<rect x="95" y="70" width="5" height="5" fill="#FFFD57"/>
<rect x="130" y="45" width="5" height="5" fill="#50ACEB"/>
<rect x="125" y="45" width="5" height="5" fill="#50ACEB"/>
<rect x="120" y="45" width="5" height="5" fill="#50ACEB"/>
<rect x="115" y="50" width="5" height="5" fill="#50ACEB"/>
<rect x="110" y="55" width="5" height="5" fill="#50ACEB"/>
<rect x="110" y="60" width="5" height="5" fill="#50ACEB"/>
<rect x="110" y="65" width="5" height="5" fill="#50ACEB"/>
<rect x="110" y="70" width="5" height="5" fill="#50ACEB"/>
<rect x="105" y="70" width="5" height="5" fill="#50ACEB"/>
<rect x="100" y="75" width="5" height="5" fill="#50ACEB"/>
<rect x="95" y="75" width="5" height="5" fill="#50ACEB"/>
<path d="M75 80H80V85H75V80Z" fill="#50ACEB"/>
<rect x="75" y="70" width="5" height="5" fill="#50ACEB"/>
<rect x="75" y="75" width="5" height="5" fill="#50ACEB"/>
<rect x="70" y="65" width="5" height="5" fill="#50ACEB"/>
<rect x="60" y="60" width="5" height="5" fill="#50ACEB"/>
<rect x="65" y="55" width="10" height="5" fill="#50ACEB"/>
<rect x="80" y="55" width="10" height="5" fill="#50ACEB"/>
<rect x="75" y="45" width="5" height="10" fill="#50ACEB"/>
<rect x="55" y="40" width="5" height="10" fill="#50ACEB"/>
<rect x="45" y="50" width="10" height="5" fill="#50ACEB"/>
<rect x="45" y="35" width="10" height="5" fill="#50ACEB"/>
<rect x="80" y="40" width="10" height="5" fill="#50ACEB"/>
<rect x="45" y="60" width="10" height="5" fill="#50ACEB"/>
<rect x="40" y="65" width="5" height="5" fill="#50ACEB"/>
<rect x="40" y="75" width="5" height="5" fill="#50ACEB"/>
<rect x="45" y="80" width="5" height="5" fill="#50ACEB"/>
<rect x="35" y="80" width="5" height="5" fill="#50ACEB"/>
<rect x="40" y="85" width="5" height="5" fill="#50ACEB"/>
<rect x="40" y="90" width="10" height="5" fill="#50ACEB"/>
<rect x="35" y="95" width="5" height="5" fill="#50ACEB"/>
<rect x="50" y="95" width="5" height="5" fill="#50ACEB"/>
<rect x="35" y="110" width="5" height="5" fill="#50ACEB"/>
<rect x="50" y="110" width="5" height="5" fill="#50ACEB"/>
<rect x="55" y="100" width="5" height="10" fill="#50ACEB"/>
<rect x="45" y="115" width="5" height="5" fill="#50ACEB"/>
<rect x="30" y="100" width="5" height="10" fill="#50ACEB"/>
<rect x="30" y="50" width="5" height="5" fill="#50ACEB"/>
<rect x="35" y="55" width="5" height="10" fill="#50ACEB"/>
<rect x="25" y="65" width="10" height="5" fill="#50ACEB"/>
<rect x="40" y="40" width="5" height="10" fill="#50ACEB"/>
<rect x="5" y="45" width="5" height="5" fill="#50ACEB"/>
<rect x="15" y="45" width="5" height="5" fill="#50ACEB"/>
<rect x="10" y="55" width="5" height="5" fill="#50ACEB"/>
<rect x="10" y="35" width="5" height="5" fill="#50ACEB"/>
<rect x="5" y="40" width="15" height="5" fill="#50ACEB"/>
<rect x="15" y="60" width="5" height="5" fill="#50ACEB"/>
<rect x="10" y="105" width="5" height="5" fill="#50ACEB"/>
<rect x="10" y="125" width="5" height="5" fill="#50ACEB"/>
<rect x="5" y="120" width="5" height="5" fill="#50ACEB"/>
<rect x="10" y="75" width="10" height="5" fill="#50ACEB"/>
<rect x="5" y="95" width="10" height="5" fill="#50ACEB"/>
<rect x="5" y="65" width="5" height="10" fill="#50ACEB"/>
<rect x="5" y="50" width="15" height="5" fill="#50ACEB"/>
<rect x="90" y="45" width="5" height="10" fill="#50ACEB"/>
<rect x="90" y="70" width="5" height="5" fill="#50ACEB"/>
<rect x="90" y="65" width="5" height="5" fill="#50ACEB"/>
<rect x="95" y="60" width="5" height="5" fill="#50ACEB"/>
<rect x="100" y="60" width="5" height="5" fill="#50ACEB"/>
<rect x="105" y="65" width="5" height="5" fill="#50ACEB"/>
<rect x="115" y="75" width="5" height="5" fill="#50ACEB"/>
<rect x="120" y="80" width="5" height="5" fill="#50ACEB"/>
<rect x="125" y="80" width="5" height="5" fill="#50ACEB"/>
<rect x="105" y="95" width="5" height="5" fill="#50ACEB"/>
<rect x="105" y="90" width="5" height="5" fill="#50ACEB"/>
<rect x="100" y="90" width="5" height="5" fill="#50ACEB"/>
<rect x="100" y="85" width="5" height="5" fill="#50ACEB"/>
<rect x="95" y="85" width="5" height="5" fill="#50ACEB"/>
<rect x="90" y="85" width="5" height="5" fill="#50ACEB"/>
<rect x="85" y="90" width="5" height="5" fill="#50ACEB"/>
<rect x="80" y="95" width="5" height="5" fill="#50ACEB"/>
<rect x="70" y="85" width="5" height="5" fill="#50ACEB"/>
<rect x="65" y="95" width="5" height="5" fill="#50ACEB"/>
<rect x="60" y="90" width="5" height="5" fill="#50ACEB"/>
<rect x="55" y="80" width="5" height="10" fill="#50ACEB"/>
<rect x="70" y="100" width="10" height="5" fill="#50ACEB"/>
<rect x="110" y="100" width="5" height="5" fill="#50ACEB"/>
<rect x="105" y="105" width="5" height="5" fill="#50ACEB"/>
<rect x="115" y="105" width="5" height="5" fill="#50ACEB"/>
<rect x="110" y="110" width="5" height="5" fill="#50ACEB"/>
<rect x="125" y="115" width="5" height="5" fill="#50ACEB"/>
<rect x="105" y="120" width="20" height="5" fill="#50ACEB"/>
<rect x="98" y="125" width="17" height="5" fill="#50ACEB"/>
<rect x="85" y="130" width="20" height="5" fill="#50ACEB"/>
<rect x="130" y="80" width="5" height="5" fill="#50ACEB"/>
<rect x="110" y="50" width="5" height="5" fill="white"/>
<rect x="105" y="50" width="5" height="5" fill="white"/>
<rect x="100" y="55" width="5" height="5" fill="white"/>
<rect x="85" y="70" width="5" height="5" fill="white"/>
<rect x="80" y="65" width="5" height="5" fill="white"/>
<rect x="65" y="60" width="15" height="5" fill="white"/>
<rect x="80" y="85" width="5" height="5" fill="white"/>
<rect x="65" y="100" width="5" height="5" fill="white"/>
<rect x="60" y="95" width="5" height="5" fill="white"/>
<rect x="60" y="80" width="5" height="5" fill="white"/>
<rect x="65" y="85" width="5" height="5" fill="white"/>
<rect x="70" y="75" width="5" height="10" fill="white"/>
<rect x="55" y="75" width="5" height="5" fill="white"/>
<rect x="25" y="75" width="5" height="5" fill="white"/>
<rect x="5" y="60" width="5" height="5" fill="white"/>
<rect x="10" y="65" width="5" height="5" fill="white"/>
<rect x="15" y="70" width="5" height="5" fill="white"/>
<rect x="10" y="100" width="5" height="5" fill="white"/>
<rect x="5" y="105" width="5" height="5" fill="white"/>
<rect x="5" y="115" width="5" height="5" fill="white"/>
<rect x="10" y="120" width="5" height="5" fill="white"/>
<rect x="5" y="75" width="5" height="10" fill="white"/>
<rect x="35" y="75" width="5" height="5" fill="white"/>
<rect x="40" y="70" width="5" height="5" fill="white"/>
<rect x="40" y="80" width="5" height="5" fill="white"/>
<rect x="30" y="80" width="5" height="10" fill="white"/>
<rect x="60" y="75" width="5" height="5" fill="white"/>
<rect x="65" y="70" width="5" height="5" fill="white"/>
<rect x="45" y="65" width="20" height="5" fill="white"/>
<rect x="55" y="90" width="5" height="5" fill="white"/>
<rect x="50" y="80" width="5" height="10" fill="white"/>
<rect x="70" y="90" width="15" height="5" fill="white"/>
<rect x="130" y="85" width="5" height="5" fill="white"/>
<rect x="120" y="90" width="5" height="5" fill="white"/>
<rect x="110" y="90" width="5" height="5" fill="white"/>
<rect x="100" y="95" width="5" height="5" fill="white"/>
<rect x="100" y="100" width="5" height="5" fill="white"/>
<rect x="95" y="100" width="5" height="5" fill="white"/>
<rect x="100" y="110" width="5" height="5" fill="white"/>
<rect x="95" y="110" width="5" height="5" fill="white"/>
<rect x="90" y="110" width="5" height="5" fill="white"/>
<rect x="85" y="110" width="5" height="5" fill="white"/>
<rect x="85" y="110" width="5" height="5" fill="white"/>
<rect x="85" y="115" width="5" height="5" fill="white"/>
<rect x="80" y="115" width="5" height="5" fill="white"/>
<rect x="75" y="115" width="5" height="5" fill="white"/>
<rect x="70" y="115" width="5" height="5" fill="white"/>
<rect x="65" y="120" width="5" height="5" fill="white"/>
<rect x="60" y="125" width="5" height="5" fill="white"/>
<rect x="55" y="125" width="5" height="5" fill="white"/>
<rect x="105" y="85" width="5" height="5" fill="white"/>
<rect x="100" y="80" width="5" height="5" fill="white"/>
<rect x="95" y="80" width="5" height="5" fill="white"/>
<rect x="115" y="45" width="5" height="5" fill="white"/>
<rect x="120" y="40" width="5" height="5" fill="white"/>
<rect x="125" y="40" width="10" height="5" fill="white"/>
<rect x="125" y="5" width="10" height="5" fill="white"/>
<rect x="120" y="10" width="5" height="5" fill="white"/>
<rect x="115" y="15" width="5" height="10" fill="white"/>
<rect x="110" y="25" width="5" height="5" fill="white"/>
<rect x="90" y="40" width="5" height="5" fill="white"/>
<rect x="5" y="10" width="5" height="5" fill="white"/>
<rect x="10" y="15" width="5" height="5" fill="white"/>
<rect x="45" y="30" width="7" height="5" fill="white"/>
<rect x="33" y="35" width="12" height="5" fill="white"/>
<rect x="20" y="40" width="14" height="5" fill="white"/>
<rect x="30" y="20" width="8" height="5" fill="white"/>
<rect x="34" y="10" width="5" height="10" fill="white"/>
<rect x="47" y="5" width="5" height="10" fill="white"/>
<rect x="52" y="5" width="10" height="5" fill="white"/>
<rect x="15" y="20" width="9" height="5" fill="white"/>
<rect x="24" y="25" width="9" height="5" fill="white"/>
<rect x="100" y="30" width="10" height="5" fill="white"/>
<rect x="90" y="35" width="10" height="5" fill="white"/>
<rect x="70" y="40" width="10" height="5" fill="white"/>
<rect x="60" y="45" width="10" height="5" fill="white"/>
<rect x="130" y="100" width="5" height="5" fill="black"/>
<rect x="130" y="105" width="5" height="5" fill="black"/>
<rect x="130" y="110" width="5" height="5" fill="black"/>
<rect x="125" y="110" width="5" height="5" fill="black"/>
<rect x="125" y="105" width="5" height="5" fill="black"/>
<rect x="120" y="110" width="5" height="5" fill="black"/>
<rect x="90" y="120" width="5" height="5" fill="black"/>
<rect x="15" y="150" width="40" height="5" fill="black"/>
<rect x="10" y="145" width="45" height="5" fill="black"/>
<rect x="15" y="110" width="20" height="30" fill="black"/>
<rect x="10" y="140" width="40" height="5" fill="black"/>
<rect x="10" y="130" width="40" height="5" fill="black"/>
<rect x="37" y="125" width="8" height="5" fill="black"/>
<rect x="15" y="110" width="20" height="20" fill="black"/>
<rect x="15" y="80" width="15" height="30" fill="black"/>
<rect x="20" y="50" width="5" height="30" fill="black"/>
<rect x="25" y="45" width="5" height="10" fill="black"/>
<rect x="37" y="120" width="3" height="5" fill="black"/>
<rect x="40" y="115" width="5" height="5" fill="black"/>
<rect x="10" y="135" width="45" height="5" fill="black"/>
<rect x="10" y="130" width="40" height="15" fill="black"/>
<rect x="15" y="130" width="35" height="25" fill="black"/>
<rect x="90" y="115" width="35" height="5" fill="black"/>
<rect x="105" y="130" width="30" height="5" fill="#3C8F58"/>
<rect x="120" y="135" width="15" height="5" fill="#3C8F58"/>
<rect x="125" y="140" width="10" height="5" fill="#3C8F58"/>
<rect x="85" y="140" width="25" height="5" fill="#3C8F58"/>
<rect x="70" y="145" width="20" height="5" fill="#3C8F58"/>
<rect x="60" y="140" width="8" height="5" fill="#3C8F58"/>
<rect x="85" y="135" width="25" height="5" fill="#3C8F58"/>
<rect x="95" y="145" width="5" height="5" fill="#3C8F58"/>
<rect x="5" y="150" width="5" height="5" fill="#3C8F58"/>
<rect x="10" y="150" width="5" height="5" fill="#3C8F58"/>
<rect x="5" y="145" width="5" height="5" fill="#3C8F58"/>
<rect x="5" y="140" width="5" height="5" fill="#3C8F58"/>
<rect x="110" y="135" width="10" height="5" fill="#7B7B7B"/>
<rect x="100" y="145" width="5" height="5" fill="#7B7B7B"/>
<rect x="110" y="140" width="15" height="5" fill="#7B7B7B"/>
<rect x="90" y="145" width="5" height="5" fill="#7B7B7B"/>
<rect x="50" y="140" width="5" height="5" fill="#7B7B7B"/>
<rect x="55" y="140" width="5" height="5" fill="#7B7B7B"/>
<rect x="80" y="140" width="5" height="5" fill="#7B7B7B"/>
<rect x="78" y="125" width="7" height="10" fill="#7B7B7B"/>
<rect x="75" y="140" width="5" height="5" fill="#7B7B7B"/>
<rect x="68" y="140" width="7" height="5" fill="#7B7B7B"/>
<rect x="70" y="135" width="15" height="5" fill="#7B7B7B"/>
<rect x="55" y="145" width="15" height="5" fill="#7B7B7B"/>
<rect x="55" y="150" width="55" height="5" fill="#7B7B7B"/>
<rect x="55" y="150" width="55" height="5" fill="#7B7B7B"/>
<rect x="105" y="145" width="30" height="5" fill="#3C8F58"/>
<rect x="110" y="150" width="25" height="5" fill="#3C8F58"/>
<path d="M115 95H120V100H115V95Z" fill="#FFFD57"/>
<path d="M120 95H125V100H120V95Z" fill="#FFFD57"/>
<path d="M110 105H115V110H110V105Z" fill="#FFFD57"/>
<rect x="125" y="55" width="10" height="5" fill="#F7C23E"/>
<rect x="125" y="60" width="5" height="10" fill="#F7C23E"/>
<rect x="120" y="60" width="5" height="10" fill="#F7C23E"/>
<rect x="120" y="70" width="5" height="5" fill="#F7C23E"/>
<rect x="85" y="85" width="5" height="5" fill="#F7C23E"/>
<rect x="85" y="50" width="5" height="5" fill="#F7C23E"/>
<rect x="100" y="15" width="5" height="5" fill="#FFFD57"/>
<rect x="105" y="15" width="5" height="5" fill="#FFFD57"/>
<rect x="100" y="20" width="5" height="5" fill="#FFFD57"/>
<rect x="100" y="25" width="10" height="5" fill="#50ACEB"/>
<rect x="95" y="15" width="5" height="10" fill="#50ACEB"/>
<rect x="100" y="10" width="10" height="5" fill="#50ACEB"/>
<rect x="110" y="15" width="5" height="10" fill="#50ACEB"/>
<rect x="77" y="20" width="5" height="10" fill="#50ACEB"/>
<rect x="81" y="25" width="5" height="10" fill="#50ACEB"/>
<rect x="105" y="20" width="5" height="5" fill="#F7C23E"/>
<rect x="67" y="5" width="5" height="5" fill="#FFFD57"/>
<rect x="72" y="5" width="5" height="5" fill="#FFFD57"/>
<rect x="67" y="10" width="5" height="5" fill="#FFFD57"/>
<rect x="67" y="15" width="10" height="5" fill="#50ACEB"/>
<rect x="57" y="20" width="10" height="5" fill="#50ACEB"/>
<rect x="52" y="25" width="5" height="5" fill="#50ACEB"/>
<rect x="38" y="30" width="7" height="5" fill="#50ACEB"/>
<rect x="62" y="5" width="5" height="10" fill="#50ACEB"/>
<rect x="67" width="10" height="5" fill="#50ACEB"/>
<rect x="77" y="5" width="5" height="10" fill="#50ACEB"/>
<rect x="72" y="10" width="5" height="5" fill="#F7C23E"/>
<rect x="24" width="5" height="5" fill="#FFFD57"/>
<rect x="29" width="5" height="5" fill="#FFFD57"/>
<rect x="24" y="5" width="5" height="5" fill="#FFFD57"/>
<rect x="24" y="10" width="10" height="5" fill="#50ACEB"/>
<rect x="19" width="5" height="10" fill="#50ACEB"/>
<rect x="34" width="5" height="10" fill="#50ACEB"/>
<rect x="29" y="5" width="5" height="5" fill="#F7C23E"/>
<rect x="25" y="55" width="10" height="10" fill="#F7C23E"/>
<rect x="40" y="100" width="10" height="10" fill="#F7C23E"/>
<path d="M130 90H135V95H130V90Z" fill="#FFFD57"/>
<path d="M125 90H130V95H125V90Z" fill="#FFFD57"/>
<rect x="125" y="70" width="10" height="5" fill="#F7C23E"/>
<rect width="140" height="5" fill="black"/>
<rect y="155" width="140" height="5" fill="black"/>
<rect y="155" width="150" height="5" transform="rotate(-90 0 155)" fill="black"/>
<rect x="135" y="155" width="150" height="5" transform="rotate(-90 135 155)" fill="black"/>
</svg>
