<svg width="404" height="519" viewBox="0 0 404 519" fill="none" xmlns="http://www.w3.org/2000/svg">
<path d="M1 160.999C1 136.146 21.1472 115.999 46 115.999H403V472.999C403 497.852 382.853 517.999 358 517.999H46C21.1472 517.999 1 497.852 1 472.999V160.999Z" fill="white"/>
<path d="M1 46.999C1 22.1462 21.1472 1.99902 46 1.99902H321V472.999C321 497.852 300.853 517.999 276 517.999H46C21.1472 517.999 1 497.852 1 472.999V46.999Z" fill="white"/>
<path d="M321.618 2L402.595 118.537L308.977 183.588L228 67.0515L321.618 2Z" fill="white"/>
<line x1="2.88574" y1="478.308" x2="2.88574" y2="41.6901" stroke="#CB34A5" stroke-width="5"/>
<line x1="41.1709" y1="3.46826" x2="325" y2="3.46826" stroke="#CB34A5" stroke-width="5"/>
<path d="M400.939 116.936L323 2.5" stroke="#CB34A5" stroke-width="5"/>
<line x1="321.772" y1="97.2607" x2="321.772" y2="1.99921" stroke="#CB34A5" stroke-width="5"/>
<line x1="343.358" y1="118.576" x2="403" y2="118.576" stroke="#CB34A5" stroke-width="5"/>
<path d="M343.5 118.499C335.5 118.499 321.5 116.499 322 96.999" stroke="#CB34A5" stroke-width="5"/>
<path d="M3 477.999C2.99988 493.499 9.70012 516.299 42.5001 515.499" stroke="#CB34A5" stroke-width="5"/>
<line x1="400.5" y1="478.307" x2="400.5" y2="115.519" stroke="#CB34A5" stroke-width="5"/>
<line x1="41.1709" y1="515.499" x2="363.238" y2="515.499" stroke="#CB34A5" stroke-width="5"/>
<path d="M362.046 516.015C375.167 516.015 401.012 511.887 401.012 476.322" stroke="#CB34A5" stroke-width="5"/>
<path d="M43.1589 3.98374C28.8448 3.58692 3.39746 10.4139 3.39746 44.073" stroke="#CB34A5" stroke-width="5"/>
<mask id="path-15-outside-1_398_24" maskUnits="userSpaceOnUse" x="92" y="194.999" width="223" height="130" fill="black">
<rect fill="white" x="92" y="194.999" width="223" height="130"/>
<path d="M93.7955 321.999V198.363H142.574C151.951 198.363 159.94 200.154 166.541 203.736C173.141 207.277 178.172 212.207 181.633 218.526C185.134 224.804 186.885 232.049 186.885 240.259C186.885 248.469 185.114 255.714 181.573 261.992C178.031 268.27 172.899 273.16 166.178 276.662C159.497 280.163 151.408 281.914 141.91 281.914H110.82V260.966H137.684C142.715 260.966 146.86 260.1 150.12 258.37C153.42 256.599 155.875 254.164 157.485 251.065C159.135 247.926 159.96 244.324 159.96 240.259C159.96 236.154 159.135 232.572 157.485 229.513C155.875 226.414 153.42 224.02 150.12 222.329C146.82 220.599 142.634 219.733 137.563 219.733H119.935V321.999H93.7955ZM312.951 241.647H286.51C286.027 238.227 285.041 235.188 283.551 232.532C282.062 229.835 280.151 227.541 277.816 225.65C275.482 223.758 272.786 222.309 269.727 221.303C266.708 220.297 263.428 219.794 259.887 219.794C253.487 219.794 247.913 221.383 243.164 224.563C238.415 227.702 234.733 232.29 232.117 238.327C229.501 244.324 228.193 251.608 228.193 260.181C228.193 268.995 229.501 276.4 232.117 282.397C234.773 288.393 238.476 292.921 243.225 295.98C247.974 299.039 253.467 300.568 259.706 300.568C263.207 300.568 266.447 300.105 269.425 299.179C272.443 298.254 275.12 296.906 277.454 295.135C279.788 293.324 281.72 291.13 283.25 288.554C284.819 285.979 285.906 283.041 286.51 279.741L312.951 279.861C312.267 285.536 310.557 291.009 307.82 296.282C305.123 301.514 301.481 306.202 296.893 310.348C292.345 314.453 286.912 317.713 280.593 320.128C274.315 322.502 267.211 323.689 259.283 323.689C248.255 323.689 238.395 321.194 229.702 316.204C221.049 311.213 214.207 303.989 209.176 294.531C204.186 285.073 201.691 273.623 201.691 260.181C201.691 246.698 204.226 235.228 209.297 225.77C214.368 216.312 221.25 209.108 229.943 204.158C238.637 199.168 248.416 196.672 259.283 196.672C266.447 196.672 273.087 197.678 279.205 199.691C285.362 201.703 290.816 204.641 295.565 208.505C300.314 212.328 304.178 217.017 307.156 222.571C310.174 228.125 312.106 234.484 312.951 241.647Z"/>
</mask>
<path d="M93.7955 321.999V198.363H142.574C151.951 198.363 159.94 200.154 166.541 203.736C173.141 207.277 178.172 212.207 181.633 218.526C185.134 224.804 186.885 232.049 186.885 240.259C186.885 248.469 185.114 255.714 181.573 261.992C178.031 268.27 172.899 273.16 166.178 276.662C159.497 280.163 151.408 281.914 141.91 281.914H110.82V260.966H137.684C142.715 260.966 146.86 260.1 150.12 258.37C153.42 256.599 155.875 254.164 157.485 251.065C159.135 247.926 159.96 244.324 159.96 240.259C159.96 236.154 159.135 232.572 157.485 229.513C155.875 226.414 153.42 224.02 150.12 222.329C146.82 220.599 142.634 219.733 137.563 219.733H119.935V321.999H93.7955ZM312.951 241.647H286.51C286.027 238.227 285.041 235.188 283.551 232.532C282.062 229.835 280.151 227.541 277.816 225.65C275.482 223.758 272.786 222.309 269.727 221.303C266.708 220.297 263.428 219.794 259.887 219.794C253.487 219.794 247.913 221.383 243.164 224.563C238.415 227.702 234.733 232.29 232.117 238.327C229.501 244.324 228.193 251.608 228.193 260.181C228.193 268.995 229.501 276.4 232.117 282.397C234.773 288.393 238.476 292.921 243.225 295.98C247.974 299.039 253.467 300.568 259.706 300.568C263.207 300.568 266.447 300.105 269.425 299.179C272.443 298.254 275.12 296.906 277.454 295.135C279.788 293.324 281.72 291.13 283.25 288.554C284.819 285.979 285.906 283.041 286.51 279.741L312.951 279.861C312.267 285.536 310.557 291.009 307.82 296.282C305.123 301.514 301.481 306.202 296.893 310.348C292.345 314.453 286.912 317.713 280.593 320.128C274.315 322.502 267.211 323.689 259.283 323.689C248.255 323.689 238.395 321.194 229.702 316.204C221.049 311.213 214.207 303.989 209.176 294.531C204.186 285.073 201.691 273.623 201.691 260.181C201.691 246.698 204.226 235.228 209.297 225.77C214.368 216.312 221.25 209.108 229.943 204.158C238.637 199.168 248.416 196.672 259.283 196.672C266.447 196.672 273.087 197.678 279.205 199.691C285.362 201.703 290.816 204.641 295.565 208.505C300.314 212.328 304.178 217.017 307.156 222.571C310.174 228.125 312.106 234.484 312.951 241.647Z" fill="#CB34A5"/>
<path d="M93.7955 321.999H92.7955V322.999H93.7955V321.999ZM93.7955 198.363V197.363H92.7955V198.363H93.7955ZM166.541 203.736L166.064 204.614L166.068 204.617L166.541 203.736ZM181.633 218.526L180.756 219.006L180.76 219.013L181.633 218.526ZM166.178 276.662L165.716 275.775L165.714 275.776L166.178 276.662ZM110.82 281.914H109.82V282.914H110.82V281.914ZM110.82 260.966V259.966H109.82V260.966H110.82ZM150.12 258.37L150.589 259.253L150.593 259.251L150.12 258.37ZM157.485 251.065L156.6 250.6L156.598 250.604L157.485 251.065ZM157.485 229.513L156.598 229.974L156.601 229.981L156.605 229.988L157.485 229.513ZM150.12 222.329L149.656 223.215L149.664 223.219L150.12 222.329ZM119.935 219.733V218.733H118.935V219.733H119.935ZM119.935 321.999V322.999H120.935V321.999H119.935ZM94.7955 321.999V198.363H92.7955V321.999H94.7955ZM93.7955 199.363H142.574V197.363H93.7955V199.363ZM142.574 199.363C151.825 199.363 159.642 201.129 166.064 204.614L167.018 202.857C160.239 199.178 152.077 197.363 142.574 197.363V199.363ZM166.068 204.617C172.505 208.071 177.392 212.865 180.756 219.006L182.51 218.046C178.952 211.55 173.777 206.484 167.013 202.854L166.068 204.617ZM180.76 219.013C184.167 225.123 185.885 232.195 185.885 240.259H187.885C187.885 231.903 186.102 224.486 182.506 218.039L180.76 219.013ZM185.885 240.259C185.885 248.321 184.147 255.392 180.702 261.501L182.444 262.483C186.081 256.035 187.885 248.617 187.885 240.259H185.885ZM180.702 261.501C177.26 267.601 172.275 272.358 165.716 275.775L166.64 277.549C173.524 273.962 178.802 268.939 182.444 262.483L180.702 261.501ZM165.714 275.776C159.209 279.185 151.287 280.914 141.91 280.914V282.914C151.529 282.914 159.786 281.141 166.643 277.547L165.714 275.776ZM141.91 280.914H110.82V282.914H141.91V280.914ZM111.82 281.914V260.966H109.82V281.914H111.82ZM110.82 261.966H137.684V259.966H110.82V261.966ZM137.684 261.966C142.822 261.966 147.142 261.083 150.589 259.253L149.651 257.487C146.579 259.118 142.608 259.966 137.684 259.966V261.966ZM150.593 259.251C154.057 257.392 156.663 254.817 158.373 251.526L156.598 250.604C155.088 253.511 152.784 255.806 149.647 257.489L150.593 259.251ZM158.37 251.53C160.106 248.228 160.96 244.462 160.96 240.259H158.96C158.96 244.186 158.164 247.624 156.6 250.6L158.37 251.53ZM160.96 240.259C160.96 236.018 160.107 232.267 158.365 229.038L156.605 229.988C158.163 232.877 158.96 236.29 158.96 240.259H160.96ZM158.373 229.052C156.661 225.757 154.049 223.218 150.576 221.439L149.664 223.219C152.792 224.821 155.09 227.071 156.598 229.974L158.373 229.052ZM150.585 221.444C147.099 219.616 142.74 218.733 137.563 218.733V220.733C142.528 220.733 146.541 221.582 149.656 223.215L150.585 221.444ZM137.563 218.733H119.935V220.733H137.563V218.733ZM118.935 219.733V321.999H120.935V219.733H118.935ZM119.935 320.999H93.7955V322.999H119.935V320.999ZM312.951 241.647V242.647H314.076L313.944 241.53L312.951 241.647ZM286.51 241.647L285.519 241.787L285.641 242.647H286.51V241.647ZM283.551 232.532L282.676 233.015L282.679 233.021L283.551 232.532ZM277.816 225.65L277.187 226.427L277.187 226.427L277.816 225.65ZM269.727 221.303L269.411 222.252L269.414 222.253L269.727 221.303ZM243.164 224.563L243.716 225.397L243.721 225.394L243.164 224.563ZM232.117 238.327L233.033 238.727L233.034 238.725L232.117 238.327ZM232.117 282.397L231.2 282.797L231.202 282.802L232.117 282.397ZM243.225 295.98L242.683 296.821L242.683 296.821L243.225 295.98ZM269.425 299.179L269.132 298.223L269.128 298.224L269.425 299.179ZM277.454 295.135L278.059 295.931L278.067 295.925L277.454 295.135ZM283.25 288.554L282.396 288.034L282.39 288.044L283.25 288.554ZM286.51 279.741L286.514 278.741L285.677 278.737L285.526 279.561L286.51 279.741ZM312.951 279.861L313.944 279.981L314.078 278.866L312.956 278.861L312.951 279.861ZM307.82 296.282L306.932 295.821L306.931 295.824L307.82 296.282ZM296.893 310.348L297.563 311.09L297.563 311.09L296.893 310.348ZM280.593 320.128L280.947 321.063L280.95 321.062L280.593 320.128ZM229.702 316.204L229.202 317.07L229.204 317.071L229.702 316.204ZM209.176 294.531L208.292 294.998L208.294 295.001L209.176 294.531ZM209.297 225.77L210.178 226.243L210.178 226.243L209.297 225.77ZM229.943 204.158L230.438 205.027L230.441 205.025L229.943 204.158ZM279.205 199.691L278.892 200.641L278.894 200.641L279.205 199.691ZM295.565 208.505L294.934 209.28L294.938 209.284L295.565 208.505ZM307.156 222.571L306.275 223.043L306.277 223.048L307.156 222.571ZM312.951 240.647H286.51V242.647H312.951V240.647ZM287.5 241.508C287.002 237.98 285.981 234.821 284.424 232.043L282.679 233.021C284.1 235.555 285.051 238.473 285.519 241.787L287.5 241.508ZM284.427 232.048C282.877 229.242 280.883 226.847 278.446 224.873L277.187 226.427C279.418 228.235 281.248 230.428 282.676 233.015L284.427 232.048ZM278.446 224.873C276.011 222.899 273.205 221.394 270.039 220.353L269.414 222.253C272.366 223.224 274.953 224.617 277.187 226.427L278.446 224.873ZM270.043 220.354C266.912 219.311 263.524 218.794 259.887 218.794V220.794C263.333 220.794 266.505 221.283 269.411 222.252L270.043 220.354ZM259.887 218.794C253.314 218.794 247.541 220.429 242.608 223.732L243.721 225.394C248.286 222.338 253.661 220.794 259.887 220.794V218.794ZM242.613 223.729C237.678 226.991 233.88 231.743 231.199 237.93L233.034 238.725C235.585 232.837 239.153 228.414 243.716 225.397L242.613 223.729ZM231.2 237.927C228.515 244.083 227.193 251.512 227.193 260.181H229.193C229.193 251.705 230.487 244.565 233.033 238.727L231.2 237.927ZM227.193 260.181C227.193 269.087 228.514 276.638 231.2 282.797L233.033 281.997C230.488 276.162 229.193 268.902 229.193 260.181H227.193ZM231.202 282.802C233.925 288.948 237.745 293.64 242.683 296.821L243.766 295.139C239.206 292.202 235.621 287.839 233.031 281.992L231.202 282.802ZM242.683 296.821C247.61 299.994 253.296 301.568 259.706 301.568V299.568C253.639 299.568 248.337 298.083 243.766 295.139L242.683 296.821ZM259.706 301.568C263.295 301.568 266.636 301.093 269.722 300.134L269.128 298.224C266.257 299.117 263.118 299.568 259.706 299.568V301.568ZM269.718 300.135C272.84 299.178 275.624 297.779 278.058 295.931L276.85 294.338C274.616 296.033 272.047 297.329 269.132 298.223L269.718 300.135ZM278.067 295.925C280.502 294.036 282.517 291.747 284.109 289.065L282.39 288.044C280.923 290.513 279.075 292.611 276.841 294.345L278.067 295.925ZM284.104 289.075C285.744 286.383 286.87 283.328 287.493 279.92L285.526 279.561C284.942 282.754 283.895 285.574 282.396 288.034L284.104 289.075ZM286.505 280.74L312.947 280.861L312.956 278.861L286.514 278.741L286.505 280.74ZM311.958 279.742C311.289 285.293 309.616 290.651 306.932 295.821L308.707 296.742C311.497 291.368 313.245 285.779 313.944 279.981L311.958 279.742ZM306.931 295.824C304.292 300.943 300.726 305.537 296.223 309.606L297.563 311.09C302.236 306.868 305.954 302.084 308.709 296.74L306.931 295.824ZM296.223 309.605C291.776 313.62 286.452 316.818 280.236 319.193L280.95 321.062C287.372 318.607 292.915 315.286 297.563 311.09L296.223 309.605ZM280.24 319.192C274.093 321.517 267.112 322.689 259.283 322.689V324.689C267.311 324.689 274.537 323.487 280.947 321.063L280.24 319.192ZM259.283 322.689C248.412 322.689 238.727 320.231 230.2 315.336L229.204 317.071C238.064 322.157 248.099 324.689 259.283 324.689V322.689ZM230.202 315.337C221.723 310.447 215.009 303.366 210.059 294.061L208.294 295.001C213.406 304.611 220.375 311.979 229.202 317.07L230.202 315.337ZM210.061 294.064C205.163 284.783 202.691 273.501 202.691 260.181H200.691C200.691 273.745 203.209 285.364 208.292 294.998L210.061 294.064ZM202.691 260.181C202.691 246.822 205.203 235.523 210.178 226.243L208.416 225.298C203.249 234.934 200.691 246.575 200.691 260.181H202.691ZM210.178 226.243C215.167 216.938 221.921 209.877 230.438 205.027L229.449 203.289C220.58 208.339 213.569 215.687 208.416 225.298L210.178 226.243ZM230.441 205.025C238.97 200.129 248.576 197.672 259.283 197.672V195.672C248.257 195.672 238.303 198.206 229.446 203.291L230.441 205.025ZM259.283 197.672C266.352 197.672 272.886 198.665 278.892 200.641L279.517 198.741C273.288 196.692 266.541 195.672 259.283 195.672V197.672ZM278.894 200.641C284.942 202.618 290.285 205.499 294.934 209.28L296.196 207.729C291.346 203.783 285.783 200.788 279.515 198.74L278.894 200.641ZM294.938 209.284C299.579 213.02 303.357 217.603 306.275 223.043L308.037 222.098C304.998 216.43 301.049 211.636 296.192 207.726L294.938 209.284ZM306.277 223.048C309.227 228.476 311.126 234.709 311.958 241.765L313.944 241.53C313.086 234.258 311.122 227.774 308.034 222.093L306.277 223.048Z" fill="#CB34A5" mask="url(#path-15-outside-1_398_24)"/>
</svg>
