<svg width="404" height="519" viewBox="0 0 404 519" fill="none" xmlns="http://www.w3.org/2000/svg">
<path d="M1 161C1 136.147 21.1472 116 46 116H403V473C403 497.853 382.853 518 358 518H46C21.1472 518 1 497.853 1 473V161Z" fill="white"/>
<path d="M1 47C1 22.1472 21.1472 2 46 2H321V473C321 497.853 300.853 518 276 518H46C21.1472 518 1 497.853 1 473V47Z" fill="white"/>
<path d="M321.618 2.00098L402.595 118.538L308.977 183.589L228 67.0524L321.618 2.00098Z" fill="white"/>
<line x1="2.88574" y1="478.309" x2="2.88574" y2="41.691" stroke="#CB34A5" stroke-width="5"/>
<line x1="41.1709" y1="3.46924" x2="325" y2="3.46924" stroke="#CB34A5" stroke-width="5"/>
<path d="M400.939 116.937L323 2.50097" stroke="#CB34A5" stroke-width="5"/>
<line x1="321.772" y1="97.2617" x2="321.772" y2="2.00018" stroke="#CB34A5" stroke-width="5"/>
<line x1="343.358" y1="118.577" x2="403" y2="118.577" stroke="#CB34A5" stroke-width="5"/>
<path d="M343.5 118.5C335.5 118.5 321.5 116.5 322 97" stroke="#CB34A5" stroke-width="5"/>
<path d="M3 478C2.99988 493.5 9.70012 516.3 42.5001 515.5" stroke="#CB34A5" stroke-width="5"/>
<line x1="400.5" y1="478.308" x2="400.5" y2="115.52" stroke="#CB34A5" stroke-width="5"/>
<line x1="41.1709" y1="515.5" x2="363.238" y2="515.5" stroke="#CB34A5" stroke-width="5"/>
<path d="M362.046 516.016C375.167 516.016 401.012 511.888 401.012 476.323" stroke="#CB34A5" stroke-width="5"/>
<path d="M43.1589 3.98471C28.8448 3.5879 3.39746 10.4149 3.39746 44.0739" stroke="#CB34A5" stroke-width="5"/>
<mask id="path-15-outside-1_399_2" maskUnits="userSpaceOnUse" x="78" y="195" width="254" height="126" fill="black">
<rect fill="white" x="78" y="195" width="254" height="126"/>
<path d="M79.2711 196.364H111.508L145.557 279.432H147.006L181.054 196.364H213.291V320H187.936V239.528H186.91L154.914 319.396H137.648L105.653 239.226H104.626V320H79.2711V196.364ZM234.828 320V196.364H284.331C293.426 196.364 301.013 197.712 307.09 200.408C313.167 203.105 317.735 206.848 320.794 211.637C323.852 216.386 325.382 221.86 325.382 228.058C325.382 232.887 324.416 237.133 322.484 240.795C320.552 244.418 317.896 247.396 314.515 249.73C311.175 252.024 307.351 253.654 303.045 254.62V255.827C307.754 256.029 312.161 257.357 316.266 259.812C320.411 262.267 323.772 265.708 326.348 270.135C328.923 274.522 330.211 279.754 330.211 285.831C330.211 292.391 328.581 298.247 325.321 303.398C322.102 308.51 317.333 312.554 311.014 315.533C304.695 318.511 296.908 320 287.651 320H234.828ZM260.968 298.629H282.278C289.563 298.629 294.875 297.241 298.216 294.464C301.556 291.647 303.226 287.904 303.226 283.235C303.226 279.814 302.401 276.796 300.751 274.18C299.101 271.564 296.747 269.511 293.688 268.022C290.669 266.533 287.067 265.788 282.882 265.788H260.968V298.629ZM260.968 248.1H280.346C283.928 248.1 287.108 247.476 289.885 246.229C292.702 244.941 294.915 243.13 296.525 240.795C298.175 238.461 299 235.664 299 232.404C299 227.937 297.411 224.335 294.231 221.598C291.092 218.861 286.625 217.493 280.829 217.493H260.968V248.1Z"/>
</mask>
<path d="M79.2711 196.364H111.508L145.557 279.432H147.006L181.054 196.364H213.291V320H187.936V239.528H186.91L154.914 319.396H137.648L105.653 239.226H104.626V320H79.2711V196.364ZM234.828 320V196.364H284.331C293.426 196.364 301.013 197.712 307.09 200.408C313.167 203.105 317.735 206.848 320.794 211.637C323.852 216.386 325.382 221.86 325.382 228.058C325.382 232.887 324.416 237.133 322.484 240.795C320.552 244.418 317.896 247.396 314.515 249.73C311.175 252.024 307.351 253.654 303.045 254.62V255.827C307.754 256.029 312.161 257.357 316.266 259.812C320.411 262.267 323.772 265.708 326.348 270.135C328.923 274.522 330.211 279.754 330.211 285.831C330.211 292.391 328.581 298.247 325.321 303.398C322.102 308.51 317.333 312.554 311.014 315.533C304.695 318.511 296.908 320 287.651 320H234.828ZM260.968 298.629H282.278C289.563 298.629 294.875 297.241 298.216 294.464C301.556 291.647 303.226 287.904 303.226 283.235C303.226 279.814 302.401 276.796 300.751 274.18C299.101 271.564 296.747 269.511 293.688 268.022C290.669 266.533 287.067 265.788 282.882 265.788H260.968V298.629ZM260.968 248.1H280.346C283.928 248.1 287.108 247.476 289.885 246.229C292.702 244.941 294.915 243.13 296.525 240.795C298.175 238.461 299 235.664 299 232.404C299 227.937 297.411 224.335 294.231 221.598C291.092 218.861 286.625 217.493 280.829 217.493H260.968V248.1Z" fill="#CB34A5"/>
<path d="M79.2711 196.364V195.364H78.2711V196.364H79.2711ZM111.508 196.364L112.434 195.984L112.179 195.364H111.508V196.364ZM145.557 279.432L144.631 279.811L144.886 280.432H145.557V279.432ZM147.006 279.432V280.432H147.676L147.931 279.811L147.006 279.432ZM181.054 196.364V195.364H180.383L180.129 195.984L181.054 196.364ZM213.291 196.364H214.291V195.364H213.291V196.364ZM213.291 320V321H214.291V320H213.291ZM187.936 320H186.936V321H187.936V320ZM187.936 239.528H188.936V238.528H187.936V239.528ZM186.91 239.528V238.528H186.233L185.981 239.156L186.91 239.528ZM154.914 319.396V320.396H155.591L155.842 319.768L154.914 319.396ZM137.648 319.396L136.719 319.767L136.971 320.396H137.648V319.396ZM105.653 239.226L106.581 238.855L106.33 238.226H105.653V239.226ZM104.626 239.226V238.226H103.626V239.226H104.626ZM104.626 320V321H105.626V320H104.626ZM79.2711 320H78.2711V321H79.2711V320ZM79.2711 197.364H111.508V195.364H79.2711V197.364ZM110.583 196.743L144.631 279.811L146.482 279.053L112.434 195.984L110.583 196.743ZM145.557 280.432H147.006V278.432H145.557V280.432ZM147.931 279.811L181.979 196.743L180.129 195.984L146.08 279.053L147.931 279.811ZM181.054 197.364H213.291V195.364H181.054V197.364ZM212.291 196.364V320H214.291V196.364H212.291ZM213.291 319H187.936V321H213.291V319ZM188.936 320V239.528H186.936V320H188.936ZM187.936 238.528H186.91V240.528H187.936V238.528ZM185.981 239.156L153.986 319.024L155.842 319.768L187.838 239.9L185.981 239.156ZM154.914 318.396H137.648V320.396H154.914V318.396ZM138.577 319.026L106.581 238.855L104.724 239.597L136.719 319.767L138.577 319.026ZM105.653 238.226H104.626V240.226H105.653V238.226ZM103.626 239.226V320H105.626V239.226H103.626ZM104.626 319H79.2711V321H104.626V319ZM80.2711 320V196.364H78.2711V320H80.2711ZM234.828 320H233.828V321H234.828V320ZM234.828 196.364V195.364H233.828V196.364H234.828ZM307.09 200.408L306.684 201.322L306.684 201.322L307.09 200.408ZM320.794 211.637L319.951 212.175L319.953 212.179L320.794 211.637ZM322.484 240.795L323.366 241.266L323.369 241.262L322.484 240.795ZM314.515 249.73L315.081 250.554L315.083 250.553L314.515 249.73ZM303.045 254.62L302.826 253.644L302.045 253.819V254.62H303.045ZM303.045 255.827H302.045V256.786L303.002 256.827L303.045 255.827ZM316.266 259.812L315.753 260.67L315.756 260.672L316.266 259.812ZM326.348 270.135L325.483 270.638L325.485 270.641L326.348 270.135ZM325.321 303.398L324.476 302.864L324.475 302.865L325.321 303.398ZM311.014 315.533L310.587 314.628L310.587 314.628L311.014 315.533ZM260.968 298.629H259.968V299.629H260.968V298.629ZM298.216 294.464L298.855 295.233L298.86 295.228L298.216 294.464ZM300.751 274.18L299.905 274.713L299.905 274.713L300.751 274.18ZM293.688 268.022L293.245 268.919L293.25 268.921L293.688 268.022ZM260.968 265.788V264.788H259.968V265.788H260.968ZM260.968 248.1H259.968V249.1H260.968V248.1ZM289.885 246.229L290.294 247.141L290.3 247.138L289.885 246.229ZM296.525 240.795L295.709 240.218L295.702 240.228L296.525 240.795ZM294.231 221.598L293.574 222.352L293.579 222.356L294.231 221.598ZM260.968 217.493V216.493H259.968V217.493H260.968ZM235.828 320V196.364H233.828V320H235.828ZM234.828 197.364H284.331V195.364H234.828V197.364ZM284.331 197.364C293.335 197.364 300.773 198.699 306.684 201.322L307.495 199.494C301.253 196.724 293.518 195.364 284.331 195.364V197.364ZM306.684 201.322C312.613 203.953 317.015 207.578 319.951 212.175L321.636 211.099C318.455 206.117 313.721 202.257 307.495 199.494L306.684 201.322ZM319.953 212.179C322.898 216.751 324.382 222.032 324.382 228.058H326.382C326.382 221.687 324.807 216.022 321.634 211.096L319.953 212.179ZM324.382 228.058C324.382 232.752 323.444 236.833 321.6 240.329L323.369 241.262C325.388 237.434 326.382 233.023 326.382 228.058H324.382ZM321.602 240.325C319.745 243.806 317.197 246.664 313.947 248.907L315.083 250.553C318.595 248.128 321.359 245.029 323.366 241.266L321.602 240.325ZM313.949 248.906C310.723 251.121 307.019 252.704 302.826 253.644L303.264 255.596C307.684 254.604 311.627 252.927 315.081 250.554L313.949 248.906ZM302.045 254.62V255.827H304.045V254.62H302.045ZM303.002 256.827C307.543 257.021 311.788 258.299 315.753 260.67L316.779 258.954C312.534 256.415 307.965 255.037 303.088 254.828L303.002 256.827ZM315.756 260.672C319.746 263.035 322.988 266.349 325.483 270.638L327.212 269.632C324.556 265.067 321.077 261.499 316.776 258.951L315.756 260.672ZM325.485 270.641C327.955 274.847 329.211 279.897 329.211 285.831H331.211C331.211 279.611 329.892 274.196 327.21 269.629L325.485 270.641ZM329.211 285.831C329.211 292.217 327.627 297.884 324.476 302.864L326.166 303.933C329.535 298.609 331.211 292.565 331.211 285.831H329.211ZM324.475 302.865C321.372 307.791 316.761 311.718 310.587 314.628L311.44 316.437C317.904 313.391 322.831 309.228 326.167 303.931L324.475 302.865ZM310.587 314.628C304.438 317.527 296.806 319 287.651 319V321C297.009 321 304.952 319.495 311.44 316.437L310.587 314.628ZM287.651 319H234.828V321H287.651V319ZM260.968 299.629H282.278V297.629H260.968V299.629ZM282.278 299.629C289.651 299.629 295.248 298.231 298.855 295.233L297.576 293.695C294.502 296.25 289.474 297.629 282.278 297.629V299.629ZM298.86 295.228C302.443 292.207 304.226 288.175 304.226 283.235H302.226C302.226 287.632 300.669 291.086 297.571 293.699L298.86 295.228ZM304.226 283.235C304.226 279.646 303.358 276.439 301.597 273.646L299.905 274.713C301.444 277.153 302.226 279.982 302.226 283.235H304.226ZM301.597 273.646C299.838 270.857 297.334 268.685 294.126 267.123L293.25 268.921C296.159 270.337 298.364 272.27 299.905 274.713L301.597 273.646ZM294.13 267.125C290.945 265.554 287.184 264.788 282.882 264.788V266.788C286.95 266.788 290.394 267.512 293.245 268.919L294.13 267.125ZM282.882 264.788H260.968V266.788H282.882V264.788ZM259.968 265.788V298.629H261.968V265.788H259.968ZM260.968 249.1H280.346V247.1H260.968V249.1ZM280.346 249.1C284.045 249.1 287.368 248.456 290.294 247.141L289.475 245.317C286.847 246.497 283.812 247.1 280.346 247.1V249.1ZM290.3 247.138C293.266 245.782 295.627 243.86 297.348 241.363L295.702 240.228C294.204 242.4 292.138 244.099 289.469 245.319L290.3 247.138ZM297.342 241.373C299.128 238.847 300 235.841 300 232.404H298C298 235.487 297.223 238.076 295.709 240.218L297.342 241.373ZM300 232.404C300 227.667 298.299 223.78 294.884 220.84L293.579 222.356C296.522 224.889 298 228.207 298 232.404H300ZM294.888 220.844C291.507 217.896 286.772 216.493 280.829 216.493V218.493C286.477 218.493 290.677 219.826 293.574 222.352L294.888 220.844ZM280.829 216.493H260.968V218.493H280.829V216.493ZM259.968 217.493V248.1H261.968V217.493H259.968Z" fill="#CB34A5" mask="url(#path-15-outside-1_399_2)"/>
</svg>
