<svg width="266" height="343" viewBox="0 0 266 343" fill="none" xmlns="http://www.w3.org/2000/svg">
<path d="M0.46053 258.321C-1.19148 253.051 1.74146 247.44 7.01144 245.788L230.216 175.818C235.486 174.166 241.098 177.099 242.75 182.369L264.29 251.082C265.942 256.352 263.009 261.963 257.739 263.615L34.5337 333.585C29.2637 335.237 23.6524 332.304 22.0003 327.034L0.46053 258.321Z" fill="black"/>
<path d="M1.62533 91.5913C-0.0266868 86.3214 2.90625 80.71 8.17623 79.058L230.747 9.2873C236.017 7.63529 241.628 10.5682 243.28 15.8382L264.65 84.0063C266.302 89.2763 263.369 94.8877 258.099 96.5397L35.5278 166.31C30.2578 167.962 24.6464 165.029 22.9944 159.759L1.62533 91.5913Z" fill="black"/>
<path d="M22.0769 99.4225C23.7168 94.1488 29.3214 91.2029 34.5952 92.8428L257.54 162.168C262.814 163.808 265.76 169.412 264.12 174.686L243.117 242.23C241.477 247.504 235.873 250.449 230.599 248.81L7.65386 179.485C2.38009 177.845 -0.565744 172.24 1.07414 166.966L22.0769 99.4225Z" fill="black"/>
<path d="M0.0624354 88.8082C0.0624354 83.2854 4.53959 78.8082 10.0624 78.8082H41.0624C46.5853 78.8082 51.0624 83.2854 51.0624 88.8082V169.808C51.0624 175.331 46.5853 179.808 41.0624 179.808H10.0624C4.53959 179.808 0.0624354 175.331 0.0624354 169.808V88.8082Z" fill="black"/>
<path d="M214.215 171.808C214.215 166.285 218.692 161.808 224.215 161.808H255.215C260.738 161.808 265.215 166.285 265.215 171.808V253.808C265.215 259.331 260.738 263.808 255.215 263.808H224.215C218.692 263.808 214.215 259.331 214.215 253.808V171.808Z" fill="black"/>
<path d="M1.21466 255.808C1.21466 250.285 5.69181 245.808 11.2147 245.808H40.2147C45.7375 245.808 50.2147 250.285 50.2147 255.808V320.808C50.2147 326.331 45.7375 330.808 40.2147 330.808H11.2147C5.69181 330.808 1.21466 326.331 1.21466 320.808V255.808Z" fill="black"/>
<path d="M50.8308 276.119C52.3525 274.291 55.0685 274.042 56.8971 275.564C58.7257 277.085 58.9745 279.801 57.4527 281.63L8.59205 340.344C7.07031 342.172 4.35431 342.421 2.5257 340.899C0.697095 339.378 0.448327 336.662 1.97007 334.833L50.8308 276.119Z" fill="black"/>
<path d="M76.757 310.486C79.2082 309.71 81.8238 311.069 82.5991 313.52C83.3744 315.971 82.0159 318.587 79.5647 319.362L7.39876 342.189C4.94761 342.964 2.33203 341.606 1.55671 339.154C0.781381 336.703 2.13991 334.088 4.59106 333.312L76.757 310.486Z" fill="black"/>
<path d="M0.121762 255.808C0.121762 250.838 4.1512 246.808 9.12176 246.808V337.308C9.12176 339.794 7.10704 341.808 4.62176 341.808C2.13648 341.808 0.121762 339.794 0.121762 337.308V255.808Z" fill="black"/>
<path d="M215.36 66.4764C213.843 68.3095 211.128 68.5663 209.295 67.05C207.462 65.5337 207.205 62.8184 208.721 60.9853L257.408 2.12735C258.925 0.29425 261.64 0.0374565 263.473 1.55378C265.306 3.07011 265.563 5.78536 264.046 7.61846L215.36 66.4764Z" fill="black"/>
<path d="M262.204 52.023C262.5 57.5378 258.261 62.2494 252.746 62.5459C247.231 62.8424 242.51 58.6126 242.214 53.0977L240.282 17.1676C239.986 11.6528 244.225 6.9412 249.74 6.64469C255.255 6.34818 259.975 10.578 260.272 16.0929L262.204 52.023Z" fill="black"/>
<path d="M189.364 32.1765C186.898 32.9649 184.259 31.6041 183.47 29.1372C182.682 26.6703 184.043 24.0315 186.51 23.2431L258.542 0.223795C261.009 -0.564544 263.648 0.796196 264.437 3.26309C265.225 5.72998 263.864 8.36887 261.397 9.15721L189.364 32.1765Z" fill="black"/>
<path d="M265.278 87.3831C265.285 89.6329 263.466 91.4621 261.216 91.4688C258.967 91.4754 257.137 89.657 257.131 87.4072L256.886 4.73793C256.88 2.48815 258.698 0.658945 260.948 0.65229C263.198 0.645636 265.027 2.46405 265.033 4.71383L265.278 87.3831Z" fill="black"/>
</svg>
