<svg width="300" height="300" viewBox="0 0 300 300" fill="none" xmlns="http://www.w3.org/2000/svg">
<rect x="0.5" y="0.5" width="299" height="299" stroke="black"/>
<rect x="6.5" y="31.5" width="287" height="238" stroke="black"/>
<rect x="8.25" y="6.25" width="19.5" height="19.5" stroke="black" stroke-width="0.5"/>
<rect x="52.25" y="6.25" width="19.5" height="19.5" stroke="black" stroke-width="0.5"/>
<rect x="96.25" y="6.25" width="19.5" height="19.5" stroke="black" stroke-width="0.5"/>
<rect x="140.25" y="6.25" width="19.5" height="19.5" stroke="black" stroke-width="0.5"/>
<rect x="184.25" y="6.25" width="19.5" height="19.5" stroke="black" stroke-width="0.5"/>
<rect x="228.25" y="6.25" width="19.5" height="19.5" stroke="black" stroke-width="0.5"/>
<rect x="272.25" y="6.25" width="19.5" height="19.5" stroke="black" stroke-width="0.5"/>
<rect x="293" y="1" width="6" height="298" fill="black"/>
<rect x="1" y="1" width="6" height="298" fill="black"/>
<rect x="7" y="1" width="1" height="30" fill="black"/>
<rect x="8" y="1" width="286" height="5" fill="black"/>
<rect x="8" y="26" width="286" height="5" fill="black"/>
<rect x="292" y="6" width="1" height="20" fill="black"/>
<rect x="248" y="6" width="24" height="20" fill="black"/>
<rect x="204" y="6" width="24" height="20" fill="black"/>
<rect x="160" y="6" width="24" height="20" fill="black"/>
<rect x="116" y="6" width="24" height="20" fill="black"/>
<rect x="72" y="6" width="24" height="20" fill="black"/>
<rect x="28" y="6" width="24" height="20" fill="black"/>
<rect x="8.25" y="275.25" width="19.5" height="19.5" stroke="black" stroke-width="0.5"/>
<rect x="52.25" y="275.25" width="19.5" height="19.5" stroke="black" stroke-width="0.5"/>
<rect x="96.25" y="275.25" width="19.5" height="19.5" stroke="black" stroke-width="0.5"/>
<rect x="140.25" y="275.25" width="19.5" height="19.5" stroke="black" stroke-width="0.5"/>
<rect x="184.25" y="275.25" width="19.5" height="19.5" stroke="black" stroke-width="0.5"/>
<rect x="228.25" y="275.25" width="19.5" height="19.5" stroke="black" stroke-width="0.5"/>
<rect x="272.25" y="275.25" width="19.5" height="19.5" stroke="black" stroke-width="0.5"/>
<rect x="7" y="270" width="1" height="30" fill="black"/>
<rect x="8" y="270" width="286" height="5" fill="black"/>
<rect x="8" y="295" width="286" height="5" fill="black"/>
<rect x="292" y="275" width="1" height="20" fill="black"/>
<rect x="248" y="275" width="24" height="20" fill="black"/>
<rect x="204" y="275" width="24" height="20" fill="black"/>
<rect x="160" y="275" width="24" height="20" fill="black"/>
<rect x="116" y="275" width="24" height="20" fill="black"/>
<rect x="72" y="275" width="24" height="20" fill="black"/>
<rect x="28" y="275" width="24" height="20" fill="black"/>
<path d="M148.596 41.9374C149.19 40.0852 151.81 40.0852 152.404 41.9374L175.986 115.456C176.251 116.284 177.021 116.845 177.89 116.845L254.255 116.845C256.187 116.845 256.996 119.311 255.441 120.456L193.616 165.958C192.924 166.467 192.635 167.361 192.897 168.179L216.502 241.77C217.094 243.617 214.974 245.141 213.412 243.992L151.685 198.563C150.98 198.044 150.02 198.044 149.315 198.563L87.5884 243.992C86.026 245.141 83.906 243.617 84.4984 241.77L108.103 168.179C108.365 167.361 108.076 166.467 107.384 165.958L45.5591 120.456C44.0037 119.311 44.8134 116.845 46.7446 116.845L123.11 116.845C123.979 116.845 124.749 116.284 125.014 115.456L148.596 41.9374Z" fill="black"/>
</svg>
