<svg width="329" height="326" viewBox="0 0 329 326" fill="none" xmlns="http://www.w3.org/2000/svg">
<line x1="231.663" y1="323.37" x2="3.66342" y2="116.37" stroke="black"/>
<line x1="246.697" y1="237.398" x2="41.6967" y2="81.3984" stroke="black"/>
<line x1="98.2984" y1="202.401" x2="39.2984" y2="246.401" stroke="black"/>
<line x1="247.303" y1="88.3976" x2="149.303" y2="163.398" stroke="black"/>
<line x1="55.3352" y1="163.371" x2="2.33514" y2="211.371" stroke="black"/>
<path d="M2.49944 211C1 213 -0.000156879 219.5 2.9996 222.5" stroke="black"/>
<path d="M28.0639 245.484C30.1689 247.152 37.1816 248.5 40.5716 245.484" stroke="black"/>
<line x1="229.336" y1="4.37059" x2="98.3357" y2="123.371" stroke="black"/>
<line x1="246.5" y1="10.9988" x2="247.534" y2="310.999" stroke="black"/>
<line x1="327.501" y1="50.9983" x2="328.493" y2="273.998" stroke="black"/>
<line x1="319.78" y1="37.449" x2="248.78" y2="2.44896" stroke="black"/>
<line x1="320.22" y1="288.45" x2="250.22" y2="322.45" stroke="black"/>
<path d="M249 2.5C243.5 -5.62668e-05 233 0.500558 229 5.00041" stroke="black"/>
<path d="M231 323C236.5 325.5 239 327 250.5 322.5" stroke="black"/>
<path d="M320.001 288.5C329.001 283 328.501 276.8 328.501 274" stroke="black"/>
<path d="M319.501 37.5C321.501 38 326.301 43.1 327.501 51.5" stroke="black"/>
<path d="M229.5 4.49995C238 1.50005 244 4.49995 246.5 10.9999" stroke="black"/>
<path d="M247.5 310.5C247.5 317 242.3 324.6 231.5 323" stroke="black"/>
<path d="M41.9999 81.9997C35.5 76.4997 29.9995 78.4999 29.4995 79M3.99999 116.5C1.00014 114 0.599745 108.4 2.99975 104" stroke="black"/>
<line x1="2.65318" y1="104.64" x2="29.6532" y2="78.6398" stroke="black"/>
<line x1="2.33914" y1="221.633" x2="28.3391" y2="245.633" stroke="black"/>
</svg>
