<svg width="333" height="330" viewBox="0 0 333 330" fill="none" xmlns="http://www.w3.org/2000/svg">
<path d="M233.606 325.367L5.60631 118.367M248.64 239.395L43.6396 83.3948M100.241 204.398L41.2413 248.398M249.246 90.394L151.246 165.394M57.278 165.368L4.278 213.367M4.44225 212.997C2.94282 214.997 1.94266 221.497 4.94241 224.497M30.0067 247.481C32.1117 249.148 39.1244 250.497 42.5144 247.481M231.279 6.36701L100.279 125.367M248.442 12.9952L249.477 312.995M329.444 52.9947L330.435 275.995M321.723 39.4454L250.723 4.44537M322.163 290.447L252.163 324.447M250.942 4.49664C245.442 1.99658 234.942 2.4972 230.942 6.99705M232.942 324.997C238.442 327.497 240.942 328.997 252.442 324.497M321.944 290.497C330.944 284.997 330.444 278.797 330.444 275.997M321.444 39.4966C323.444 39.9966 328.244 45.0966 329.444 53.4966M231.442 6.49664C239.942 3.49674 245.942 6.49664 248.442 12.9966M249.442 312.497C249.442 318.997 244.242 326.597 233.442 324.997M43.9426 83.9965C37.4427 78.4965 31.9422 80.4967 31.4422 80.9968M5.94266 118.497C2.94281 115.997 2.54241 110.397 4.94241 105.997M4.59599 106.636L31.596 80.6365M4.28196 223.629L30.282 247.629" stroke="black" stroke-width="5"/>
</svg>
